<svg width="581" height="200" viewBox="0 0 581 200" fill="none" xmlns="http://www.w3.org/2000/svg">
<path d="M151.404 109.064C153.392 110.981 153.449 114.146 151.531 116.133L114.62 154.383C113.679 155.358 112.382 155.91 111.026 155.911L36.7688 156.001C32.3538 156.007 30.0982 150.709 33.1633 147.532L105.908 72.1483C107.826 70.1613 110.992 70.1041 112.98 72.0207L151.404 109.064Z" fill="#6C57EB"/>
<path d="M48.3125 90.7636C46.3286 88.8428 46.2782 85.6781 48.2 83.6951L85.1924 45.5233C86.1356 44.5501 87.4336 44.0012 88.7892 44.0024L163.047 44.0703C167.462 44.0743 169.706 49.3772 166.634 52.547L93.7294 127.776C91.8077 129.759 88.6415 129.81 86.6576 127.889L48.3125 90.7636Z" fill="#826EFD"/>
<path d="M205 123.415C202.12 123.415 199.56 123.055 197.32 122.335C195.08 121.615 192.98 120.395 191.02 118.675C189.94 117.715 189.4 116.655 189.4 115.495C189.4 114.575 189.74 113.775 190.42 113.095C191.1 112.375 191.92 112.015 192.88 112.015C193.64 112.015 194.32 112.255 194.92 112.735C196.52 114.055 198.08 115.015 199.6 115.615C201.12 116.215 202.92 116.515 205 116.515C207.24 116.515 209.16 116.015 210.76 115.015C212.4 114.015 213.22 112.775 213.22 111.295C213.22 109.495 212.42 108.095 210.82 107.095C209.22 106.055 206.68 105.275 203.2 104.755C194.44 103.475 190.06 99.3954 190.06 92.5154C190.06 89.9954 190.72 87.8154 192.04 85.9754C193.36 84.0954 195.16 82.6754 197.44 81.7154C199.72 80.7154 202.26 80.2154 205.06 80.2154C207.58 80.2154 209.94 80.5954 212.14 81.3554C214.38 82.1154 216.24 83.1154 217.72 84.3554C218.88 85.2754 219.46 86.3354 219.46 87.5354C219.46 88.4554 219.12 89.2754 218.44 89.9954C217.76 90.6754 216.96 91.0154 216.04 91.0154C215.44 91.0154 214.9 90.8354 214.42 90.4754C213.38 89.6354 211.92 88.8754 210.04 88.1954C208.2 87.4754 206.54 87.1154 205.06 87.1154C202.54 87.1154 200.58 87.5954 199.18 88.5554C197.82 89.4754 197.14 90.6954 197.14 92.2154C197.14 93.9354 197.84 95.2354 199.24 96.1154C200.68 96.9954 202.92 97.7154 205.96 98.2754C209.4 98.8754 212.14 99.6554 214.18 100.615C216.26 101.535 217.82 102.815 218.86 104.455C219.9 106.055 220.42 108.195 220.42 110.875C220.42 113.395 219.7 115.615 218.26 117.535C216.86 119.415 214.98 120.875 212.62 121.915C210.26 122.915 207.72 123.415 205 123.415ZM254.901 80.8154C255.981 80.8154 256.861 81.1354 257.541 81.7754C258.221 82.4154 258.561 83.2554 258.561 84.2954C258.561 85.3354 258.221 86.1754 257.541 86.8154C256.861 87.4154 255.981 87.7154 254.901 87.7154H245.481V119.155C245.481 120.195 245.101 121.075 244.341 121.795C243.581 122.475 242.641 122.815 241.521 122.815C240.401 122.815 239.481 122.475 238.761 121.795C238.041 121.075 237.681 120.195 237.681 119.155V87.7154H228.261C227.181 87.7154 226.301 87.3954 225.621 86.7554C224.941 86.1154 224.601 85.2754 224.601 84.2354C224.601 83.2354 224.941 82.4154 225.621 81.7754C226.341 81.1354 227.221 80.8154 228.261 80.8154H254.901ZM288.619 115.915C289.659 115.915 290.519 116.275 291.199 116.995C291.919 117.675 292.279 118.475 292.279 119.395C292.279 120.395 291.919 121.215 291.199 121.855C290.519 122.495 289.659 122.815 288.619 122.815H268.519C267.479 122.815 266.599 122.475 265.879 121.795C265.199 121.075 264.859 120.195 264.859 119.155V84.4754C264.859 83.4354 265.199 82.5754 265.879 81.8954C266.599 81.1754 267.479 80.8154 268.519 80.8154H288.619C289.659 80.8154 290.519 81.1554 291.199 81.8354C291.919 82.4754 292.279 83.3154 292.279 84.3554C292.279 85.3554 291.939 86.1754 291.259 86.8154C290.579 87.4154 289.699 87.7154 288.619 87.7154H272.359V97.9154H285.919C286.959 97.9154 287.819 98.2554 288.499 98.9354C289.219 99.5754 289.579 100.415 289.579 101.455C289.579 102.455 289.239 103.275 288.559 103.915C287.879 104.515 286.999 104.815 285.919 104.815H272.359V115.915H288.619ZM335.615 80.7554C336.615 80.7554 337.475 81.1154 338.195 81.8354C338.955 82.5154 339.335 83.3754 339.335 84.4154V119.155C339.335 120.195 338.995 121.075 338.315 121.795C337.635 122.475 336.735 122.815 335.615 122.815C334.495 122.815 333.575 122.475 332.855 121.795C332.175 121.115 331.835 120.235 331.835 119.155V94.9754L321.935 110.095C321.535 110.575 321.075 110.975 320.555 111.295C320.035 111.575 319.495 111.695 318.935 111.655C318.415 111.695 317.895 111.575 317.375 111.295C316.855 110.975 316.395 110.575 315.995 110.095L306.095 94.4354V119.155C306.095 120.235 305.775 121.115 305.135 121.795C304.495 122.475 303.655 122.815 302.615 122.815C301.615 122.815 300.795 122.475 300.155 121.795C299.515 121.075 299.195 120.195 299.195 119.155V84.4154C299.195 83.4154 299.555 82.5554 300.275 81.8354C301.035 81.1154 301.935 80.7554 302.975 80.7554C303.575 80.7554 304.175 80.9154 304.775 81.2354C305.375 81.5154 305.835 81.8954 306.155 82.3754L319.235 102.475L332.675 82.3754C332.995 81.8954 333.415 81.5154 333.935 81.2354C334.495 80.9154 335.055 80.7554 335.615 80.7554ZM350.515 107.995C349.475 107.995 348.595 107.655 347.875 106.975C347.195 106.295 346.855 105.435 346.855 104.395C346.855 103.395 347.195 102.555 347.875 101.875C348.595 101.195 349.475 100.855 350.515 100.855H360.955C361.995 100.855 362.855 101.215 363.535 101.935C364.255 102.615 364.615 103.475 364.615 104.515C364.615 105.515 364.255 106.355 363.535 107.035C362.855 107.675 361.995 107.995 360.955 107.995H350.515ZM388.165 90.1154C390.925 90.1154 393.425 90.8354 395.665 92.2754C397.905 93.6754 399.665 95.6354 400.945 98.1554C402.265 100.675 402.925 103.535 402.925 106.735C402.925 109.935 402.285 112.815 401.005 115.375C399.725 117.895 397.965 119.875 395.725 121.315C393.525 122.715 391.085 123.415 388.405 123.415C386.485 123.415 384.665 123.035 382.945 122.275C381.265 121.475 379.865 120.515 378.745 119.395V119.755C378.745 120.795 378.405 121.675 377.725 122.395C377.045 123.075 376.185 123.415 375.145 123.415C374.105 123.415 373.245 123.075 372.565 122.395C371.885 121.715 371.545 120.835 371.545 119.755V82.0754C371.545 81.0354 371.885 80.1754 372.565 79.4954C373.245 78.7754 374.105 78.4154 375.145 78.4154C376.185 78.4154 377.045 78.7754 377.725 79.4954C378.405 80.1754 378.745 81.0354 378.745 82.0754V94.6154C379.705 93.4154 381.045 92.3754 382.765 91.4954C384.485 90.5754 386.285 90.1154 388.165 90.1154ZM387.265 116.815C389.825 116.815 391.925 115.855 393.565 113.935C395.205 112.015 396.025 109.615 396.025 106.735C396.025 103.855 395.205 101.475 393.565 99.5954C391.965 97.6754 389.865 96.7154 387.265 96.7154C384.665 96.7154 382.545 97.6754 380.905 99.5954C379.265 101.475 378.445 103.855 378.445 106.735C378.445 109.615 379.265 112.015 380.905 113.935C382.545 115.855 384.665 116.815 387.265 116.815ZM439.767 106.795C439.767 109.995 439.047 112.875 437.607 115.435C436.167 117.955 434.187 119.915 431.667 121.315C429.187 122.715 426.447 123.415 423.447 123.415C420.407 123.415 417.647 122.715 415.167 121.315C412.687 119.915 410.727 117.955 409.287 115.435C407.847 112.875 407.127 109.995 407.127 106.795C407.127 103.595 407.847 100.735 409.287 98.2154C410.727 95.6554 412.687 93.6754 415.167 92.2754C417.647 90.8354 420.407 90.1154 423.447 90.1154C426.447 90.1154 429.187 90.8354 431.667 92.2754C434.187 93.6754 436.167 95.6554 437.607 98.2154C439.047 100.735 439.767 103.595 439.767 106.795ZM432.567 106.795C432.567 104.835 432.147 103.095 431.307 101.575C430.507 100.015 429.407 98.8154 428.007 97.9754C426.647 97.1354 425.127 96.7154 423.447 96.7154C421.767 96.7154 420.227 97.1354 418.827 97.9754C417.467 98.8154 416.367 100.015 415.527 101.575C414.727 103.095 414.327 104.835 414.327 106.795C414.327 108.755 414.727 110.495 415.527 112.015C416.367 113.535 417.467 114.715 418.827 115.555C420.227 116.395 421.767 116.815 423.447 116.815C425.127 116.815 426.647 116.395 428.007 115.555C429.407 114.715 430.507 113.535 431.307 112.015C432.147 110.495 432.567 108.755 432.567 106.795ZM469.603 90.7154C470.643 90.7154 471.503 91.0754 472.183 91.7954C472.863 92.4754 473.203 93.3354 473.203 94.3754V109.615C473.203 113.935 472.003 117.315 469.603 119.755C467.243 122.195 463.863 123.415 459.463 123.415C455.063 123.415 451.683 122.195 449.323 119.755C446.963 117.315 445.783 113.935 445.783 109.615V94.3754C445.783 93.3354 446.123 92.4754 446.803 91.7954C447.483 91.0754 448.343 90.7154 449.383 90.7154C450.423 90.7154 451.283 91.0754 451.963 91.7954C452.643 92.4754 452.983 93.3354 452.983 94.3754V109.615C452.983 112.055 453.523 113.875 454.603 115.075C455.683 116.235 457.303 116.815 459.463 116.815C461.663 116.815 463.303 116.235 464.383 115.075C465.463 113.875 466.003 112.055 466.003 109.615V94.3754C466.003 93.3354 466.343 92.4754 467.023 91.7954C467.703 91.0754 468.563 90.7154 469.603 90.7154ZM498.158 90.1154C502.238 90.1154 505.058 91.3354 506.618 93.7754C508.178 96.1754 508.958 99.5154 508.958 103.795V119.155C508.958 120.195 508.618 121.075 507.938 121.795C507.258 122.475 506.398 122.815 505.358 122.815C504.318 122.815 503.458 122.475 502.778 121.795C502.098 121.075 501.758 120.195 501.758 119.155V103.795C501.758 101.595 501.298 99.8754 500.378 98.6354C499.458 97.3554 497.878 96.7154 495.638 96.7154C493.318 96.7154 491.498 97.3954 490.178 98.7554C488.858 100.075 488.198 101.755 488.198 103.795V119.155C488.198 120.195 487.858 121.075 487.178 121.795C486.498 122.475 485.638 122.815 484.598 122.815C483.558 122.815 482.698 122.475 482.018 121.795C481.338 121.075 480.998 120.195 480.998 119.155V94.3754C480.998 93.3354 481.338 92.4754 482.018 91.7954C482.698 91.0754 483.558 90.7154 484.598 90.7154C485.638 90.7154 486.498 91.0754 487.178 91.7954C487.858 92.4754 488.198 93.3354 488.198 94.3754V95.3954C489.278 93.9554 490.678 92.7154 492.398 91.6754C494.158 90.6354 496.078 90.1154 498.158 90.1154ZM542.72 78.4154C543.76 78.4154 544.62 78.7554 545.3 79.4354C545.98 80.1154 546.32 80.9954 546.32 82.0754V119.155C546.32 120.195 545.98 121.075 545.3 121.795C544.62 122.475 543.76 122.815 542.72 122.815C541.68 122.815 540.82 122.475 540.14 121.795C539.5 121.115 539.16 120.255 539.12 119.215C538.12 120.375 536.76 121.375 535.04 122.215C533.36 123.015 531.58 123.415 529.7 123.415C526.94 123.415 524.44 122.715 522.2 121.315C519.96 119.875 518.18 117.895 516.86 115.375C515.58 112.855 514.94 109.995 514.94 106.795C514.94 103.595 515.58 100.735 516.86 98.2154C518.14 95.6554 519.88 93.6754 522.08 92.2754C524.32 90.8354 526.78 90.1154 529.46 90.1154C531.38 90.1154 533.18 90.4754 534.86 91.1954C536.54 91.8754 537.96 92.7554 539.12 93.8354V82.0754C539.12 81.0354 539.46 80.1754 540.14 79.4954C540.82 78.7754 541.68 78.4154 542.72 78.4154ZM530.6 116.815C533.2 116.815 535.32 115.875 536.96 113.995C538.6 112.075 539.42 109.675 539.42 106.795C539.42 103.915 538.6 101.515 536.96 99.5954C535.32 97.6754 533.2 96.7154 530.6 96.7154C528.04 96.7154 525.94 97.6754 524.3 99.5954C522.66 101.515 521.84 103.915 521.84 106.795C521.84 109.675 522.64 112.075 524.24 113.995C525.88 115.875 528 116.815 530.6 116.815Z" fill="#F8F8F8"/>
</svg>
