<svg width="40" height="40" viewBox="0 0 40 40" fill="none" xmlns="http://www.w3.org/2000/svg">
<rect x="1" y="1" width="38" height="38" rx="19" fill="#F8F8F8" stroke="#424242" stroke-width="2"/>
<g clip-path="url(#clip0)">
<path d="M20 14.3333C21.838 14.3333 23.3333 15.8287 23.3333 17.6673C23.3333 19.5047 21.838 21.0007 20 21.0007C18.162 21.0007 16.6667 19.5047 16.6667 17.6673C16.6667 15.8287 18.162 14.3333 20 14.3333V14.3333ZM20 13C17.4227 13 15.3333 15.0893 15.3333 17.6673C15.3333 20.244 17.4227 22.334 20 22.334C22.5773 22.334 24.6667 20.244 24.6667 17.6673C24.6667 15.0893 22.5773 13 20 13V13ZM24.246 21.902C23.9147 22.234 23.5413 22.5227 23.1407 22.77C25.0553 24.0193 26.0593 26.1587 26.4553 27.6673H13.5307C13.912 26.1407 14.9027 23.9987 16.846 22.762C16.444 22.5127 16.0713 22.2213 15.7407 21.8873C12.902 23.9353 12 27.558 12 29H28C28 27.572 27.04 23.962 24.246 21.902Z" fill="#424242"/>
</g>
<g clip-path="url(#clip1)">
<path d="M29 13.8333C30.1487 13.8333 31.0833 14.7679 31.0833 15.9171C31.0833 17.0654 30.1487 18.0004 29 18.0004C27.8512 18.0004 26.9167 17.0654 26.9167 15.9171C26.9167 14.7679 27.8512 13.8333 29 13.8333V13.8333ZM29 13C27.3892 13 26.0833 14.3058 26.0833 15.9171C26.0833 17.5275 27.3892 18.8338 29 18.8338C30.6108 18.8338 31.9167 17.5275 31.9167 15.9171C31.9167 14.3058 30.6108 13 29 13V13ZM31.6537 18.5637C31.4467 18.7712 31.2133 18.9517 30.9629 19.1062C32.1596 19.8871 32.7871 21.2242 33.0346 22.1671H24.9567C25.195 21.2129 25.8142 19.8742 27.0287 19.1012C26.7775 18.9454 26.5446 18.7633 26.3379 18.5546C24.5638 19.8346 24 22.0987 24 23H34C34 22.1075 33.4 19.8512 31.6537 18.5637Z" fill="#424242" fill-opacity="0.8"/>
</g>
<g clip-path="url(#clip2)">
<path d="M11 13.8333C12.1487 13.8333 13.0833 14.7679 13.0833 15.9171C13.0833 17.0654 12.1487 18.0004 11 18.0004C9.85125 18.0004 8.91667 17.0654 8.91667 15.9171C8.91667 14.7679 9.85125 13.8333 11 13.8333V13.8333ZM11 13C9.38917 13 8.08333 14.3058 8.08333 15.9171C8.08333 17.5275 9.38917 18.8338 11 18.8338C12.6108 18.8338 13.9167 17.5275 13.9167 15.9171C13.9167 14.3058 12.6108 13 11 13V13ZM13.6537 18.5637C13.4467 18.7712 13.2133 18.9517 12.9629 19.1062C14.1596 19.8871 14.7871 21.2242 15.0346 22.1671H6.95667C7.195 21.2129 7.81417 19.8742 9.02875 19.1012C8.7775 18.9454 8.54458 18.7633 8.33792 18.5546C6.56375 19.8346 6 22.0987 6 23H16C16 22.1075 15.4 19.8512 13.6537 18.5637Z" fill="#424242" fill-opacity="0.8"/>
</g>
<defs>
<clipPath id="clip0">
<rect width="16" height="16" fill="white" transform="translate(12 13)"/>
</clipPath>
<clipPath id="clip1">
<rect width="10" height="10" fill="white" transform="translate(24 13)"/>
</clipPath>
<clipPath id="clip2">
<rect width="10" height="10" fill="white" transform="translate(6 13)"/>
</clipPath>
</defs>
</svg>
