<svg width="25" height="25" viewBox="0 0 25 25" fill="none" xmlns="http://www.w3.org/2000/svg">
<g clip-path="url(#clip0)">
<path d="M16.5723 12.6283L25.0004 17.9564V7.0752L16.5723 12.6283Z" fill="#2D2D2D"/>
<path d="M0 7.0752V17.9564L8.42813 12.6283L0 7.0752Z" fill="#2D2D2D"/>
<path d="M23.438 3.90625H1.56299C0.783301 3.90625 0.164551 4.4875 0.0473633 5.23594L12.5005 13.4406L24.9536 5.23594C24.8364 4.4875 24.2177 3.90625 23.438 3.90625Z" fill="#2D2D2D"/>
<path d="M15.1404 13.5721L12.9295 15.0284C12.7982 15.1143 12.6498 15.1565 12.4998 15.1565C12.3498 15.1565 12.2014 15.1143 12.0701 15.0284L9.85918 13.5706L0.0498047 19.7752C0.170117 20.5174 0.785742 21.094 1.5623 21.094H23.4373C24.2139 21.094 24.8295 20.5174 24.9498 19.7752L15.1404 13.5721Z" fill="#2D2D2D"/>
</g>
<defs>
<clipPath id="clip0">
<rect width="25" height="25" fill="white"/>
</clipPath>
</defs>
</svg>
