<svg width="49" height="65" viewBox="0 0 49 65" fill="none" xmlns="http://www.w3.org/2000/svg">
<path d="M40.2109 34.676C41.0059 35.4428 41.0288 36.7089 40.2619 37.504L28.8319 49.3542C28.4556 49.7444 27.937 49.9651 27.3948 49.9658L4.71577 49.9933C2.95015 49.9954 2.04809 47.8756 3.27383 46.6048L25.6478 23.4081C26.4146 22.6131 27.6808 22.5903 28.4758 23.3571L40.2109 34.676Z" fill="#2D2D2D"/>
<path d="M7.76077 29.3644C6.96738 28.5959 6.94722 27.3297 7.71573 26.5363L19.1709 14.7104C19.5481 14.321 20.0672 14.1014 20.6093 14.1019L43.2884 14.1226C45.054 14.1242 45.9515 16.2459 44.7231 17.5141L22.2998 40.6632C21.5313 41.4566 20.2652 41.4768 19.4718 40.7082L7.76077 29.3644Z" fill="#2D2D2D"/>
</svg>
