<svg width="25" height="25" viewBox="0 0 25 25" fill="none" xmlns="http://www.w3.org/2000/svg">
<path d="M12.4984 0.26001C5.59688 0.26001 0 5.87876 0 12.81C0 18.3538 3.58125 23.0569 8.55 24.7178C9.175 24.8335 9.40312 24.446 9.40312 24.1131C9.40312 23.8147 9.39219 23.0256 9.38594 21.9788C5.90938 22.7366 5.175 20.2959 5.175 20.2959C4.60781 18.8459 3.7875 18.46 3.7875 18.46C2.65156 17.6819 3.87187 17.6975 3.87187 17.6975C5.12656 17.7866 5.78594 18.9913 5.78594 18.9913C6.90156 20.9085 8.7125 20.3553 9.425 20.0334C9.5375 19.2225 9.86094 18.6694 10.2188 18.3553C7.44375 18.0381 4.525 16.9616 4.525 12.1538C4.525 10.7834 5.0125 9.66314 5.8125 8.78501C5.68281 8.46782 5.25469 7.19126 5.93438 5.4647C5.93438 5.4647 6.98438 5.1272 9.37187 6.75064C10.3688 6.47251 11.4375 6.33345 12.5016 6.32876C13.5625 6.33501 14.6328 6.47251 15.6312 6.7522C18.0172 5.12876 19.0656 5.46626 19.0656 5.46626C19.7469 7.19439 19.3187 8.46939 19.1906 8.78657C19.9922 9.6647 20.475 10.785 20.475 12.1553C20.475 16.9756 17.5531 18.0366 14.7687 18.3475C15.2172 18.735 15.6172 19.5006 15.6172 20.6709C15.6172 22.3491 15.6016 23.7022 15.6016 24.1131C15.6016 24.4491 15.8266 24.8397 16.4609 24.7163C21.4219 23.0538 25 18.3522 25 12.81C25 5.87876 19.4031 0.26001 12.4984 0.26001Z" fill="#2D2D2D"/>
</svg>
