<svg width="75" height="75" viewBox="0 0 75 75" fill="none" xmlns="http://www.w3.org/2000/svg">
<path d="M27.832 28.418C28.8028 28.418 29.5898 27.631 29.5898 26.6602C29.5898 25.6893 28.8028 24.9023 27.832 24.9023C26.8612 24.9023 26.0742 25.6893 26.0742 26.6602C26.0742 27.631 26.8612 28.418 27.832 28.418Z" fill="#826EFD"/>
<path d="M49.3757 37.3431C49.1009 37.0685 48.7284 36.9141 48.3398 36.9141H32.2265V33.9844H36.6211C37.4301 33.9844 38.0859 33.3284 38.0859 32.5195V20.8008C38.0859 19.9919 37.4301 19.3359 36.6211 19.3359H32.2265V14.9414C32.2265 14.1325 31.5707 13.4766 30.7617 13.4766H24.9023C24.0933 13.4766 23.4375 14.1325 23.4375 14.9414V19.3359H7.32418C6.93571 19.3359 6.56305 19.4903 6.28839 19.765L0.429016 25.6244C-0.143005 26.1964 -0.143005 27.1239 0.429016 27.6961L6.28839 33.5555C6.56305 33.83 6.93571 33.9844 7.32418 33.9844H23.4375V36.9141H19.0429C18.2339 36.9141 17.5781 37.57 17.5781 38.3789V50.0977C17.5781 50.9065 18.2339 51.5625 19.0429 51.5625H23.4375V72.0703H13.1836C12.3745 72.0703 11.7187 72.7263 11.7187 73.5352C11.7187 74.344 12.3745 75 13.1836 75H42.4804C43.2893 75 43.9453 74.344 43.9453 73.5352C43.9453 72.7263 43.2893 72.0703 42.4804 72.0703H32.2265V51.5625H48.3398C48.7283 51.5625 49.1008 51.4081 49.3756 51.1334L55.235 45.2741C55.807 44.7021 55.807 43.7745 55.235 43.2023L49.3757 37.3431ZM26.3672 16.4062H29.2968V19.3359H26.3672V16.4062ZM3.53639 26.6602L7.93092 22.2656H35.1562V31.0547H7.93092L3.53639 26.6602ZM26.3672 33.9844H29.2968V36.9141H26.3672V33.9844ZM29.2968 72.0703H26.3672V51.5625H29.2968V72.0703ZM47.7331 48.6328H20.5078V39.8438H47.7329L52.1275 44.2383L47.7331 48.6328Z" fill="#826EFD"/>
<path d="M27.832 45.9961C28.8028 45.9961 29.5898 45.2091 29.5898 44.2383C29.5898 43.2675 28.8028 42.4805 27.832 42.4805C26.8612 42.4805 26.0742 43.2675 26.0742 44.2383C26.0742 45.2091 26.8612 45.9961 27.832 45.9961Z" fill="#826EFD"/>
<path d="M57.4219 17.5781L60.3516 24.9023L64.7461 10.2539L50.0977 14.6484L57.4219 17.5781Z" fill="#826EFD"/>
<path d="M58.8867 0C50.0019 0 42.7734 7.22842 42.7734 16.1133V32.2266C42.7734 32.7759 43.0809 33.2792 43.5696 33.5298C43.7804 33.6379 44.0098 33.6914 44.2381 33.6914C44.5393 33.6914 44.8389 33.5987 45.0926 33.4165L50.2468 29.7161C52.8265 31.362 55.7917 32.2266 58.8867 32.2266C67.7716 32.2266 75 24.9981 75 16.1133C75 7.22842 67.7717 0 58.8867 0ZM58.8867 29.2969C56.0587 29.2969 53.3641 28.415 51.094 26.7469C50.5827 26.3711 49.8876 26.3673 49.3723 26.7375L45.7031 29.3716V16.1133C45.7031 8.84385 51.6173 2.92969 58.8867 2.92969C66.1562 2.92969 72.0703 8.84385 72.0703 16.1133C72.0703 23.3827 66.1562 29.2969 58.8867 29.2969Z" fill="#826EFD"/>
</svg>
