<svg width="100" height="100" viewBox="0 0 100 100" fill="none" xmlns="http://www.w3.org/2000/svg">
<rect width="100" height="100" rx="20" fill="#CDC5FE" fill-opacity="0.27"/>
<path d="M43.832 43.418C44.8028 43.418 45.5898 42.631 45.5898 41.6602C45.5898 40.6893 44.8028 39.9023 43.832 39.9023C42.8612 39.9023 42.0742 40.6893 42.0742 41.6602C42.0742 42.631 42.8612 43.418 43.832 43.418Z" fill="#5241BF"/>
<path d="M65.3757 52.3431C65.1009 52.0685 64.7284 51.9141 64.3398 51.9141H48.2265V48.9844H52.6211C53.4301 48.9844 54.0859 48.3284 54.0859 47.5195V35.8008C54.0859 34.9919 53.4301 34.3359 52.6211 34.3359H48.2265V29.9414C48.2265 29.1325 47.5707 28.4766 46.7617 28.4766H40.9023C40.0933 28.4766 39.4375 29.1325 39.4375 29.9414V34.3359H23.3242C22.9357 34.3359 22.563 34.4903 22.2884 34.765L16.429 40.6244C15.857 41.1964 15.857 42.1239 16.429 42.6961L22.2884 48.5555C22.563 48.83 22.9357 48.9844 23.3242 48.9844H39.4375V51.9141H35.0429C34.2339 51.9141 33.5781 52.57 33.5781 53.3789V65.0977C33.5781 65.9065 34.2339 66.5625 35.0429 66.5625H39.4375V87.0703H29.1836C28.3745 87.0703 27.7187 87.7263 27.7187 88.5352C27.7187 89.344 28.3745 90 29.1836 90H58.4804C59.2893 90 59.9453 89.344 59.9453 88.5352C59.9453 87.7263 59.2893 87.0703 58.4804 87.0703H48.2265V66.5625H64.3398C64.7283 66.5625 65.1008 66.4081 65.3756 66.1334L71.235 60.2741C71.807 59.7021 71.807 58.7745 71.235 58.2023L65.3757 52.3431ZM42.3672 31.4062H45.2968V34.3359H42.3672V31.4062ZM19.5364 41.6602L23.9309 37.2656H51.1562V46.0547H23.9309L19.5364 41.6602ZM42.3672 48.9844H45.2968V51.9141H42.3672V48.9844ZM45.2968 87.0703H42.3672V66.5625H45.2968V87.0703ZM63.7331 63.6328H36.5078V54.8438H63.7329L68.1275 59.2383L63.7331 63.6328Z" fill="#5241BF"/>
<path d="M43.832 60.9961C44.8028 60.9961 45.5898 60.2091 45.5898 59.2383C45.5898 58.2675 44.8028 57.4805 43.832 57.4805C42.8612 57.4805 42.0742 58.2675 42.0742 59.2383C42.0742 60.2091 42.8612 60.9961 43.832 60.9961Z" fill="#5241BF"/>
<path d="M73.4219 32.5781L76.3516 39.9023L80.7461 25.2539L66.0977 29.6484L73.4219 32.5781Z" fill="#5241BF"/>
<path d="M74.8867 15C66.0019 15 58.7734 22.2284 58.7734 31.1133V47.2266C58.7734 47.7759 59.0809 48.2792 59.5696 48.5298C59.7804 48.6379 60.0098 48.6914 60.2381 48.6914C60.5393 48.6914 60.8389 48.5987 61.0926 48.4165L66.2468 44.7161C68.8265 46.362 71.7917 47.2266 74.8867 47.2266C83.7716 47.2266 91 39.9981 91 31.1133C91 22.2284 83.7717 15 74.8867 15ZM74.8867 44.2969C72.0587 44.2969 69.3641 43.415 67.094 41.7469C66.5827 41.3711 65.8876 41.3673 65.3723 41.7375L61.7031 44.3716V31.1133C61.7031 23.8438 67.6173 17.9297 74.8867 17.9297C82.1562 17.9297 88.0703 23.8438 88.0703 31.1133C88.0703 38.3827 82.1562 44.2969 74.8867 44.2969Z" fill="#5241BF"/>
</svg>
