<svg width="633" height="814" viewBox="0 0 633 814" fill="none" xmlns="http://www.w3.org/2000/svg">
<path d="M771.5 0L727.958 772.47C727.958 772.47 613.981 826.973 521 810.77C428.019 794.566 447.536 753.264 386 733.5C324.464 713.736 238.88 800.806 151 701.764C63.1202 602.722 186.588 547.724 160.5 480C134.412 412.276 -46.5001 129.278 263.458 129.278C573.415 129.278 771.5 0 771.5 0Z" fill="url(#paint0_linear)"/>
<rect x="13.002" y="94.0031" width="249" height="243" rx="121.5" fill="url(#paint1_linear)"/>
<rect width="83.554" height="88.7042" rx="41.777" transform="matrix(-0.245162 -0.969482 0.976398 -0.215979 297.438 328.546)" fill="url(#paint2_linear)"/>
<rect width="123.434" height="128.245" rx="61.7172" transform="matrix(0.487268 -0.873253 0.898668 0.43863 385.302 180.311)" fill="url(#paint3_linear)"/>
<rect width="166.405" height="156.823" rx="78.4116" transform="matrix(-0.974678 0.223612 -0.253698 -0.967284 432.978 465.23)" fill="url(#paint4_linear)"/>
<rect width="122.169" height="122.807" rx="61.0843" transform="matrix(0.275861 0.961197 -0.969904 0.243488 547.11 478.828)" fill="url(#paint5_linear)"/>
<path d="M124.134 555.181H211.183C214.334 555.181 216.889 552.629 216.889 549.48C216.889 546.332 214.334 543.78 211.183 543.78H124.134C120.982 543.78 118.427 546.332 118.427 549.48C118.427 552.629 120.982 555.181 124.134 555.181Z" fill="#DED4F3"/>
<path d="M139.671 611.679H226.72C229.871 611.679 232.426 609.127 232.426 605.978C232.426 602.83 229.871 600.278 226.72 600.278H139.671C136.519 600.278 133.965 602.83 133.965 605.978C133.965 609.127 136.519 611.679 139.671 611.679Z" fill="#DED4F3"/>
<path d="M155.221 668.177H242.27C245.422 668.177 247.977 665.625 247.977 662.476C247.977 659.328 245.422 656.776 242.27 656.776H155.221C152.07 656.776 149.515 659.328 149.515 662.476C149.515 665.625 152.07 668.177 155.221 668.177Z" fill="#DED4F3"/>
<path d="M237.527 703H251.524L213.424 548.277H199.44L237.527 703Z" fill="#DED4F3"/>
<path d="M159.8 703H173.784L135.697 548.277H121.714L159.8 703Z" fill="#DED4F3"/>
<path d="M124.134 555.181H211.183C214.334 555.181 216.889 552.629 216.889 549.48C216.889 546.332 214.334 543.78 211.183 543.78H124.134C120.982 543.78 118.427 546.332 118.427 549.48C118.427 552.629 120.982 555.181 124.134 555.181Z" fill="url(#paint6_linear)"/>
<path opacity="0.5" d="M139.671 611.679H226.72C229.871 611.679 232.426 609.127 232.426 605.978C232.426 602.83 229.871 600.278 226.72 600.278H139.671C136.519 600.278 133.965 602.83 133.965 605.978C133.965 609.127 136.519 611.679 139.671 611.679Z" fill="url(#paint7_linear)"/>
<path opacity="0.5" d="M155.221 668.177H242.27C245.422 668.177 247.977 665.625 247.977 662.476C247.977 659.328 245.422 656.776 242.27 656.776H155.221C152.07 656.776 149.515 659.328 149.515 662.476C149.515 665.625 152.07 668.177 155.221 668.177Z" fill="url(#paint8_linear)"/>
<path opacity="0.5" d="M237.527 703H251.524L213.424 548.277H199.44L237.527 703Z" fill="url(#paint9_linear)"/>
<path opacity="0.5" d="M159.8 703H173.784L135.697 548.277H121.714L159.8 703Z" fill="url(#paint10_linear)"/>
<path d="M236.674 299.813C237.495 298.945 238.485 298.254 239.581 297.781C240.678 297.308 241.86 297.063 243.054 297.062C242.916 299.365 242.171 301.59 240.895 303.512C240.378 304.267 239.97 305.091 239.685 305.96C239.547 306.396 239.525 306.859 239.621 307.306C239.718 307.752 239.929 308.166 240.235 308.505C240.689 308.945 241.349 309.151 241.61 309.687C241.76 310.019 241.796 310.39 241.711 310.744C241.627 311.098 241.427 311.413 241.143 311.64C240.565 312.089 239.893 312.4 239.177 312.548L235.602 313.552C234.727 313.905 233.76 313.959 232.852 313.703C227.421 311.393 234.681 301.889 236.674 299.813Z" fill="#F3BD8F"/>
<path d="M215.637 316.55C217.756 316.186 219.762 315.334 221.495 314.061C224.332 312.175 226.883 309.892 229.071 307.281C232.37 309.882 235.012 313.222 236.784 317.032C237.082 317.448 237.215 317.96 237.156 318.468C237.098 318.976 236.852 319.445 236.468 319.782C231.312 325.737 224.588 331.211 216.71 331.5C212.442 331.648 208.269 330.213 204.995 327.47C201.75 324.72 195.893 315.299 200.513 311.462C202.96 309.426 204.94 312.012 206.769 313.456C207.97 314.532 209.372 315.359 210.894 315.89C212.416 316.421 214.028 316.646 215.637 316.55Z" fill="#D6D3E9"/>
<path d="M265.012 248.926H310.29C313.396 248.926 315.914 246.408 315.914 243.301V227.567C315.914 224.461 313.396 221.942 310.29 221.942H265.012C261.907 221.942 259.389 224.461 259.389 227.567V243.301C259.389 246.408 261.907 248.926 265.012 248.926Z" fill="#DED4F3"/>
<path d="M260.448 239.973H314.195C316.807 239.973 318.925 237.855 318.925 235.242V234.898C318.925 232.285 316.807 230.167 314.195 230.167H260.448C257.835 230.167 255.718 232.285 255.718 234.898V235.242C255.718 237.855 257.835 239.973 260.448 239.973Z" fill="#DED4F3"/>
<path d="M235.739 322.739C235.724 314.698 237.663 306.773 241.39 299.648L261.946 248.348H312.229L331.341 302.467C334.362 309.268 335.826 316.659 335.626 324.098C335.426 331.538 333.567 338.839 330.185 345.468C326.803 352.097 321.983 357.887 316.078 362.414C310.172 366.941 303.33 370.091 296.051 371.635C288.773 373.178 281.241 373.076 274.007 371.335C266.773 369.594 260.019 366.259 254.239 361.573C248.458 356.886 243.798 350.968 240.597 344.249C237.397 337.531 235.737 330.182 235.739 322.739Z" fill="#DED4F3"/>
<g opacity="0.69" filter="url(#filter0_d)">
<path d="M235.739 322.739C235.724 314.698 237.663 306.773 241.39 299.648L261.946 248.348H312.229L331.341 302.467C334.362 309.268 335.826 316.659 335.626 324.098C335.426 331.538 333.567 338.839 330.185 345.468C326.803 352.097 321.983 357.887 316.078 362.414C310.172 366.941 303.33 370.091 296.051 371.635C288.773 373.178 281.241 373.076 274.007 371.335C266.773 369.594 260.019 366.259 254.239 361.573C248.458 356.886 243.798 350.968 240.597 344.249C237.397 337.531 235.737 330.182 235.739 322.739Z" fill="url(#paint11_radial)"/>
</g>
<path d="M293.804 247.523C301.161 262.85 305.021 279.62 305.106 296.622C305.106 300.432 304.556 304.874 301.229 306.772C297.104 309.041 292.099 305.493 289.872 301.394C288.43 298.707 287.577 295.744 287.368 292.702C287.16 289.66 287.601 286.608 288.662 283.749C291.412 287.146 292.141 291.616 292.594 295.907C293.126 299.063 292.934 302.298 292.031 305.369C290.944 308.367 288.263 311.008 285.073 311.118C280.178 311.283 277.002 305.795 276.452 300.913C275.838 295.355 277.107 289.752 280.055 285.001C281.09 288.133 281.279 291.483 280.603 294.713C279.927 297.942 278.41 300.935 276.205 303.388C274.752 305.102 272.8 306.319 270.622 306.868C269.532 307.12 268.392 307.058 267.336 306.688C266.279 306.318 265.35 305.655 264.655 304.778C263.983 303.691 263.578 302.461 263.473 301.188C262.098 291.987 265.37 282.731 269.357 274.328C273.345 265.925 278.185 257.824 280.536 248.816" stroke="white" stroke-width="1.39" stroke-miterlimit="10"/>
<path opacity="0.2" d="M265.012 248.926H310.29C313.396 248.926 315.914 246.408 315.914 243.301V227.567C315.914 224.461 313.396 221.942 310.29 221.942H265.012C261.907 221.942 259.389 224.461 259.389 227.567V243.301C259.389 246.408 261.907 248.926 265.012 248.926Z" fill="url(#paint12_linear)"/>
<path opacity="0.2" d="M260.448 239.973H314.195C316.807 239.973 318.925 237.855 318.925 235.242V234.898C318.925 232.285 316.807 230.167 314.195 230.167H260.448C257.835 230.167 255.718 232.285 255.718 234.898V235.242C255.718 237.855 257.835 239.973 260.448 239.973Z" fill="url(#paint13_linear)"/>
<path d="M193.13 441.264C193.114 443.41 192.939 445.552 192.607 447.673C191.778 451.129 190.674 454.514 189.307 457.795C187.56 463.089 186.182 468.498 185.182 473.983L177.166 513.413C177.008 513.966 177.008 514.552 177.166 515.104C177.38 515.556 177.713 515.942 178.129 516.218C179.425 517.253 180.878 518.075 182.432 518.653C182.917 518.881 183.463 518.944 183.986 518.832C184.619 518.526 185.111 517.99 185.361 517.333C188.412 511.962 190.786 506.233 192.428 500.279C200.678 471.603 209.519 454.288 211.155 440.136C211.43 437.839 213.905 435.763 212.695 433.796C211.962 432.524 210.928 431.452 209.684 430.674C206.563 428.583 199.482 422.422 195.329 424.87C191.658 426.892 193.253 437.578 193.13 441.264Z" fill="#F3BD8F"/>
<path d="M175.227 440.562C175.128 441.418 174.711 442.205 174.059 442.768C173.407 443.331 172.568 443.628 171.707 443.602C152.678 446.49 132.782 446.916 115.416 455.196C114.274 455.623 113.273 456.361 112.529 457.328C110.92 459.831 113.01 463.255 112.089 466.075C122.827 466.405 133.525 464.699 144.125 462.966L183.504 456.585C186.007 456.172 188.688 455.677 190.462 453.834C191.767 452.247 192.648 450.354 193.019 448.333L196.099 436.753C196.718 434.47 197.295 431.967 196.278 429.876C194.903 426.919 191.081 426.122 187.822 425.943C178.142 425.406 177.523 432.998 175.227 440.562Z" fill="#F3BD8F"/>
<path opacity="0.1" d="M175.227 440.562C175.128 441.418 174.711 442.205 174.059 442.768C173.407 443.331 172.568 443.628 171.707 443.602C152.678 446.49 132.782 446.916 115.416 455.196C114.274 455.623 113.273 456.361 112.529 457.328C110.92 459.831 113.01 463.255 112.089 466.075C122.827 466.405 133.525 464.699 144.125 462.966L183.504 456.585C186.007 456.172 188.688 455.677 190.462 453.834C191.767 452.247 192.648 450.354 193.019 448.333L196.099 436.753C196.718 434.47 197.295 431.967 196.278 429.876C194.903 426.919 191.081 426.122 187.822 425.943C178.142 425.406 177.523 432.998 175.227 440.562Z" fill="url(#paint14_linear)"/>
<path d="M254.205 328.928C254.494 328.337 255.154 327.663 255.649 328.062C255.843 328.261 255.956 328.526 255.965 328.804L256.405 331.775C256.414 331.971 256.476 332.161 256.584 332.325C256.928 332.724 257.574 332.463 257.959 332.16C260.433 330.455 262.686 328.45 264.669 326.191C265.054 325.751 265.604 325.256 266.154 325.49C266.43 325.646 266.636 325.902 266.731 326.205C267.347 327.9 267.494 329.729 267.157 331.5C266.922 333.693 266.203 335.807 265.054 337.689C263.892 339.581 262.061 340.965 259.925 341.567C258.234 341.994 256.378 341.815 254.824 342.612C253.889 343.094 253.023 343.919 251.978 343.809C250.685 343.671 250.012 342.186 249.888 340.893C249.53 336.63 252.404 332.586 254.205 328.928Z" fill="#F3BD8F"/>
<path d="M202.053 282.553C202.451 286.458 202.878 290.626 205.38 293.651C206.411 294.903 207.745 295.893 208.666 297.227C209.526 298.477 209.982 299.96 209.973 301.477C203.304 301.174 196.773 304.227 190.118 303.622C189.626 299.932 189.789 296.184 190.599 292.551C191.741 287.476 194.174 282.58 193.94 277.423C193.872 275.717 193.459 273.613 194.532 272.1C195.425 270.849 197.502 270.188 198.657 271.426C199.665 272.85 200.41 274.443 200.857 276.13C201.491 278.22 201.893 280.374 202.053 282.553Z" fill="#3E3E54"/>
<path d="M197.557 304.31C209.326 311.187 214.056 336.506 215.94 342.736C218.641 352.185 219.806 362.006 219.391 371.824C219.295 376.143 218.978 380.612 217.081 384.491C214.469 389.827 209.134 393.444 203.455 395.15C197.777 396.855 191.727 396.869 185.814 396.525C181.992 396.319 177.895 395.878 174.993 393.389C171.033 389.992 170.635 384.119 170.58 378.893C170.332 358.227 170.539 337.547 171.198 316.853C171.152 313.737 171.569 310.631 172.436 307.638C172.876 306.142 173.637 304.759 174.665 303.586C175.693 302.412 176.964 301.477 178.39 300.844C183.642 298.891 192.662 301.422 197.557 304.31Z" fill="#DED4F3"/>
<path d="M197.557 304.31C209.326 311.187 214.056 336.506 215.94 342.736C218.641 352.185 219.806 362.006 219.391 371.824C219.295 376.143 218.978 380.612 217.081 384.491C214.469 389.827 209.134 393.444 203.455 395.15C197.777 396.855 191.727 396.869 185.814 396.525C181.992 396.319 177.895 395.878 174.993 393.389C171.033 389.992 170.635 384.119 170.58 378.893C170.332 358.227 170.539 337.547 171.198 316.853C171.152 313.737 171.569 310.631 172.436 307.638C172.876 306.142 173.637 304.759 174.665 303.586C175.693 302.412 176.964 301.477 178.39 300.844C183.642 298.891 192.662 301.422 197.557 304.31Z" fill="url(#paint15_linear)"/>
<path d="M202.039 290.488C202.123 291.907 201.671 293.305 200.774 294.408C200.234 294.844 199.609 295.162 198.939 295.342C198.269 295.522 197.569 295.56 196.883 295.453C195.519 295.227 194.14 295.103 192.758 295.082C192.423 295.039 192.082 295.072 191.762 295.179C191.441 295.286 191.148 295.463 190.905 295.698C190.663 295.933 190.476 296.22 190.358 296.537C190.241 296.854 190.197 297.193 190.228 297.53C190.228 299.441 191.039 301.271 191.026 303.182C191.012 305.094 189.554 307.308 187.684 306.896C186.783 306.618 186.021 306.009 185.553 305.19C182.9 301.326 182.735 296.264 180.713 292.015C179.531 289.525 177.716 287.339 176.85 284.712C176.203 282.503 176.203 280.154 176.851 277.945C177.5 275.736 178.769 273.76 180.507 272.251C183.986 269.239 192.016 266.984 195.769 270.752C200.485 275.497 202.287 284.065 202.039 290.488Z" fill="#F3BD8F"/>
<path d="M194.422 263.642C195.341 263.974 196.207 264.437 196.993 265.017C198.86 266.729 200.18 268.953 200.788 271.412L190.998 276.652C190.706 276.847 190.359 276.943 190.008 276.927C189.307 276.804 188.977 275.827 188.276 275.786C188.612 276.356 188.875 276.966 189.059 277.601L185.237 280.352C184.809 280.612 184.431 280.947 184.123 281.342C183.703 282.11 183.53 282.989 183.628 283.859C184.033 291.194 185.152 298.472 186.969 305.589C185.513 306.401 183.891 306.871 182.226 306.964C175.933 307.929 169.808 309.781 164.035 312.466C163.992 310.491 163.692 308.531 163.141 306.634C162.548 305.115 162.187 303.516 162.069 301.889C162.263 300.044 162.829 298.257 163.733 296.636C164.805 294.27 165.713 291.836 166.62 289.402C167.293 287.776 167.755 286.07 167.995 284.327C168.028 282.076 167.835 279.827 167.417 277.615C167.012 275.377 167.453 273.068 168.655 271.137C170.621 268.497 174.375 267.768 177.056 266.076C180.253 263.844 184.034 262.596 187.932 262.487C190.149 262.455 192.352 262.848 194.422 263.642Z" fill="#3E3E54"/>
<path d="M201.558 358.539C204.308 361.289 216.834 364.122 221.289 364.04C232.811 364.04 256.818 349.764 256.405 348.733L249.352 331.417C243.398 335.323 237.17 339.092 230.199 340.508C223.228 341.925 215.322 340.591 210.385 335.475C206.866 331.816 205.257 326.755 202.411 322.56C199.564 318.366 194.298 314.831 189.61 316.757C183.436 319.287 182.02 329.451 184.234 334.856C187.781 343.616 195.013 351.951 201.558 358.539Z" fill="#D6D3E9"/>
<path d="M163.719 428.061C163.265 429.436 162.756 430.811 162.234 432.187C160.749 435.941 159.291 440.961 162.495 443.423C163.622 444.182 164.934 444.619 166.29 444.688C170.8 445.197 175.365 444.331 179.902 444.427C189.816 444.62 199.042 449.309 207.621 454.274C209.428 455.461 211.423 456.336 213.52 456.86C214.572 457.107 215.671 457.073 216.706 456.761C217.741 456.45 218.677 455.872 219.419 455.086C220.793 453.367 220.793 450.96 220.656 448.704L218.525 407.445C218.264 402.397 219.9 386.678 213.891 385.261C210.069 384.353 204.156 386.224 200.142 386.485C195.315 386.815 190.517 386.953 185.622 386.939C183.212 387.007 180.805 386.734 178.472 386.127C177.097 385.687 172.587 383.198 171.061 383.542C166.4 384.642 168.394 399.963 168.242 403.566C167.903 411.904 166.38 420.152 163.719 428.061Z" fill="#3E3E54"/>
<path d="M163.719 428.061C163.265 429.436 162.756 430.811 162.234 432.187C160.749 435.941 159.291 440.961 162.495 443.423C163.622 444.182 164.934 444.619 166.29 444.688C170.8 445.197 175.365 444.331 179.902 444.427C189.816 444.62 199.042 449.309 207.621 454.274C209.428 455.461 211.423 456.336 213.52 456.86C214.572 457.107 215.671 457.073 216.706 456.761C217.741 456.45 218.677 455.872 219.419 455.086C220.793 453.367 220.793 450.96 220.656 448.704L218.525 407.445C218.264 402.397 219.9 386.678 213.891 385.261C210.069 384.353 204.156 386.224 200.142 386.485C195.315 386.815 190.517 386.953 185.622 386.939C183.212 387.007 180.805 386.734 178.472 386.127C177.097 385.687 172.587 383.198 171.061 383.542C166.4 384.642 168.394 399.963 168.242 403.566C167.903 411.904 166.38 420.152 163.719 428.061Z" fill="url(#paint16_linear)"/>
<path d="M105.792 455.732C104.68 455.776 103.619 456.209 102.794 456.956C102.075 458.025 101.785 459.327 101.983 460.601C102.383 470.75 103.481 480.859 105.269 490.858C105.489 492.095 105.902 493.608 107.098 493.938C108.844 494.516 110.178 492.371 110.783 490.638L118.538 468.179C118.853 467.471 118.962 466.69 118.854 465.923C118.552 464.672 117.177 464.025 116.352 463.021C114.77 461.055 115.829 457.685 113.849 456.076C112.089 454.646 107.799 455.471 105.792 455.732Z" fill="#DED4F3"/>
<path d="M169.961 518.213C169.248 519.07 168.859 520.151 168.861 521.266C169.172 522.515 169.943 523.601 171.02 524.305C178.814 530.829 187.051 536.803 195.673 542.184C196.746 542.845 198.093 543.56 199.179 542.9C200.788 541.978 200.087 539.558 199.179 537.948L187.698 517.14C187.413 516.44 186.937 515.835 186.323 515.393C185.182 514.774 183.78 515.393 182.487 515.297C179.957 515.16 178.17 512.12 175.612 512.546C173.371 512.808 171.116 516.549 169.961 518.213Z" fill="#DED4F3"/>
<path opacity="0.2" d="M105.792 455.732C104.68 455.776 103.619 456.209 102.794 456.956C102.075 458.025 101.785 459.327 101.983 460.601C102.383 470.75 103.481 480.859 105.269 490.858C105.489 492.095 105.902 493.608 107.098 493.938C108.844 494.516 110.178 492.371 110.783 490.638L118.538 468.179C118.853 467.471 118.962 466.69 118.854 465.923C118.552 464.672 117.177 464.025 116.352 463.021C114.77 461.055 115.829 457.685 113.849 456.076C112.089 454.646 107.799 455.471 105.792 455.732Z" fill="black"/>
<path d="M169.961 518.213C169.248 519.07 168.859 520.151 168.861 521.266C169.172 522.515 169.943 523.601 171.02 524.305C178.814 530.829 187.051 536.803 195.673 542.184C196.746 542.845 198.093 543.56 199.179 542.9C200.788 541.978 200.087 539.558 199.179 537.948L187.698 517.14C187.413 516.44 186.937 515.835 186.323 515.393C185.182 514.774 183.78 515.393 182.487 515.297C179.957 515.16 178.17 512.12 175.612 512.546C173.371 512.808 171.116 516.549 169.961 518.213Z" fill="url(#paint17_linear)"/>
<path d="M207.292 543.092H120.243C117.091 543.092 114.537 545.644 114.537 548.793C114.537 551.941 117.091 554.494 120.243 554.494H207.292C210.443 554.494 212.998 551.941 212.998 548.793C212.998 545.644 210.443 543.092 207.292 543.092Z" fill="#DED4F3"/>
<path d="M191.741 599.59H104.692C101.541 599.59 98.9858 602.142 98.9858 605.291C98.9858 608.439 101.541 610.991 104.692 610.991H191.741C194.892 610.991 197.447 608.439 197.447 605.291C197.447 602.142 194.892 599.59 191.741 599.59Z" fill="#DED4F3"/>
<path d="M176.204 656.088H89.1548C86.0034 656.088 83.4487 658.64 83.4487 661.789C83.4487 664.937 86.0034 667.489 89.1548 667.489H176.204C179.355 667.489 181.91 664.937 181.91 661.789C181.91 658.64 179.355 656.088 176.204 656.088Z" fill="#DED4F3"/>
<path d="M93.8985 702.312H79.9014L117.988 547.589H131.985L93.8985 702.312Z" fill="#DED4F3"/>
<path d="M93.8985 702.312H79.9014L117.988 547.589H131.985L93.8985 702.312Z" fill="#DED4F3"/>
<path d="M171.625 702.312H157.642L195.728 547.589H209.712L171.625 702.312Z" fill="#DED4F3"/>
<path d="M286.929 159.393V222.066H283.822V158.87L286.929 159.393Z" fill="url(#paint18_linear)"/>
<defs>
<filter id="filter0_d" x="185.739" y="198.348" width="199.905" height="224.373" filterUnits="userSpaceOnUse" color-interpolation-filters="sRGB">
<feFlood flood-opacity="0" result="BackgroundImageFix"/>
<feColorMatrix in="SourceAlpha" type="matrix" values="0 0 0 0 0 0 0 0 0 0 0 0 0 0 0 0 0 0 127 0"/>
<feOffset/>
<feGaussianBlur stdDeviation="25"/>
<feColorMatrix type="matrix" values="0 0 0 0 1 0 0 0 0 1 0 0 0 0 1 0 0 0 1 0"/>
<feBlend mode="normal" in2="BackgroundImageFix" result="effect1_dropShadow"/>
<feBlend mode="normal" in="SourceGraphic" in2="effect1_dropShadow" result="shape"/>
</filter>
<linearGradient id="paint0_linear" x1="108.002" y1="490.503" x2="884.751" y2="-276.424" gradientUnits="userSpaceOnUse">
<stop stop-color="#826EFD"/>
<stop offset="1" stop-color="#0094FF"/>
</linearGradient>
<linearGradient id="paint1_linear" x1="229.44" y1="131.855" x2="105.733" y2="243.732" gradientUnits="userSpaceOnUse">
<stop stop-color="white" stop-opacity="0.1"/>
<stop offset="1" stop-color="white" stop-opacity="0"/>
</linearGradient>
<linearGradient id="paint2_linear" x1="72.6277" y1="13.8174" x2="28.005" y2="50.9137" gradientUnits="userSpaceOnUse">
<stop stop-color="white" stop-opacity="0.1"/>
<stop offset="1" stop-color="white" stop-opacity="0"/>
</linearGradient>
<linearGradient id="paint3_linear" x1="107.293" y1="19.9766" x2="42.5389" y2="74.9831" gradientUnits="userSpaceOnUse">
<stop stop-color="white" stop-opacity="0.1"/>
<stop offset="1" stop-color="white" stop-opacity="0"/>
</linearGradient>
<linearGradient id="paint4_linear" x1="144.645" y1="24.4282" x2="64.5771" y2="99.4116" gradientUnits="userSpaceOnUse">
<stop stop-color="white" stop-opacity="0.1"/>
<stop offset="1" stop-color="white" stop-opacity="0"/>
</linearGradient>
<linearGradient id="paint5_linear" x1="106.193" y1="19.1295" x2="43.8858" y2="73.8342" gradientUnits="userSpaceOnUse">
<stop stop-color="white" stop-opacity="0.1"/>
<stop offset="1" stop-color="white" stop-opacity="0"/>
</linearGradient>
<linearGradient id="paint6_linear" x1="140.564" y1="501.956" x2="322.006" y2="820.178" gradientUnits="userSpaceOnUse">
<stop offset="0.01"/>
<stop offset="0.13" stop-opacity="0.69"/>
<stop offset="1" stop-opacity="0"/>
</linearGradient>
<linearGradient id="paint7_linear" x1="15829.7" y1="3588.25" x2="16059.4" y2="7068.77" gradientUnits="userSpaceOnUse">
<stop offset="0.01"/>
<stop offset="0.13" stop-opacity="0.69"/>
<stop offset="1" stop-opacity="0"/>
</linearGradient>
<linearGradient id="paint8_linear" x1="14945.3" y1="3704.15" x2="15175" y2="7184.67" gradientUnits="userSpaceOnUse">
<stop offset="0.01"/>
<stop offset="0.13" stop-opacity="0.69"/>
<stop offset="1" stop-opacity="0"/>
</linearGradient>
<linearGradient id="paint9_linear" x1="5936.45" y1="38658.1" x2="26706.3" y2="50923" gradientUnits="userSpaceOnUse">
<stop offset="0.01"/>
<stop offset="0.13" stop-opacity="0.69"/>
<stop offset="1" stop-opacity="0"/>
</linearGradient>
<linearGradient id="paint10_linear" x1="3635.39" y1="42420.9" x2="24403.5" y2="54682.2" gradientUnits="userSpaceOnUse">
<stop offset="0.01"/>
<stop offset="0.13" stop-opacity="0.69"/>
<stop offset="1" stop-opacity="0"/>
</linearGradient>
<radialGradient id="paint11_radial" cx="0" cy="0" r="1" gradientUnits="userSpaceOnUse" gradientTransform="translate(285.678 310.513) scale(56.3873 56.4017)">
<stop offset="0.34" stop-color="white"/>
<stop offset="1" stop-color="white" stop-opacity="0.39"/>
</radialGradient>
<linearGradient id="paint12_linear" x1="-321286" y1="-39187.9" x2="-323610" y2="-39187.9" gradientUnits="userSpaceOnUse">
<stop offset="0.01"/>
<stop offset="0.13" stop-opacity="0.69"/>
<stop offset="1" stop-opacity="0"/>
</linearGradient>
<linearGradient id="paint13_linear" x1="-360069" y1="-12803.3" x2="-362975" y2="-12803.3" gradientUnits="userSpaceOnUse">
<stop offset="0.01"/>
<stop offset="0.13" stop-opacity="0.69"/>
<stop offset="1" stop-opacity="0"/>
</linearGradient>
<linearGradient id="paint14_linear" x1="16044.7" y1="8138.66" x2="15743.6" y2="9973.1" gradientUnits="userSpaceOnUse">
<stop offset="0.01"/>
<stop offset="0.13" stop-opacity="0.69"/>
<stop offset="1" stop-opacity="0"/>
</linearGradient>
<linearGradient id="paint15_linear" x1="11398.5" y1="13953.7" x2="9878.5" y2="14067.9" gradientUnits="userSpaceOnUse">
<stop offset="0.01"/>
<stop offset="0.13" stop-opacity="0.69"/>
<stop offset="1" stop-opacity="0"/>
</linearGradient>
<linearGradient id="paint16_linear" x1="13941.8" y1="14876.7" x2="10292.6" y2="14913.6" gradientUnits="userSpaceOnUse">
<stop offset="0.01"/>
<stop offset="0.13" stop-opacity="0.69"/>
<stop offset="1" stop-opacity="0"/>
</linearGradient>
<linearGradient id="paint17_linear" x1="6258.3" y1="9199.05" x2="6956.78" y2="8468.56" gradientUnits="userSpaceOnUse">
<stop offset="0.01"/>
<stop offset="0.13" stop-opacity="0.69"/>
<stop offset="1" stop-opacity="0"/>
</linearGradient>
<linearGradient id="paint18_linear" x1="285.376" y1="158.87" x2="285.376" y2="222.066" gradientUnits="userSpaceOnUse">
<stop stop-color="#DED4F3" stop-opacity="0"/>
<stop offset="1" stop-color="#E2D4F3"/>
</linearGradient>
</defs>
</svg>
