<svg width="625" height="472" viewBox="0 0 625 472" fill="none" xmlns="http://www.w3.org/2000/svg">
<path opacity="0.18" d="M557.738 245.595C547.897 259.588 535.788 272.578 530.661 288.904C528.223 298.059 526.898 307.476 526.713 316.95C524.65 349.099 521.203 382.312 505.205 410.269C497.06 424.286 486.065 436.431 472.934 445.916C459.803 455.402 444.829 462.015 428.983 465.328C371.706 476.93 310.894 471.97 254.236 459.719C182.405 444.338 98.6995 419.775 62.4891 350.074C46.7173 319.216 37.8966 285.266 36.6493 250.62C35.402 215.974 41.7587 181.475 55.2706 149.559C67.5568 121.159 86.6785 94.2347 114.433 80.5659C146.401 64.8601 182.699 69.377 216.877 64.7421C245.279 60.9042 276.216 46.0546 302.32 34.3933C316.256 28.1937 330.163 21.6693 344.423 16.4143C402.072 -4.73335 465.211 -5.45228 523.325 14.3773C562.835 27.987 582.251 83.6067 586.965 121.631C592.475 164.674 582.811 210.168 557.738 245.595Z" fill="#5242B0"/>
<path d="M162.075 358.694C162.075 358.694 155.681 368.613 172.947 371.713L236.322 329.349L287.589 321.762L296.811 310.573L261.926 295.192L205.71 313.879L162.075 358.694Z" fill="url(#paint0_linear)"/>
<path d="M557.738 245.595C547.897 259.588 535.788 272.578 530.661 288.904C528.223 298.059 526.898 307.476 526.713 316.95L279.928 298.203L236.234 230.302L302.409 34.5409C316.345 28.3412 330.252 21.8168 344.512 16.5619C402.16 -4.58577 465.3 -5.3047 523.413 14.5249C562.923 28.1346 582.34 83.7543 587.054 121.779C592.475 164.674 582.811 210.168 557.738 245.595Z" fill="url(#paint1_linear)"/>
<path d="M287.589 293.509L280.429 297.908L279.928 298.203C272.932 302.438 264.969 304.806 256.8 305.082L247.637 305.909H246.488C238.339 306.684 230.551 309.652 223.948 314.499L163.372 358.606H161.987C158.916 358.717 155.87 358.026 153.148 356.598C149.365 354.594 146.447 351.269 144.949 347.253C143.45 343.237 143.474 338.81 145.016 334.811L145.34 333.984L203.029 289.494C209.117 284.805 213.253 278.02 214.638 270.452L215.905 263.308L216.14 262.009C217.352 255.431 220.223 249.272 224.479 244.119L235.468 230.834L287.589 293.509Z" fill="#5242B0"/>
<path d="M287.589 293.509L280.429 297.908L279.928 298.203C272.932 302.438 264.969 304.806 256.8 305.082L247.636 305.909C229.959 297.052 217.672 281.376 215.905 263.19L216.14 261.891C217.352 255.313 220.222 249.154 224.478 244.001L235.468 230.834L287.589 293.509Z" fill="url(#paint2_linear)"/>
<path d="M280.429 297.908L279.928 298.203C272.932 302.438 264.969 304.806 256.8 305.082L246.487 305.997C238.347 306.747 230.56 309.684 223.948 314.499L163.371 358.606H161.987C158.916 358.717 155.87 358.026 153.148 356.598L220.206 302.1L247.813 286.158L280.429 297.908Z" fill="url(#paint3_linear)"/>
<path d="M287.613 293.473C299.258 283.994 297.203 262.132 283.023 244.643C268.843 227.154 247.909 220.661 236.264 230.139C224.62 239.618 226.675 261.48 240.854 278.969C255.034 296.458 275.969 302.952 287.613 293.473Z" fill="white"/>
<path d="M284.102 289.142C294.155 280.959 292.382 262.086 280.142 246.989C267.901 231.892 249.829 226.287 239.775 234.47C229.722 242.654 231.495 261.526 243.736 276.624C255.976 291.721 274.049 297.326 284.102 289.142Z" fill="#5242B0"/>
<path d="M284.102 289.142C294.155 280.959 292.382 262.086 280.142 246.989C267.901 231.892 249.829 226.287 239.775 234.47C229.722 242.654 231.495 261.526 243.736 276.624C255.976 291.721 274.049 297.326 284.102 289.142Z" fill="url(#paint4_linear)"/>
<path d="M171.945 315.031C171.236 315.463 170.688 316.117 170.384 316.891C170.309 317.409 170.338 317.937 170.469 318.444C170.601 318.951 170.832 319.427 171.15 319.843C171.621 320.611 172.152 321.467 173.036 321.703C173.496 321.773 173.965 321.749 174.416 321.632C174.867 321.515 175.289 321.309 175.658 321.024C177.836 319.794 179.95 318.453 181.992 317.009C182.92 316.492 183.662 315.697 184.114 314.736C184.909 312.433 182.67 308.152 179.989 309.451C177.142 311.059 174.449 312.927 171.945 315.031Z" fill="url(#paint5_linear)"/>
<path d="M175.009 314.322C174.541 314.587 174.177 315.003 173.978 315.503C173.893 316.174 174.073 316.852 174.479 317.393C174.556 317.694 174.712 317.97 174.931 318.191C175.151 318.412 175.425 318.57 175.726 318.648C176.027 318.726 176.343 318.722 176.642 318.637C176.941 318.551 177.211 318.386 177.425 318.16C178.8 317.373 180.156 316.517 181.491 315.592C182.077 315.252 182.542 314.735 182.817 314.116C183.347 312.64 181.904 309.894 180.195 310.75C178.354 311.768 176.617 312.965 175.009 314.322Z" fill="#5242B0"/>
<path d="M443.479 222.656C446.632 221.948 449.578 220.619 452.672 219.704C453.198 219.528 453.766 219.528 454.292 219.704C454.715 219.931 455.04 220.307 455.203 220.759C455.366 221.212 455.356 221.708 455.176 222.154C454.764 223.027 454.135 223.779 453.349 224.339L449.49 227.586C447.499 229.466 445.182 230.967 442.654 232.015C441.983 232.339 441.234 232.467 440.494 232.384C439.754 232.3 439.052 232.008 438.47 231.542C438.117 231.188 437.91 230.716 437.586 230.332C436.644 229.21 435.023 228.885 433.962 227.822C432.902 226.76 432.754 222.892 435.111 222.686C436.457 222.824 437.794 223.031 439.118 223.305C440.594 223.284 442.061 223.065 443.479 222.656Z" fill="#FFBBAB"/>
<path d="M437.704 233.107C438.086 233.436 438.54 233.669 439.03 233.786C439.592 233.919 440.177 233.919 440.739 233.786C441.807 233.639 442.854 233.372 443.862 232.989C445.027 232.431 446.116 231.726 447.103 230.893C448.694 229.682 450.256 228.442 451.758 227.143C452.798 226.441 453.662 225.508 454.286 224.418C454.909 223.328 455.274 222.109 455.353 220.855C455.346 220.491 455.244 220.135 455.058 219.822C454.729 219.416 454.272 219.135 453.762 219.025C451.917 218.61 449.987 218.828 448.282 219.645C446.543 220.324 444.923 221.298 443.125 221.859C442.284 222.058 441.472 222.365 440.71 222.774C440.328 223.042 440.004 223.384 439.756 223.78C439.508 224.175 439.342 224.616 439.266 225.077C439.267 225.823 439.178 226.566 439.001 227.291C438.47 228.619 436.732 228.738 436.054 229.918C435.377 231.099 436.938 232.428 437.704 233.107Z" fill="#5242B0"/>
<path d="M334.966 229.269C334.409 229.262 333.864 229.427 333.404 229.741C333.049 230.118 332.787 230.573 332.638 231.07C330.959 235.469 329.456 239.926 328.071 244.414C327.81 245.132 327.69 245.894 327.718 246.658C327.924 248.281 329.456 249.315 330.841 250.171C331.695 250.673 333.051 250.997 333.375 250.171C333.699 249.344 333.08 249.019 333.021 248.399C333.035 248.027 333.126 247.661 333.288 247.326C333.45 246.99 333.681 246.692 333.964 246.451L344.453 234.642C344.828 234.218 345.093 233.707 345.224 233.156C345.356 232.605 345.35 232.03 345.208 231.481C345.065 230.933 344.79 230.428 344.406 230.011C344.023 229.595 343.543 229.279 343.009 229.092C341.834 229.049 340.658 229.138 339.503 229.358C338.001 229.328 336.498 229.151 334.966 229.269Z" fill="#FFBBAB"/>
<path d="M339.002 230.627C338.98 231.6 338.672 232.544 338.118 233.343C336.972 235.197 336.257 237.286 336.026 239.454C336.071 240.518 336.032 241.584 335.908 242.643C335.673 243.794 334.966 244.827 334.73 246.008C334.406 247.779 335.172 249.757 334.317 251.352C334.019 251.784 333.636 252.15 333.191 252.429C332.747 252.708 332.25 252.893 331.732 252.973C331.213 253.054 330.684 253.027 330.176 252.895C329.669 252.764 329.193 252.53 328.778 252.208C327.977 251.515 327.325 250.665 326.864 249.711C326.403 248.756 326.142 247.717 326.097 246.658C325.881 242.243 326.72 237.84 328.543 233.815C328.923 232.49 329.598 231.268 330.516 230.24C331.435 229.212 332.573 228.406 333.846 227.881C335.702 227.261 338.855 228.472 339.002 230.627Z" fill="#5242B0"/>
<path d="M381.901 197.356C381.901 197.356 377.54 222.272 375.831 223.01C374.122 223.748 343.422 235.321 343.422 235.321L341.33 229.18C341.33 229.18 350.817 221.593 360.893 213.947C364.341 211.32 364.075 197.828 364.812 194.197C365.549 190.565 381.901 197.356 381.901 197.356Z" fill="#282328"/>
<path d="M364.547 192.219C364.547 192.219 367.788 203.23 372.031 206.035C376.273 208.84 401.317 213.563 401.317 213.563C401.317 213.563 411.718 219.202 415.253 220.53C418.789 221.859 433.137 227.881 433.137 227.881L436.084 221.652L412.513 202.788C410.243 201.38 407.88 200.128 405.442 199.038C403.556 198.448 381.488 185.812 381.488 185.812L364.547 192.219Z" fill="#473F47"/>
<path d="M358.448 146.312C357.145 147.229 356.173 148.544 355.678 150.061C354.294 153.958 352.732 158.357 355.148 162.165C356.711 164.431 358.157 166.776 359.479 169.191C362.084 175.441 363.532 182.113 363.751 188.883C363.958 191.067 367.051 191.51 369.202 191.599C373.299 191.697 377.354 190.753 380.987 188.853C381.32 188.695 381.612 188.463 381.842 188.174C381.985 187.921 382.077 187.642 382.112 187.353C382.147 187.065 382.126 186.772 382.048 186.491C381.606 182.919 380.987 179.347 380.781 175.745C380.668 173.944 380.717 172.135 380.928 170.343C381.164 168.63 380.928 166.859 380.928 165.117C380.928 163.376 381.164 162.165 381.164 160.837C381.183 159.411 380.828 158.006 380.133 156.763C379.308 155.434 378.218 154.253 377.187 153.013C376.109 151.665 375.124 150.245 374.24 148.762C373.733 147.692 373.078 146.698 372.296 145.81C371.353 145.024 370.249 144.455 369.063 144.144C367.877 143.833 366.637 143.787 365.431 144.009C362.954 144.213 360.561 145.002 358.448 146.312Z" fill="#FFBBAB"/>
<path d="M381.96 124.761C382.946 122.991 383.651 121.079 384.052 119.092C384.415 116.59 384.485 114.053 384.258 111.535C384.214 110.631 383.983 109.746 383.58 108.937C382.932 107.844 381.754 107.136 381.223 105.984C381.183 105.86 381.183 105.725 381.223 105.601C381.259 105.522 381.312 105.452 381.378 105.395C381.445 105.339 381.522 105.298 381.606 105.276L382.903 104.656C382.534 103.625 382.534 102.498 382.903 101.468C383 101.077 383.212 100.724 383.511 100.456C383.81 100.187 384.184 100.015 384.582 99.9619C385.436 99.9619 386.026 100.818 386.821 101.172C387.617 101.527 388.442 101.468 389.149 101.851C389.909 102.459 390.431 103.316 390.622 104.272C391.093 106.606 391.153 109.003 390.799 111.357C390.799 114.033 390.622 116.706 390.268 119.358C389.5 124.684 388.064 129.891 385.996 134.857C384.906 137.539 383.616 140.134 382.137 142.621C380.546 145.367 374.623 156.084 370.999 154.253C366.079 151.773 368.053 145.898 370.499 142.769C375.048 137.265 378.898 131.216 381.96 124.761Z" fill="#FFBBAB"/>
<path d="M366.492 143.212C368.377 145.219 370.174 147.286 371.942 149.382C372.266 149.682 372.523 150.048 372.696 150.455C372.869 150.862 372.953 151.302 372.944 151.744C372.788 152.328 372.434 152.84 371.942 153.19C370.898 153.902 369.69 154.336 368.432 154.449C367.174 154.563 365.908 154.353 364.753 153.84C362.454 152.799 360.343 151.382 358.507 149.648C357.48 148.697 356.293 147.938 355.001 147.404C354.352 147.149 353.646 147.071 352.958 147.18C352.269 147.289 351.621 147.581 351.082 148.024C350.829 148.254 350.627 148.534 350.489 148.847C350.351 149.159 350.279 149.498 350.279 149.84C350.279 150.182 350.351 150.52 350.489 150.833C350.627 151.145 350.829 151.426 351.082 151.655C350.847 150.622 352.055 149.707 353.086 149.825C354.131 150.041 355.069 150.615 355.737 151.449C356.731 152.435 357.666 153.48 358.536 154.578C359.212 155.351 359.759 156.229 360.157 157.176C360.443 158.403 360.48 159.675 360.268 160.918C360.055 162.16 359.597 163.347 358.92 164.409C358.432 165.228 358.093 166.128 357.918 167.066C357.905 168.503 358.271 169.919 358.978 171.169C361.168 176.709 362.49 182.555 362.897 188.499C362.887 189.05 362.991 189.598 363.204 190.106C363.417 190.614 363.734 191.073 364.135 191.451C364.854 191.814 365.675 191.919 366.462 191.746C370.233 191.244 373.769 189.591 377.54 189.001C379.904 188.855 382.256 188.559 384.582 188.115C384.877 188.115 385.23 187.938 385.378 187.643C385.451 187.475 385.488 187.294 385.488 187.111C385.488 186.928 385.451 186.748 385.378 186.58C383.207 180.319 381.879 173.796 381.429 167.184C381.753 164.102 381.753 160.995 381.429 157.914C381.318 157.244 381.078 156.602 380.722 156.025C380.317 155.48 379.83 155.002 379.279 154.607C376.336 152.079 373.983 148.935 372.384 145.397" fill="white"/>
<path opacity="0.1" d="M362.425 175.007C362.691 176.07 363.133 177.28 364.164 177.664C364.462 177.718 364.75 177.817 365.018 177.959C365.608 178.314 365.666 179.081 365.902 179.731C366.525 180.86 367.355 181.861 368.348 182.683C369.232 183.657 369.88 185.163 369.114 186.226C368.348 187.288 367.67 187.2 367.287 187.938C366.904 188.676 367.876 190.89 366.904 191.687C366.607 191.893 366.245 191.983 365.887 191.94C365.528 191.896 365.198 191.722 364.959 191.451C364.505 190.895 364.192 190.236 364.046 189.532C362.082 182.329 360.118 175.106 358.153 167.863C358.023 167.483 357.963 167.083 357.977 166.682C358.057 166.289 358.196 165.911 358.389 165.56C358.772 164.792 359.155 163.375 359.833 162.874C360.834 163.936 360.687 166.682 360.923 168.069C361.217 170.431 361.748 172.734 362.425 175.007Z" fill="#020202"/>
<path d="M372.59 129.041C373.062 129.602 373.651 130.104 373.739 130.783C373.769 131.289 373.678 131.795 373.474 132.259C373.204 133.359 373.125 134.498 373.238 135.625C373.424 136.463 373.352 137.338 373.032 138.134C372.717 138.564 372.316 138.922 371.854 139.187C371.392 139.451 370.88 139.616 370.351 139.669L367.965 140.112C367.664 140.113 367.369 140.194 367.11 140.348C366.862 140.534 366.676 140.791 366.58 141.086C366.152 143.024 366.033 145.016 366.226 146.991C366.225 147.32 366.144 147.644 365.991 147.935C365.816 148.185 365.584 148.388 365.313 148.526C363.751 149.504 361.877 149.852 360.068 149.5C359.615 149.432 359.193 149.226 358.86 148.91C358.587 148.479 358.453 147.973 358.477 147.463C358.374 146.117 358.374 144.765 358.477 143.419C358.849 141.631 358.899 139.792 358.625 137.986C358.212 136.422 357.181 135.034 356.651 133.558C356.16 131.935 356.204 130.197 356.778 128.602C357.351 127.006 358.422 125.638 359.833 124.702C361.031 123.968 362.379 123.513 363.776 123.37C365.173 123.227 366.584 123.4 367.906 123.875C368.878 124.17 369.644 124.288 370.233 125.144C370.823 126 371.618 127.86 372.59 129.041Z" fill="#FFBBAB"/>
<path d="M369.85 118.649C369.441 117.584 368.682 116.689 367.7 116.111C365.84 115.292 363.75 115.166 361.807 115.756C359.469 116.208 357.275 117.221 355.413 118.708C354.467 119.434 353.706 120.374 353.194 121.452C352.681 122.53 352.432 123.715 352.467 124.908C352.089 125.015 351.744 125.214 351.461 125.487C351.178 125.76 350.967 126.099 350.847 126.473C350.654 127.248 350.654 128.059 350.847 128.835C351.596 131.958 353.246 134.791 355.59 136.983C356.356 137.809 357.77 139.935 359.037 139.758C360.304 139.581 360.393 137.662 361.07 136.806C360.363 136.304 359.538 135.979 358.861 135.448C358.505 135.197 358.227 134.85 358.061 134.448C357.894 134.045 357.844 133.604 357.918 133.174C358.183 132.348 359.45 131.964 359.921 132.672C359.636 131.594 359.599 130.465 359.813 129.371C360.027 128.276 360.488 127.245 361.159 126.355C361.339 126.019 361.59 125.726 361.895 125.499C362.214 125.317 362.564 125.197 362.926 125.144C363.928 124.967 364.93 124.82 365.873 124.731C366.816 124.642 368.024 124.731 368.819 123.727C369.668 122.704 370.09 121.393 369.998 120.066C370.029 119.589 369.979 119.11 369.85 118.649Z" fill="#FC682D"/>
<path d="M364.458 141.057C364.182 141.087 363.928 141.225 363.751 141.441C363.646 141.706 363.646 142.002 363.751 142.267C363.876 143.731 364.163 145.177 364.606 146.577C364.702 146.947 364.861 147.296 365.077 147.611C365.195 147.769 365.352 147.893 365.533 147.971C365.715 148.049 365.913 148.077 366.108 148.054C366.55 148.054 366.845 147.552 367.258 147.375C367.485 147.273 367.731 147.22 367.979 147.22C368.228 147.22 368.474 147.273 368.701 147.375C369.125 147.637 369.52 147.944 369.88 148.29C370.745 149.053 371.671 149.744 372.649 150.356C371.696 148.463 370.453 146.729 368.966 145.219C368.613 144.775 368.128 144.455 367.582 144.304C367.169 144.304 366.698 144.304 366.344 144.068C365.991 143.832 366.108 142.858 366.344 142.238C366.58 141.618 367.11 140.703 366.58 140.378C366.05 140.053 364.812 140.968 364.458 141.057Z" fill="#E0A194"/>
<path d="M375.419 134.325L375.682 134.149C375.536 134.119 375.419 134.178 375.419 134.325Z" fill="#5242B0"/>
<path d="M354.382 149.293C353.084 152.624 352.618 156.222 353.027 159.774C353.952 162.976 355.185 166.081 356.71 169.044C359.244 176.631 360.569 184.543 363.339 192.041C363.573 192.891 364.068 193.645 364.753 194.197C365.702 194.557 366.75 194.557 367.7 194.197L369.791 193.724C374.775 192.564 379.693 191.135 384.523 189.444C384.972 189.406 385.403 189.254 385.776 189.001C386.148 188.748 386.45 188.403 386.651 188C386.852 187.597 386.946 187.148 386.925 186.698C386.903 186.248 386.766 185.81 386.527 185.429C385.108 178.757 384.202 171.987 383.816 165.176C383.472 161.885 382.861 158.626 381.989 155.434C381.307 153.875 381.024 152.171 381.164 150.474C381.264 149.963 381.454 149.473 381.724 149.028C382.899 147.426 384.157 145.889 385.495 144.422C387.216 141.597 388.227 138.396 388.442 135.093C389.149 130.34 389.944 125.587 390.563 120.834C391.064 117.321 389.119 116.17 386.468 115.373L383.374 114.516C383.158 118.186 382.536 121.82 381.518 125.351C380.524 128.79 378.459 131.821 375.625 134.001C375.679 133.999 375.731 134.016 375.774 134.048C375.817 134.08 375.848 134.126 375.861 134.178C375.861 134.385 375.861 134.621 375.655 134.828L370.204 142.267C369.872 142.774 369.428 143.198 368.908 143.507C368.289 143.773 365.961 143.507 366.226 144.599C366.217 144.668 366.217 144.738 366.226 144.806C366.403 145.19 366.757 145.485 366.875 145.869C366.933 146.124 366.917 146.391 366.829 146.637C366.74 146.883 366.582 147.098 366.374 147.256C365.939 147.563 365.43 147.747 364.901 147.788C364.334 147.876 363.758 147.876 363.192 147.788C361.07 147.345 357.977 145.839 355.885 147.168C355.171 147.73 354.639 148.489 354.353 149.352L354.382 149.293Z" fill="#5242B0"/>
<path d="M390.74 120.982C390.092 125.735 389.326 130.488 388.589 135.241C388.389 138.546 387.377 141.751 385.643 144.57C384.298 146.031 383.038 147.568 381.871 149.175C381.628 149.596 381.43 150.041 381.282 150.504C381.201 150.462 381.13 150.401 381.076 150.327C380.546 160.512 383.845 170.609 386.026 180.676C386.49 181.998 386.686 183.401 386.6 184.801C386.514 186.2 386.148 187.568 385.525 188.824C384.473 189.997 383.181 190.929 381.737 191.555C380.293 192.182 378.731 192.489 377.157 192.455C376.184 192.647 375.184 192.647 374.211 192.455C371.058 191.776 369.703 188.086 368.878 184.956L368.407 181.561C366.097 173.599 364.267 165.506 362.926 157.324C362.513 155.763 362.68 154.105 363.398 152.659C364.263 151.572 365.417 150.753 366.727 150.297C369.902 148.796 372.921 146.987 375.743 144.895C376.587 144.07 377.717 143.605 378.896 143.596C378.75 143.365 378.669 143.1 378.66 142.828C378.629 142.633 378.629 142.433 378.66 142.238C380.045 138.813 381.312 135.359 382.696 131.994C384.091 128.815 384.928 125.42 385.171 121.956C385.107 120.464 385.206 118.969 385.466 117.498C385.645 116.829 385.944 116.199 386.35 115.638C389.296 116.317 391.211 117.469 390.74 120.982Z" fill="url(#paint6_linear)"/>
<path d="M349.874 181.414C349.88 181.997 350.043 182.568 350.345 183.067C350.862 183.627 351.563 183.984 352.32 184.071C361.394 186.049 370.822 184.691 379.986 183.303C380.873 183.325 381.736 183.018 382.411 182.44C383.085 181.862 383.523 181.055 383.639 180.174L384.759 176.867C385.024 176.129 385.23 175.184 384.759 174.653C384.34 174.354 383.824 174.227 383.315 174.299L362.691 174.535C362.595 171.578 362.713 168.618 363.044 165.678C363.354 162.671 362.704 159.642 361.188 157.028C360.498 155.92 359.501 155.037 358.319 154.486C357.136 153.936 355.82 153.742 354.529 153.929C351.907 154.785 351.878 157.944 351.318 160.512C349.792 167.367 349.306 174.413 349.874 181.414Z" fill="#5242B0"/>
<path d="M363.869 152.807C362.695 153.543 361.695 154.527 360.937 155.689C360.179 156.851 359.682 158.164 359.479 159.538C358.065 164.468 356.857 169.487 355.885 174.505C355.72 175.049 355.694 175.625 355.807 176.182C355.92 176.738 356.17 177.258 356.533 177.694C356.951 178.036 357.447 178.269 357.977 178.373C364.607 180.083 371.537 180.265 378.247 178.904C377.682 178.18 376.969 177.584 376.156 177.157C375.344 176.729 374.45 176.48 373.533 176.424L365.372 174.741C363.781 174.417 361.836 173.738 361.63 172.114C361.528 171.637 361.528 171.144 361.63 170.667L363.133 164.763C363.361 164.732 363.593 164.783 363.788 164.907C363.982 165.032 364.126 165.221 364.193 165.442" fill="url(#paint7_linear)"/>
<path d="M387.764 180.646C388.762 180.078 389.683 179.383 390.504 178.579C391.757 177.558 392.849 176.354 393.745 175.007C393.951 174.746 394.065 174.424 394.069 174.092C394.069 173.383 393.215 172.97 392.508 172.941C391.095 173.11 389.709 173.457 388.383 173.974C386.438 174.387 384.258 173.974 382.638 174.978C381.017 175.981 378.925 179.435 380.575 180.882C382.225 182.329 386.173 181.502 387.764 180.646Z" fill="#FFBBAB"/>
<path d="M373.769 178.137L391.83 175.775L409.714 160.069V134.916L388.884 148.939V162.903L387.028 163.759L373.769 178.137Z" fill="#473F47"/>
<path d="M388.884 162.903L388.383 174.033L377.305 175.627L387.028 163.759L388.884 162.903Z" fill="url(#paint8_linear)"/>
<path d="M385.23 166.8L387.97 166.623L385.171 170.904L381.547 171.228L385.23 166.8Z" fill="url(#paint9_linear)"/>
<path d="M388.736 166.298L384.405 173.324L388.442 172.734L388.736 166.298Z" fill="url(#paint10_linear)"/>
<path d="M430.162 94.1462L452.289 156.526L534.167 127.093V124.436L454.027 153.574L433.049 92.1682L430.162 94.1462Z" fill="#5242B0"/>
<path d="M465.252 149.5L452.406 117.557L460.008 113.454L474.651 146.076L465.252 149.5Z" fill="#5242B0"/>
<path d="M483.873 142.385L463.544 90.7806L471.145 86.677L493.272 138.961L483.873 142.385Z" fill="#5242B0"/>
<path d="M505.323 134.916L478.364 65.3325L485.965 61.2289L514.751 131.492L505.323 134.916Z" fill="#5242B0"/>
<path d="M482.164 172.97V210.877H534.167V209.401H483.962L483.873 190.241L483.814 172.468L482.164 172.97Z" fill="#5242B0"/>
<path d="M502.877 198.714L498.605 192.632L488.705 198.094L487.939 196.736L499.076 190.595L502.966 196.145L510.567 186.816L516.548 189.237L533.725 177.487L534.609 178.786L516.754 190.979L511.038 188.706L502.877 198.714Z" fill="#5242B0"/>
<path d="M387.528 79.0602L355.914 74.1595L370.056 45.2869L401.671 50.1875L387.528 79.0602Z" fill="#5242B0"/>
<path d="M385.908 69.7018L354.293 64.8011L368.436 35.9285L400.079 40.8291L385.908 69.7018Z" fill="#5242B0"/>
<path d="M355.885 74.1597C355.885 74.1597 350.405 69.8199 354.294 64.8011L385.996 69.7018C385.996 69.7018 383.816 75.6063 387.617 79.0604L355.885 74.1597Z" fill="#5242B0"/>
<path d="M387.528 79.0899L355.914 74.1597C355.914 74.1597 350.405 69.8199 354.294 64.8011L385.996 69.7018C385.816 70.2615 385.679 70.8339 385.584 71.4141C385.284 72.6236 385.258 73.885 385.508 75.1059C385.758 76.3268 386.277 77.4762 387.028 78.4699L387.528 79.0899Z" fill="#5242B0"/>
<path d="M386.939 78.4699L356.533 73.7464C355.451 72.9691 354.717 71.7962 354.491 70.4814C354.265 69.1666 354.565 67.8154 355.325 66.7201L385.495 71.4141C385.196 72.6236 385.17 73.885 385.419 75.1059C385.669 76.3268 386.189 77.4762 386.939 78.4699Z" fill="white"/>
<path d="M386.939 78.4698L400.728 50.04C399.518 47.1201 399.31 43.88 400.139 40.8291L385.495 71.4141C385.208 72.6245 385.188 73.8832 385.438 75.1021C385.687 76.3209 386.199 77.4704 386.939 78.4698Z" fill="white"/>
<path opacity="0.43" d="M386.939 77.9384L400.728 49.4791C400.728 49.4791 398.99 47.0583 400.139 40.8291L385.584 70.8826C385.284 72.0867 385.25 73.3418 385.484 74.5605C385.718 75.7791 386.215 76.9319 386.939 77.9384Z" fill="#5242B0"/>
<defs>
<linearGradient id="paint0_linear" x1="179.694" y1="269.094" x2="295.613" y2="430.361" gradientUnits="userSpaceOnUse">
<stop offset="0.01"/>
<stop offset="0.08" stop-opacity="0.69"/>
<stop offset="0.21" stop-opacity="0.32"/>
<stop offset="1" stop-opacity="0"/>
</linearGradient>
<linearGradient id="paint1_linear" x1="236.234" y1="158.534" x2="588.497" y2="158.534" gradientUnits="userSpaceOnUse">
<stop offset="0.01" stop-color="white"/>
<stop offset="1" stop-color="white" stop-opacity="0"/>
</linearGradient>
<linearGradient id="paint2_linear" x1="7043.1" y1="7007.84" x2="3483.54" y2="9077.83" gradientUnits="userSpaceOnUse">
<stop offset="0.01"/>
<stop offset="0.08" stop-opacity="0.69"/>
<stop offset="0.21" stop-opacity="0.32"/>
<stop offset="1" stop-opacity="0"/>
</linearGradient>
<linearGradient id="paint3_linear" x1="7634.75" y1="7835.67" x2="11560.1" y2="12853.6" gradientUnits="userSpaceOnUse">
<stop offset="0.01"/>
<stop offset="0.08" stop-opacity="0.69"/>
<stop offset="0.21" stop-opacity="0.32"/>
<stop offset="1" stop-opacity="0"/>
</linearGradient>
<linearGradient id="paint4_linear" x1="3997.95" y1="6812.72" x2="4911.2" y2="6812.72" gradientUnits="userSpaceOnUse">
<stop offset="0.01" stop-color="white"/>
<stop offset="1" stop-color="white" stop-opacity="0"/>
</linearGradient>
<linearGradient id="paint5_linear" x1="971.802" y1="1665.09" x2="1112.38" y2="1813.59" gradientUnits="userSpaceOnUse">
<stop offset="0.01"/>
<stop offset="0.08" stop-opacity="0.69"/>
<stop offset="0.21" stop-opacity="0.32"/>
<stop offset="1" stop-opacity="0"/>
</linearGradient>
<linearGradient id="paint6_linear" x1="9863.02" y1="315.676" x2="7730.53" y2="475.993" gradientUnits="userSpaceOnUse">
<stop offset="0.01"/>
<stop offset="0.08" stop-opacity="0.69"/>
<stop offset="0.21" stop-opacity="0.32"/>
<stop offset="1" stop-opacity="0"/>
</linearGradient>
<linearGradient id="paint7_linear" x1="6735.62" y1="93.0483" x2="7406.86" y2="-121.03" gradientUnits="userSpaceOnUse">
<stop offset="0.01"/>
<stop offset="0.08" stop-opacity="0.69"/>
<stop offset="0.21" stop-opacity="0.32"/>
<stop offset="1" stop-opacity="0"/>
</linearGradient>
<linearGradient id="paint8_linear" x1="1699.97" y1="855.601" x2="1773.49" y2="912.62" gradientUnits="userSpaceOnUse">
<stop offset="0.01" stop-color="white"/>
<stop offset="1" stop-color="white" stop-opacity="0"/>
</linearGradient>
<linearGradient id="paint9_linear" x1="1137.41" y1="424.163" x2="1144.92" y2="450.023" gradientUnits="userSpaceOnUse">
<stop offset="0.01"/>
<stop offset="0.08" stop-opacity="0.69"/>
<stop offset="0.21" stop-opacity="0.32"/>
<stop offset="1" stop-opacity="0"/>
</linearGradient>
<linearGradient id="paint10_linear" x1="884.815" y1="557.029" x2="968.334" y2="587.113" gradientUnits="userSpaceOnUse">
<stop offset="0.01"/>
<stop offset="0.08" stop-opacity="0.69"/>
<stop offset="0.21" stop-opacity="0.32"/>
<stop offset="1" stop-opacity="0"/>
</linearGradient>
</defs>
</svg>
