<svg width="75" height="75" viewBox="0 0 75 75" fill="none" xmlns="http://www.w3.org/2000/svg">
<path d="M51.9426 26.2312H51.172C49.8945 26.2314 48.6318 26.505 47.4688 27.0336C46.3058 27.5622 45.2694 28.3336 44.4292 29.296C43.589 30.2583 42.9645 31.3894 42.5976 32.6131C42.2307 33.8368 42.13 35.1248 42.3021 36.3907L43.5996 43.0785C43.9762 45.0147 45.0146 46.7597 46.5368 48.0143C48.0589 49.2689 49.9701 49.955 51.9426 49.955C53.9152 49.955 55.8263 49.2689 57.3485 48.0143C58.8706 46.7597 59.909 45.0147 60.2856 43.0785L61.5831 36.3907C61.7553 35.1248 61.6545 33.8368 61.2876 32.6131C60.9208 31.3894 60.2963 30.2584 59.4561 29.296C58.6159 28.3337 57.5794 27.5623 56.4164 27.0336C55.2534 26.505 53.9907 26.2314 52.7132 26.2312H51.9426Z" fill="#826EFD"/>
<path d="M73.8153 69.263C73.7799 68.4452 73.7328 67.4741 73.6698 66.44C73.5362 64.313 73.3317 61.9304 73.0172 60.0864C72.9942 59.9402 72.9614 59.7957 72.9189 59.6539C72.7505 59.0315 72.4522 58.4518 72.0436 57.9531C71.6349 57.4543 71.1252 57.0477 70.5481 56.7602C67.9139 55.447 63.3453 53.7485 60.2117 52.632C60.1217 52.7566 60.049 52.8928 59.9954 53.0369C58.4031 56.8074 56.8134 60.5792 55.2263 64.3523C55.1752 64.4703 55.128 64.5843 55.0769 64.7022C55.0415 64.7022 54.9707 64.7062 54.9707 64.7062L53.7227 54.8959C53.708 54.7798 53.6514 54.6732 53.5637 54.5959C53.4759 54.5186 53.363 54.4759 53.246 54.4759H50.2436C50.1266 54.4759 50.0137 54.5186 49.9259 54.5959C49.8381 54.6732 49.7816 54.7798 49.7668 54.8959L48.5189 64.7062C48.5189 64.7062 48.4481 64.7022 48.4127 64.7022C48.3616 64.5843 48.3144 64.4703 48.2633 64.3523C46.6749 60.5818 45.0852 56.81 43.4942 53.0369C43.4407 52.8928 43.3679 52.7566 43.2779 52.632C40.1444 53.7485 35.5757 55.447 32.9415 56.7602C32.3644 57.0478 31.8547 57.4543 31.4461 57.9531C31.0374 58.4518 30.7391 59.0315 30.5707 59.6539C30.5282 59.7957 30.4954 59.9402 30.4724 60.0864C30.1579 61.9304 29.9534 64.313 29.8198 66.4401C29.7569 67.4741 29.7097 68.4452 29.6743 69.263C29.6193 70.6745 29.6035 71.622 29.6035 71.622H73.8861C73.8861 71.622 73.8703 70.6745 73.8153 69.263Z" fill="#826EFD"/>
<path d="M21.6834 31.5092C22.0445 31.446 22.3891 31.3101 22.6962 31.11C22.8861 30.9736 22.8768 30.6745 22.8532 30.4615C22.845 30.3929 22.8306 30.3251 22.8104 30.2591C22.7495 30.0424 22.6501 29.8385 22.5168 29.6571C22.4566 29.5784 22.368 29.5262 22.27 29.5117C22.1151 29.5098 21.9624 29.5486 21.8272 29.6243C21.7913 29.6404 21.7572 29.6559 21.7271 29.6672C21.5492 29.7339 21.3708 29.7993 21.192 29.8636C20.8648 29.986 20.5314 30.0914 20.1932 30.1792C20.1653 30.1861 20.1422 30.1913 20.1234 30.1949C20.1172 30.1713 20.1106 30.1471 20.1039 30.1223L20.0957 30.0924C20.0737 29.998 20.0577 29.9024 20.048 29.806C20.0422 29.759 20.0389 29.7117 20.0382 29.6644L20.0269 29.5644C20.0246 29.5184 20.0213 29.4739 20.018 29.4309C20.0147 29.3872 20.0113 29.3451 20.0098 29.3036C20.0079 29.2613 20.005 29.2218 20.0024 29.185C19.9996 29.1471 19.9971 29.1124 19.9954 29.0644C19.9914 29.0288 19.9898 28.9981 19.9884 28.9714C19.9869 28.9452 19.9855 28.9221 19.9832 28.902C19.8441 27.0847 19.8767 25.2584 20.0806 23.4473C20.1004 23.2123 20.1112 22.9803 20.1217 22.7501C20.1313 22.3355 20.1687 21.922 20.2337 21.5124C20.2592 21.3358 20.2978 21.1615 20.3492 20.9907C20.3841 20.8651 20.4104 20.7373 20.4279 20.6081C20.4929 20.2275 20.4479 19.8362 20.2983 19.4802C20.2417 19.348 20.1475 19.2354 20.0274 19.1562C19.9073 19.0771 19.7667 19.035 19.6229 19.0351C19.5664 19.0245 19.5084 19.0248 19.452 19.036C19.1595 19.1115 18.8922 19.2634 18.6776 19.4761C18.6206 19.523 18.5673 19.5668 18.5202 19.6017C18.2988 19.7645 18.0796 19.9332 17.8597 20.1027C17.6591 20.257 17.458 20.412 17.2536 20.5632L17.1946 20.6105C17.0009 20.7534 16.8036 20.8908 16.6055 21.0286L16.3705 21.1927C16.225 21.2959 16.0789 21.3934 15.9326 21.4911C15.8978 21.5144 15.8555 21.5378 15.8116 21.5625C15.6782 21.6252 15.5596 21.7153 15.4635 21.8269C15.3975 21.9156 15.3568 22.0205 15.3457 22.1305C15.3345 22.2404 15.3533 22.3514 15.4 22.4516C15.4827 22.6121 15.6014 22.7513 15.7469 22.8583C15.8924 22.9653 16.0607 23.0371 16.2386 23.068C16.5662 23.091 16.8923 23.0064 17.1674 22.827C17.2834 22.7604 17.3972 22.6872 17.5094 22.615C17.6733 22.503 17.8454 22.4034 18.0243 22.3173C18.0656 22.2991 18.1079 22.2833 18.151 22.27C18.255 22.9616 18.2555 23.6649 18.1523 24.3567C18.1195 24.7027 18.0884 25.0296 18.0796 25.3463C18.0454 26.3734 18.0271 27.4934 18.0237 28.7695C18.0208 29.0649 18.0271 29.3887 18.036 29.7434C18.0387 29.8718 18.0413 30.0008 18.0506 30.1345C18.0582 30.3542 18.0672 30.5839 18.0783 30.8382C18.069 30.8465 18.0583 30.8552 18.0466 30.8647L18.0228 30.8849C17.8505 30.9886 17.6637 31.0663 17.4687 31.1154L17.3498 31.1525C17.2494 31.1856 17.127 31.2159 16.9944 31.2487C16.3694 31.404 15.4251 31.6385 15.52 32.4973C15.5479 32.6499 15.6056 32.7955 15.6899 32.9257C15.7741 33.0559 15.8832 33.1681 16.011 33.2561C16.1582 33.3657 16.3358 33.427 16.5193 33.4314C16.7028 33.4358 16.8831 33.3832 17.0354 33.2808C17.0841 33.2599 17.1333 33.2389 17.1841 33.219L17.3106 33.1677C17.3896 33.1352 17.4686 33.1026 17.5577 33.0714C17.8567 32.9472 18.1619 32.8385 18.4721 32.7457C18.4762 32.7405 18.4936 32.7493 18.5209 32.7665C18.6007 32.8234 18.6736 32.8893 18.7381 32.9631C18.8262 33.0706 18.9356 33.1585 19.0594 33.2214C19.24 33.2758 19.4303 33.2894 19.6168 33.2612C19.9101 33.2351 20.1919 33.1342 20.4351 32.9681C20.522 32.9109 20.5916 32.8312 20.6367 32.7374C20.6817 32.6437 20.7004 32.5395 20.6907 32.4359C20.6837 32.3721 20.667 32.2893 20.6464 32.1902L20.6302 32.1118C20.6173 32.0557 20.6095 32.0075 20.6024 31.965L20.5884 31.8823C20.8664 31.7205 21.1715 31.6103 21.4888 31.557L21.6834 31.5092Z" fill="#826EFD"/>
<path d="M27.8314 26.0929C27.8956 26.0854 27.953 26.0774 27.9957 26.0689C28.0807 26.0664 28.1653 26.0569 28.2487 26.0405C28.6091 25.9703 28.9748 25.9306 29.3419 25.922C29.4254 25.9193 29.512 25.9221 29.5993 25.9246C29.8058 25.9406 30.0135 25.9274 30.2163 25.8853C30.2968 25.8711 30.3735 25.8405 30.4418 25.7956C30.5101 25.7506 30.5685 25.6922 30.6133 25.6239C30.6988 25.4256 30.7023 25.2016 30.623 25.0009C30.5974 24.8425 30.5248 24.6955 30.4148 24.5789C30.3047 24.4622 30.1622 24.3812 30.0057 24.3464C29.5658 24.2754 29.1162 24.2907 28.6822 24.3914C28.4128 24.444 28.1394 24.4732 27.865 24.4788C27.8042 24.4779 27.7456 24.4742 27.6957 24.4704C27.6336 24.1808 27.5865 23.8882 27.5547 23.5938C27.5484 23.5378 27.5467 23.4492 27.5441 23.3414C27.5291 22.7299 27.4892 22.1107 27.1867 21.8466C27.1345 21.8005 27.073 21.766 27.0064 21.7455C26.9398 21.725 26.8696 21.7189 26.8005 21.7276C26.6933 21.7355 26.5891 21.766 26.4946 21.8171C26.4002 21.8681 26.3176 21.9386 26.2523 22.0239C25.9361 22.4507 26.0809 23.2195 26.1971 23.8373C26.2436 24.0432 26.2734 24.2524 26.2863 24.463C26.2853 24.5483 26.2786 24.6334 26.2662 24.7179L26.263 24.7378C26.1246 24.7551 25.9796 24.7767 25.8283 24.8026L25.6472 24.8337C25.264 24.8999 24.8687 24.9694 24.4771 25.004C24.4247 25.0088 24.3568 25.0091 24.2815 25.0098C23.9368 25.0127 23.4645 25.017 23.3113 25.3525C23.2314 25.5107 23.1997 25.6888 23.2202 25.8648C23.2407 26.0408 23.3124 26.2069 23.4266 26.3424C23.557 26.4361 23.7094 26.4945 23.8691 26.5117C24.0288 26.529 24.1902 26.5046 24.3376 26.4408C24.4129 26.4218 24.4892 26.4066 24.566 26.3953C25.0706 26.3344 25.5648 26.2785 26.0558 26.2655C26.1432 26.2635 26.223 26.2576 26.2944 26.2523L26.3174 26.2507L26.3209 26.3448C26.3308 26.6216 26.34 26.8741 26.3428 27.1003L26.3445 27.1439C26.3438 27.1551 26.3442 27.1664 26.3459 27.1775C26.323 27.5993 26.3565 28.0223 26.4455 28.4352C26.5494 28.808 26.8552 28.9691 27.3544 28.9139L27.3587 28.9134C27.4495 28.9122 27.5392 28.8926 27.6222 28.8557C27.7051 28.8188 27.7798 28.7654 27.8414 28.6987C27.884 28.6303 27.912 28.5538 27.9237 28.474C27.9353 28.3943 27.9304 28.313 27.9092 28.2352C27.8936 28.1465 27.8833 28.052 27.8709 27.939L27.8657 27.893C27.805 27.3826 27.7778 26.8687 27.7844 26.3547C27.7962 26.2676 27.8088 26.191 27.8314 26.0929Z" fill="#826EFD"/>
<path d="M37.6474 27.4807C37.6862 27.4441 37.725 27.4075 37.7659 27.3708L37.7724 27.3644C37.9921 27.1511 38.2141 26.9248 38.4252 26.7007C38.4619 26.6662 38.4985 26.6296 38.5351 26.5887L38.5933 26.524C39.1309 25.9407 39.6257 25.3192 40.0736 24.6645C40.358 24.253 40.6037 23.8716 40.8256 23.4988L40.9463 23.2963C41.4812 22.5683 41.7899 21.699 41.834 20.7967C41.823 20.5828 41.7869 20.3709 41.7263 20.1654C41.327 19.0106 40.4918 18.0578 39.3992 17.5108C39.0468 17.329 38.6691 17.2012 38.2787 17.1316C37.1899 16.9658 36.0778 17.1976 35.1458 17.7845C35.1089 17.8023 35.0736 17.8232 35.0402 17.8469C34.6089 18.0942 34.1969 18.3736 33.8077 18.683L33.7754 18.7067L33.7581 18.7455C33.6631 18.9559 33.6448 19.193 33.7064 19.4156C33.7687 19.6803 33.9109 19.9195 34.1137 20.1008C34.2132 20.1988 34.3349 20.2714 34.4684 20.3127C34.6018 20.3539 34.7433 20.3625 34.8807 20.3378L34.926 20.3292L34.9605 20.299C35.0273 20.2409 35.1005 20.1805 35.1738 20.1245C35.407 19.9275 35.6524 19.7454 35.9086 19.5793L35.9473 19.5535C35.9635 19.5451 35.9786 19.535 35.9926 19.5233C36.239 19.3616 36.5065 19.2347 36.7877 19.1462C36.897 19.1175 37.0089 19.0995 37.1217 19.0924C37.4706 19.0785 37.8179 19.1474 38.1351 19.2935C38.4523 19.4395 38.7304 19.6586 38.9467 19.9327C39.1544 20.19 39.297 20.4935 39.3626 20.8175C39.4283 21.1415 39.415 21.4766 39.3238 21.7944C38.8858 22.9803 38.2164 24.0672 37.3544 24.992C37.1756 25.2096 36.9903 25.4294 36.7985 25.6427C36.5485 25.9207 36.2878 26.1943 36.0249 26.4529C35.5147 26.9487 34.96 27.3966 34.368 27.791C34.1094 27.9612 33.8724 28.1185 33.6526 28.278C33.1506 28.6392 32.7324 29.1044 32.4266 29.6419L32.4093 29.6785C32.3985 29.6979 32.3878 29.7173 32.3813 29.7324C32.1206 30.2732 31.9633 31.2773 32.6506 31.6759C32.7918 31.7605 32.9567 31.7968 33.1204 31.7794C33.4489 31.7002 33.7484 31.5299 33.9844 31.2881C34.0915 31.1932 34.2053 31.1061 34.3248 31.0274C34.8978 30.692 35.514 30.4368 36.1564 30.2689C36.6613 30.127 37.1763 30.024 37.697 29.9608C38.4795 29.8737 39.267 29.8391 40.0542 29.8574C40.1103 29.8574 40.1641 29.8617 40.2137 29.8638H40.2201C40.3658 29.8933 40.5166 29.8841 40.6576 29.8372C40.7986 29.7904 40.9248 29.7074 41.0238 29.5966C41.2407 29.3171 41.3459 28.9669 41.319 28.6141L41.3126 28.502C41.3054 28.3835 41.2723 28.268 41.2156 28.1637C41.1834 28.1069 41.1393 28.0576 41.0864 28.0194C41.0142 27.9753 40.9337 27.9465 40.85 27.9346C40.7662 27.9228 40.681 27.9281 40.5994 27.9504C40.5628 27.9547 40.5283 27.9612 40.4938 27.9633C40.3925 27.972 40.2913 27.9784 40.19 27.9849C40.0887 27.9914 39.9853 27.9978 39.8862 28.0064C39.1299 28.056 38.3477 28.1056 37.5828 28.1917L37.4729 28.2025C37.1691 28.2348 36.9105 28.2693 36.6886 28.2995C36.9601 28.0883 37.2337 27.8578 37.5052 27.6121C37.5526 27.5712 37.6 27.526 37.6474 27.4807Z" fill="#826EFD"/>
<path d="M39.5952 39.3919H7.38856V11.109H49.7892V23.0785C50.2483 23.0249 50.7102 22.9982 51.1725 22.9988H52.7131C52.9501 22.9988 53.1871 23.0052 53.4242 23.0203V9.14826C54.1238 9.14798 54.7946 8.87009 55.2895 8.37561C55.7844 7.88113 56.0628 7.21047 56.0637 6.51088V6.01746C56.0637 5.31742 55.7856 4.64607 55.2906 4.15106C54.7956 3.65606 54.1242 3.37796 53.4242 3.37793H3.75355C3.05351 3.37796 2.38215 3.65606 1.88715 4.15106C1.39215 4.64607 1.11404 5.31742 1.11401 6.01746V6.5109C1.11486 7.21048 1.3933 7.88114 1.88818 8.37562C2.38307 8.87011 3.05396 9.14799 3.75355 9.14827V40.8205C3.75346 41.1107 3.8106 41.3981 3.92169 41.6662C4.03279 41.9344 4.19566 42.178 4.40099 42.3831C4.60632 42.5883 4.85009 42.7509 5.11833 42.8617C5.38658 42.9726 5.67405 43.0294 5.96429 43.029H40.2976L39.5952 39.3919Z" fill="#826EFD"/>
</svg>
