<svg width="100" height="100" viewBox="0 0 100 100" fill="none" xmlns="http://www.w3.org/2000/svg">
<rect width="100" height="100" rx="20" fill="#CDC5FE" fill-opacity="0.27"/>
<path d="M67.9426 41.2312H67.172C65.8945 41.2314 64.6318 41.505 63.4688 42.0336C62.3058 42.5622 61.2694 43.3336 60.4292 44.296C59.589 45.2583 58.9645 46.3894 58.5976 47.6131C58.2307 48.8368 58.13 50.1248 58.3021 51.3907L59.5996 58.0785C59.9762 60.0147 61.0146 61.7597 62.5368 63.0143C64.0589 64.2689 65.9701 64.955 67.9426 64.955C69.9152 64.955 71.8263 64.2689 73.3485 63.0143C74.8706 61.7597 75.909 60.0147 76.2856 58.0785L77.5831 51.3907C77.7553 50.1248 77.6545 48.8368 77.2876 47.6131C76.9208 46.3894 76.2963 45.2584 75.4561 44.296C74.6159 43.3337 73.5794 42.5623 72.4164 42.0336C71.2534 41.505 69.9907 41.2314 68.7132 41.2312H67.9426Z" fill="#5241BF"/>
<path d="M89.8153 84.263C89.7799 83.4452 89.7328 82.4741 89.6698 81.44C89.5362 79.313 89.3317 76.9304 89.0172 75.0864C88.9942 74.9402 88.9614 74.7957 88.9189 74.6539C88.7505 74.0315 88.4522 73.4518 88.0436 72.9531C87.6349 72.4543 87.1252 72.0477 86.5481 71.7602C83.9139 70.447 79.3453 68.7485 76.2117 67.632C76.1217 67.7566 76.049 67.8928 75.9954 68.0369C74.4031 71.8074 72.8134 75.5792 71.2263 79.3523C71.1752 79.4703 71.128 79.5843 71.0769 79.7022C71.0415 79.7022 70.9707 79.7062 70.9707 79.7062L69.7227 69.8959C69.708 69.7798 69.6514 69.6732 69.5637 69.5959C69.4759 69.5186 69.363 69.4759 69.246 69.4759H66.2436C66.1266 69.4759 66.0137 69.5186 65.9259 69.5959C65.8381 69.6732 65.7816 69.7798 65.7668 69.8959L64.5189 79.7062C64.5189 79.7062 64.4481 79.7022 64.4127 79.7022C64.3616 79.5843 64.3144 79.4703 64.2633 79.3523C62.6749 75.5818 61.0852 71.81 59.4942 68.0369C59.4407 67.8928 59.3679 67.7566 59.2779 67.632C56.1444 68.7485 51.5757 70.447 48.9415 71.7602C48.3644 72.0478 47.8547 72.4543 47.4461 72.9531C47.0374 73.4518 46.7391 74.0315 46.5707 74.6539C46.5282 74.7957 46.4954 74.9402 46.4724 75.0864C46.1579 76.9304 45.9534 79.313 45.8198 81.4401C45.7569 82.4741 45.7097 83.4452 45.6743 84.263C45.6193 85.6745 45.6035 86.622 45.6035 86.622H89.8861C89.8861 86.622 89.8703 85.6745 89.8153 84.263Z" fill="#5241BF"/>
<path d="M37.6834 46.5092C38.0445 46.446 38.3891 46.3101 38.6962 46.11C38.8861 45.9736 38.8768 45.6745 38.8532 45.4615C38.845 45.3929 38.8306 45.3251 38.8104 45.2591C38.7495 45.0424 38.6501 44.8385 38.5168 44.6571C38.4566 44.5784 38.368 44.5262 38.27 44.5117C38.1151 44.5098 37.9624 44.5486 37.8272 44.6243C37.7913 44.6404 37.7572 44.6559 37.7271 44.6672C37.5492 44.7339 37.3708 44.7993 37.192 44.8636C36.8648 44.986 36.5314 45.0914 36.1932 45.1792C36.1653 45.1861 36.1422 45.1913 36.1234 45.1949C36.1172 45.1713 36.1106 45.1471 36.1039 45.1223L36.0957 45.0924C36.0737 44.998 36.0577 44.9024 36.048 44.806C36.0422 44.759 36.0389 44.7117 36.0382 44.6644L36.0269 44.5644C36.0246 44.5184 36.0213 44.4739 36.018 44.4309C36.0147 44.3872 36.0113 44.3451 36.0098 44.3036C36.0079 44.2613 36.005 44.2218 36.0024 44.185C35.9996 44.1471 35.9971 44.1124 35.9954 44.0644C35.9914 44.0288 35.9898 43.9981 35.9884 43.9714C35.9869 43.9452 35.9855 43.9221 35.9832 43.902C35.8441 42.0847 35.8767 40.2584 36.0806 38.4473C36.1004 38.2123 36.1112 37.9803 36.1217 37.7501C36.1313 37.3355 36.1687 36.922 36.2337 36.5124C36.2592 36.3358 36.2978 36.1615 36.3492 35.9907C36.3841 35.8651 36.4104 35.7373 36.4279 35.6081C36.4929 35.2275 36.4479 34.8362 36.2983 34.4802C36.2417 34.348 36.1475 34.2354 36.0274 34.1562C35.9073 34.0771 35.7667 34.035 35.6229 34.0351C35.5664 34.0245 35.5084 34.0248 35.452 34.036C35.1595 34.1115 34.8922 34.2634 34.6776 34.4761C34.6206 34.523 34.5673 34.5668 34.5202 34.6017C34.2988 34.7645 34.0796 34.9332 33.8597 35.1027C33.6591 35.257 33.458 35.412 33.2536 35.5632L33.1946 35.6105C33.0009 35.7534 32.8036 35.8908 32.6055 36.0286L32.3705 36.1927C32.225 36.2959 32.0789 36.3934 31.9326 36.4911C31.8978 36.5144 31.8555 36.5378 31.8116 36.5625C31.6782 36.6252 31.5596 36.7153 31.4635 36.8269C31.3975 36.9156 31.3568 37.0205 31.3457 37.1305C31.3345 37.2404 31.3533 37.3514 31.4 37.4516C31.4827 37.6121 31.6014 37.7513 31.7469 37.8583C31.8924 37.9653 32.0607 38.0371 32.2386 38.068C32.5662 38.091 32.8923 38.0064 33.1674 37.827C33.2834 37.7604 33.3972 37.6872 33.5094 37.615C33.6733 37.503 33.8454 37.4034 34.0243 37.3173C34.0656 37.2991 34.1079 37.2833 34.151 37.27C34.255 37.9616 34.2555 38.6649 34.1523 39.3567C34.1195 39.7027 34.0884 40.0296 34.0796 40.3463C34.0454 41.3734 34.0271 42.4934 34.0237 43.7695C34.0208 44.0649 34.0271 44.3887 34.036 44.7434C34.0387 44.8718 34.0413 45.0008 34.0506 45.1345C34.0582 45.3542 34.0672 45.5839 34.0783 45.8382C34.069 45.8465 34.0583 45.8552 34.0466 45.8647L34.0228 45.8849C33.8505 45.9886 33.6637 46.0663 33.4687 46.1154L33.3498 46.1525C33.2494 46.1856 33.127 46.2159 32.9944 46.2487C32.3694 46.404 31.4251 46.6385 31.52 47.4973C31.5479 47.6499 31.6056 47.7955 31.6899 47.9257C31.7741 48.0559 31.8832 48.1681 32.011 48.2561C32.1582 48.3657 32.3358 48.427 32.5193 48.4314C32.7028 48.4358 32.8831 48.3832 33.0354 48.2808C33.0841 48.2599 33.1333 48.2389 33.1841 48.219L33.3106 48.1677C33.3896 48.1352 33.4686 48.1026 33.5577 48.0714C33.8567 47.9472 34.1619 47.8385 34.4721 47.7457C34.4762 47.7405 34.4936 47.7493 34.5209 47.7665C34.6007 47.8234 34.6736 47.8893 34.7381 47.9631C34.8262 48.0706 34.9356 48.1585 35.0594 48.2214C35.24 48.2758 35.4303 48.2894 35.6168 48.2612C35.9101 48.2351 36.1919 48.1342 36.4351 47.9681C36.522 47.9109 36.5916 47.8312 36.6367 47.7374C36.6817 47.6437 36.7004 47.5395 36.6907 47.4359C36.6837 47.3721 36.667 47.2893 36.6464 47.1902L36.6302 47.1118C36.6173 47.0557 36.6095 47.0075 36.6024 46.965L36.5884 46.8823C36.8664 46.7205 37.1715 46.6103 37.4888 46.557L37.6834 46.5092Z" fill="#5241BF"/>
<path d="M43.8314 41.0929C43.8956 41.0854 43.953 41.0774 43.9957 41.0689C44.0807 41.0664 44.1653 41.0569 44.2487 41.0405C44.6091 40.9703 44.9748 40.9306 45.3419 40.922C45.4254 40.9193 45.512 40.9221 45.5993 40.9246C45.8058 40.9406 46.0135 40.9274 46.2163 40.8853C46.2968 40.8711 46.3735 40.8405 46.4418 40.7956C46.5101 40.7506 46.5685 40.6922 46.6133 40.6239C46.6988 40.4256 46.7023 40.2016 46.623 40.0009C46.5974 39.8425 46.5248 39.6955 46.4148 39.5789C46.3047 39.4622 46.1622 39.3812 46.0057 39.3464C45.5658 39.2754 45.1162 39.2907 44.6822 39.3914C44.4128 39.444 44.1394 39.4732 43.865 39.4788C43.8042 39.4779 43.7456 39.4742 43.6957 39.4704C43.6336 39.1808 43.5865 38.8882 43.5547 38.5938C43.5484 38.5378 43.5467 38.4492 43.5441 38.3414C43.5291 37.7299 43.4892 37.1107 43.1867 36.8466C43.1345 36.8005 43.073 36.766 43.0064 36.7455C42.9398 36.725 42.8696 36.7189 42.8005 36.7276C42.6933 36.7355 42.5891 36.766 42.4946 36.8171C42.4002 36.8681 42.3176 36.9386 42.2523 37.0239C41.9361 37.4507 42.0809 38.2195 42.1971 38.8373C42.2436 39.0432 42.2734 39.2524 42.2863 39.463C42.2853 39.5483 42.2786 39.6334 42.2662 39.7179L42.263 39.7378C42.1246 39.7551 41.9796 39.7767 41.8283 39.8026L41.6472 39.8337C41.264 39.8999 40.8687 39.9694 40.4771 40.004C40.4247 40.0088 40.3568 40.0091 40.2815 40.0098C39.9368 40.0127 39.4645 40.017 39.3113 40.3525C39.2314 40.5107 39.1997 40.6888 39.2202 40.8648C39.2407 41.0408 39.3124 41.2069 39.4266 41.3424C39.557 41.4361 39.7094 41.4945 39.8691 41.5117C40.0288 41.529 40.1902 41.5046 40.3376 41.4408C40.4129 41.4218 40.4892 41.4066 40.566 41.3953C41.0706 41.3344 41.5648 41.2785 42.0558 41.2655C42.1432 41.2635 42.223 41.2576 42.2944 41.2523L42.3174 41.2507L42.3209 41.3448C42.3308 41.6216 42.34 41.8741 42.3428 42.1003L42.3445 42.1439C42.3438 42.1551 42.3442 42.1664 42.3459 42.1775C42.323 42.5993 42.3565 43.0223 42.4455 43.4352C42.5494 43.808 42.8552 43.9691 43.3544 43.9139L43.3587 43.9134C43.4495 43.9122 43.5392 43.8926 43.6222 43.8557C43.7051 43.8188 43.7798 43.7654 43.8414 43.6987C43.884 43.6303 43.912 43.5538 43.9237 43.474C43.9353 43.3943 43.9304 43.313 43.9092 43.2352C43.8936 43.1465 43.8833 43.052 43.8709 42.939L43.8657 42.893C43.805 42.3826 43.7778 41.8687 43.7844 41.3547C43.7962 41.2676 43.8088 41.191 43.8314 41.0929Z" fill="#5241BF"/>
<path d="M53.6474 42.4807C53.6862 42.4441 53.725 42.4075 53.7659 42.3708L53.7724 42.3644C53.9921 42.1511 54.2141 41.9248 54.4252 41.7007C54.4619 41.6662 54.4985 41.6296 54.5351 41.5887L54.5933 41.524C55.1309 40.9407 55.6257 40.3192 56.0736 39.6645C56.358 39.253 56.6037 38.8716 56.8256 38.4988L56.9463 38.2963C57.4812 37.5683 57.7899 36.699 57.834 35.7967C57.823 35.5828 57.7869 35.3709 57.7263 35.1654C57.327 34.0106 56.4918 33.0578 55.3992 32.5108C55.0468 32.329 54.6691 32.2012 54.2787 32.1316C53.1899 31.9658 52.0778 32.1976 51.1458 32.7845C51.1089 32.8023 51.0736 32.8232 51.0402 32.8469C50.6089 33.0942 50.1969 33.3736 49.8077 33.683L49.7754 33.7067L49.7581 33.7455C49.6631 33.9559 49.6448 34.193 49.7064 34.4156C49.7687 34.6803 49.9109 34.9195 50.1137 35.1008C50.2132 35.1988 50.3349 35.2714 50.4684 35.3127C50.6018 35.3539 50.7433 35.3625 50.8807 35.3378L50.926 35.3292L50.9605 35.299C51.0273 35.2409 51.1005 35.1805 51.1738 35.1245C51.407 34.9275 51.6524 34.7454 51.9086 34.5793L51.9473 34.5535C51.9635 34.5451 51.9786 34.535 51.9926 34.5233C52.239 34.3616 52.5065 34.2347 52.7877 34.1462C52.897 34.1175 53.0089 34.0995 53.1217 34.0924C53.4706 34.0785 53.8179 34.1474 54.1351 34.2935C54.4523 34.4395 54.7304 34.6586 54.9467 34.9327C55.1544 35.19 55.297 35.4935 55.3626 35.8175C55.4283 36.1415 55.415 36.4766 55.3238 36.7944C54.8858 37.9803 54.2164 39.0672 53.3544 39.992C53.1756 40.2096 52.9903 40.4294 52.7985 40.6427C52.5485 40.9207 52.2878 41.1943 52.0249 41.4529C51.5147 41.9487 50.96 42.3966 50.368 42.791C50.1094 42.9612 49.8724 43.1185 49.6526 43.278C49.1506 43.6392 48.7324 44.1044 48.4266 44.6419L48.4093 44.6785C48.3985 44.6979 48.3878 44.7173 48.3813 44.7324C48.1206 45.2732 47.9633 46.2773 48.6506 46.6759C48.7918 46.7605 48.9567 46.7968 49.1204 46.7794C49.4489 46.7002 49.7484 46.5299 49.9844 46.2881C50.0915 46.1932 50.2053 46.1061 50.3248 46.0274C50.8978 45.692 51.514 45.4368 52.1564 45.2689C52.6613 45.127 53.1763 45.024 53.697 44.9608C54.4795 44.8737 55.267 44.8391 56.0542 44.8574C56.1103 44.8574 56.1641 44.8617 56.2137 44.8638H56.2201C56.3658 44.8933 56.5166 44.8841 56.6576 44.8372C56.7986 44.7904 56.9248 44.7074 57.0238 44.5966C57.2407 44.3171 57.3459 43.9669 57.319 43.6141L57.3126 43.502C57.3054 43.3835 57.2723 43.268 57.2156 43.1637C57.1834 43.1069 57.1393 43.0576 57.0864 43.0194C57.0142 42.9753 56.9337 42.9465 56.85 42.9346C56.7662 42.9228 56.681 42.9281 56.5994 42.9504C56.5628 42.9547 56.5283 42.9612 56.4938 42.9633C56.3925 42.972 56.2913 42.9784 56.19 42.9849C56.0887 42.9914 55.9853 42.9978 55.8862 43.0064C55.1299 43.056 54.3477 43.1056 53.5828 43.1917L53.4729 43.2025C53.1691 43.2348 52.9105 43.2693 52.6886 43.2995C52.9601 43.0883 53.2337 42.8578 53.5052 42.6121C53.5526 42.5712 53.6 42.526 53.6474 42.4807Z" fill="#5241BF"/>
<path d="M55.5952 54.3919H23.3886V26.109H65.7892V38.0785C66.2483 38.0249 66.7102 37.9982 67.1725 37.9988H68.7131C68.9501 37.9988 69.1871 38.0052 69.4242 38.0203V24.1483C70.1238 24.148 70.7946 23.8701 71.2895 23.3756C71.7844 22.8811 72.0628 22.2105 72.0637 21.5109V21.0175C72.0637 20.3174 71.7856 19.6461 71.2906 19.1511C70.7956 18.6561 70.1242 18.378 69.4242 18.3779H19.7535C19.0535 18.378 18.3822 18.6561 17.8871 19.1511C17.3921 19.6461 17.114 20.3174 17.114 21.0175V21.5109C17.1149 22.2105 17.3933 22.8811 17.8882 23.3756C18.3831 23.8701 19.054 24.148 19.7535 24.1483V55.8205C19.7535 56.1107 19.8106 56.3981 19.9217 56.6662C20.0328 56.9344 20.1957 57.178 20.401 57.3831C20.6063 57.5883 20.8501 57.7509 21.1183 57.8617C21.3866 57.9726 21.674 58.0294 21.9643 58.029H56.2976L55.5952 54.3919Z" fill="#5241BF"/>
</svg>
