<svg width="25" height="25" viewBox="0 0 25 25" fill="none" xmlns="http://www.w3.org/2000/svg">
<path d="M3.61133 1.26953C1.89271 1.26953 0.769043 2.39806 0.769043 3.88136C0.769043 5.3319 1.85924 6.49262 3.54538 6.49262H3.57799C5.33023 6.49262 6.42071 5.3319 6.42071 3.88136C6.38795 2.39806 5.33023 1.26953 3.61133 1.26953Z" fill="#2D2D2D"/>
<path d="M1.06592 8.5564H6.09016V23.672H1.06592V8.5564Z" fill="#2D2D2D"/>
<path d="M18.4219 8.2019C15.7115 8.2019 13.894 10.7488 13.894 10.7488V8.55667H8.86963V23.6723H13.8937V15.2312C13.8937 14.7793 13.9265 14.3281 14.0592 14.0049C14.4224 13.1025 15.249 12.1677 16.637 12.1677C18.4551 12.1677 19.1822 13.5539 19.1822 15.5859V23.6723H24.206V15.0053C24.206 10.3624 21.7272 8.2019 18.4219 8.2019Z" fill="#2D2D2D"/>
</svg>
