<svg width="75" height="75" viewBox="0 0 75 75" fill="none" xmlns="http://www.w3.org/2000/svg">
<g clip-path="url(#clip0)">
<path d="M5.08496 55.8362V67.9935C5.08496 68.7332 5.6859 69.3495 6.44092 69.3495H15.8401C16.5798 69.3495 17.1961 68.7486 17.1961 67.9935V46.6064L10.3701 53.4324C8.9217 54.8654 7.07267 55.6975 5.08496 55.8362Z" fill="#826EFD"/>
<path d="M21.8804 46.4524V67.9936C21.8804 68.7332 22.4813 69.3495 23.2363 69.3495H32.6356C33.3752 69.3495 33.9915 68.7486 33.9915 67.9936V55.3123C31.8497 55.2661 29.8466 54.4186 28.3366 52.9086L21.8804 46.4524Z" fill="#826EFD"/>
<path d="M38.6753 53.9719V67.9937C38.6753 68.7333 39.2762 69.3496 40.0312 69.3496H49.4305C50.1701 69.3496 50.7864 68.7487 50.7864 67.9937V42.1227L40.0158 52.8933C39.5998 53.3093 39.153 53.6637 38.6753 53.9719Z" fill="#826EFD"/>
<path d="M66.6727 26.2209L55.4707 37.423V67.9936C55.4707 68.7332 56.0716 69.3495 56.8267 69.3495H66.2259C66.9655 69.3495 67.5818 68.7486 67.5818 67.9936V27.0684C67.2737 26.8065 67.0425 26.5753 66.8731 26.4213L66.6727 26.2209Z" fill="#826EFD"/>
<path d="M74.3617 6.37472C73.9149 5.89705 73.2369 5.65051 72.374 5.65051C72.297 5.65051 72.2046 5.65051 72.1275 5.65051C67.7515 5.85082 63.3909 6.06654 59.0148 6.26686C58.4293 6.29767 57.628 6.32849 56.9963 6.96024C56.796 7.16055 56.6419 7.39168 56.5186 7.66904C55.8715 9.07122 56.7806 9.98032 57.212 10.4118L58.306 11.5212C59.061 12.2916 59.8315 13.062 60.6019 13.8171L34.1608 40.2736L22.2808 28.3936C21.572 27.6848 20.6167 27.2841 19.5997 27.2841C18.5827 27.2841 17.6428 27.6848 16.934 28.3936L1.10942 44.2028C-0.369806 45.682 -0.369806 48.0703 1.10942 49.5495L1.81821 50.2583C2.52701 50.9671 3.48234 51.3678 4.4993 51.3678C5.51627 51.3678 6.45619 50.9671 7.16498 50.2583L19.5997 37.8236L31.4797 49.7036C32.1885 50.4124 33.1438 50.813 34.1608 50.813C35.1778 50.813 36.1177 50.4124 36.8419 49.7036L66.6729 19.8726L70.0473 23.2317C70.448 23.6323 71.0027 24.187 71.8502 24.187C72.2046 24.187 72.5589 24.0946 72.9287 23.8943C73.1753 23.7556 73.391 23.6015 73.5759 23.4166C74.2385 22.754 74.3617 21.9066 74.3926 21.244C74.5158 18.4088 74.6545 15.5736 74.7932 12.723L74.9935 8.45487C75.0397 7.56118 74.8394 6.86779 74.3617 6.37472Z" fill="#826EFD"/>
</g>
<defs>
<clipPath id="clip0">
<rect width="75" height="75" fill="white"/>
</clipPath>
</defs>
</svg>
