<svg width="100" height="100" viewBox="0 0 100 100" fill="none" xmlns="http://www.w3.org/2000/svg">
<rect width="100" height="100" rx="20" fill="#CDC5FE" fill-opacity="0.27"/>
<g clip-path="url(#clip0)">
<path d="M21.085 70.8362V82.9935C21.085 83.7332 21.6859 84.3495 22.4409 84.3495H31.8401C32.5798 84.3495 33.1961 83.7486 33.1961 82.9935V61.6064L26.3701 68.4324C24.9217 69.8654 23.0727 70.6975 21.085 70.8362Z" fill="#5241BF"/>
<path d="M37.8804 61.4524V82.9936C37.8804 83.7332 38.4813 84.3495 39.2363 84.3495H48.6356C49.3752 84.3495 49.9915 83.7486 49.9915 82.9936V70.3123C47.8497 70.2661 45.8466 69.4186 44.3366 67.9086L37.8804 61.4524Z" fill="#5241BF"/>
<path d="M54.6753 68.9719V82.9937C54.6753 83.7333 55.2762 84.3496 56.0312 84.3496H65.4305C66.1701 84.3496 66.7864 83.7487 66.7864 82.9937V57.1227L56.0158 67.8933C55.5998 68.3093 55.153 68.6637 54.6753 68.9719Z" fill="#5241BF"/>
<path d="M82.6727 41.2209L71.4707 52.423V82.9936C71.4707 83.7332 72.0716 84.3495 72.8267 84.3495H82.2259C82.9655 84.3495 83.5818 83.7486 83.5818 82.9936V42.0684C83.2737 41.8065 83.0425 41.5753 82.8731 41.4213L82.6727 41.2209Z" fill="#5241BF"/>
<path d="M90.3617 21.3747C89.9149 20.897 89.2369 20.6505 88.374 20.6505C88.297 20.6505 88.2046 20.6505 88.1275 20.6505C83.7515 20.8508 79.3909 21.0665 75.0148 21.2669C74.4293 21.2977 73.628 21.3285 72.9963 21.9602C72.796 22.1606 72.6419 22.3917 72.5186 22.669C71.8715 24.0712 72.7806 24.9803 73.212 25.4118L74.306 26.5212C75.061 27.2916 75.8315 28.062 76.6019 28.8171L50.1608 55.2736L38.2808 43.3936C37.572 42.6848 36.6167 42.2841 35.5997 42.2841C34.5827 42.2841 33.6428 42.6848 32.934 43.3936L17.1094 59.2028C15.6302 60.682 15.6302 63.0703 17.1094 64.5495L17.8182 65.2583C18.527 65.9671 19.4823 66.3678 20.4993 66.3678C21.5163 66.3678 22.4562 65.9671 23.165 65.2583L35.5997 52.8236L47.4797 64.7036C48.1885 65.4124 49.1438 65.813 50.1608 65.813C51.1778 65.813 52.1177 65.4124 52.8419 64.7036L82.6729 34.8726L86.0473 38.2317C86.448 38.6323 87.0027 39.187 87.8502 39.187C88.2046 39.187 88.5589 39.0946 88.9287 38.8943C89.1753 38.7556 89.391 38.6015 89.5759 38.4166C90.2385 37.754 90.3617 36.9066 90.3926 36.244C90.5158 33.4088 90.6545 30.5736 90.7932 27.723L90.9935 23.4549C91.0397 22.5612 90.8394 21.8678 90.3617 21.3747Z" fill="#5241BF"/>
</g>
<defs>
<clipPath id="clip0">
<rect width="75" height="75" fill="white" transform="translate(16 15)"/>
</clipPath>
</defs>
</svg>
