<svg width="109" height="171" viewBox="0 0 109 171" fill="none" xmlns="http://www.w3.org/2000/svg">
<g opacity="0.4">
<rect x="23.2036" y="0.000610352" width="7.8244" height="7.8244" rx="3.9122" transform="rotate(45 23.2036 0.000610352)" fill="#826EFD"/>
<rect x="3.28589" y="19.9177" width="7.8244" height="7.8244" rx="3.9122" transform="rotate(45 3.28589 19.9177)" fill="#826EFD"/>
<rect x="43.1213" y="19.9177" width="7.8244" height="7.8244" rx="3.9122" transform="rotate(45 43.1213 19.9177)" fill="#826EFD"/>
<rect x="23.2036" y="39.8353" width="7.8244" height="7.8244" rx="3.9122" transform="rotate(45 23.2036 39.8353)" fill="#826EFD"/>
<rect x="3.28613" y="59.7531" width="7.8244" height="7.8244" rx="3.9122" transform="rotate(45 3.28613 59.7531)" fill="#826EFD"/>
<rect x="63.0388" y="39.8353" width="7.8244" height="7.8244" rx="3.9122" transform="rotate(45 63.0388 39.8353)" fill="#826EFD"/>
<rect x="43.1213" y="59.7531" width="7.8244" height="7.8244" rx="3.9122" transform="rotate(45 43.1213 59.7531)" fill="#826EFD"/>
<rect x="23.2036" y="79.6707" width="7.8244" height="7.8244" rx="3.9122" transform="rotate(45 23.2036 79.6707)" fill="#826EFD"/>
<rect x="3.28589" y="99.5884" width="7.8244" height="7.8244" rx="3.9122" transform="rotate(45 3.28589 99.5884)" fill="#826EFD"/>
<rect x="82.9565" y="59.7531" width="7.8244" height="7.8244" rx="3.9122" transform="rotate(45 82.9565 59.7531)" fill="#826EFD"/>
<rect x="63.0388" y="79.6707" width="7.8244" height="7.8244" rx="3.9122" transform="rotate(45 63.0388 79.6707)" fill="#826EFD"/>
<rect x="43.1213" y="99.5884" width="7.8244" height="7.8244" rx="3.9122" transform="rotate(45 43.1213 99.5884)" fill="#826EFD"/>
<rect x="23.2036" y="119.506" width="7.8244" height="7.8244" rx="3.9122" transform="rotate(45 23.2036 119.506)" fill="#826EFD"/>
<rect x="3.28589" y="139.424" width="7.8244" height="7.8244" rx="3.9122" transform="rotate(45 3.28589 139.424)" fill="#826EFD"/>
<rect x="102.874" y="79.6708" width="7.8244" height="7.8244" rx="3.9122" transform="rotate(45 102.874 79.6708)" fill="#826EFD"/>
<rect x="82.9565" y="99.5884" width="7.8244" height="7.8244" rx="3.9122" transform="rotate(45 82.9565 99.5884)" fill="#826EFD"/>
<rect x="63.0391" y="119.506" width="7.8244" height="7.8244" rx="3.9122" transform="rotate(45 63.0391 119.506)" fill="#826EFD"/>
<rect x="43.1213" y="139.424" width="7.8244" height="7.8244" rx="3.9122" transform="rotate(45 43.1213 139.424)" fill="#826EFD"/>
<rect x="23.2036" y="159.341" width="7.8244" height="7.8244" rx="3.9122" transform="rotate(45 23.2036 159.341)" fill="#826EFD"/>
</g>
</svg>
