<svg width="227" height="64" viewBox="0 0 227 64" fill="none" xmlns="http://www.w3.org/2000/svg">
<path d="M64.417 38.166C63.457 38.166 62.6037 38.046 61.857 37.806C61.1103 37.566 60.4103 37.1594 59.757 36.586C59.397 36.266 59.217 35.9127 59.217 35.526C59.217 35.2194 59.3303 34.9527 59.557 34.726C59.7837 34.486 60.057 34.366 60.377 34.366C60.6303 34.366 60.857 34.446 61.057 34.606C61.5903 35.046 62.1103 35.366 62.617 35.566C63.1237 35.766 63.7237 35.866 64.417 35.866C65.1637 35.866 65.8037 35.6994 66.337 35.366C66.8837 35.0327 67.157 34.6194 67.157 34.126C67.157 33.526 66.8903 33.0594 66.357 32.726C65.8237 32.3794 64.977 32.1194 63.817 31.946C60.897 31.5194 59.437 30.1594 59.437 27.866C59.437 27.026 59.657 26.2994 60.097 25.686C60.537 25.0594 61.137 24.586 61.897 24.266C62.657 23.9327 63.5037 23.766 64.437 23.766C65.277 23.766 66.0637 23.8927 66.797 24.146C67.5437 24.3994 68.1637 24.7327 68.657 25.146C69.0437 25.4527 69.237 25.806 69.237 26.206C69.237 26.5127 69.1237 26.786 68.897 27.026C68.6703 27.2527 68.4037 27.366 68.097 27.366C67.897 27.366 67.717 27.306 67.557 27.186C67.2103 26.906 66.7237 26.6527 66.097 26.426C65.4837 26.186 64.9303 26.066 64.437 26.066C63.597 26.066 62.9437 26.226 62.477 26.546C62.0237 26.8527 61.797 27.2594 61.797 27.766C61.797 28.3394 62.0303 28.7727 62.497 29.066C62.977 29.3594 63.7237 29.5994 64.737 29.786C65.8837 29.986 66.797 30.246 67.477 30.566C68.1703 30.8727 68.6903 31.2994 69.037 31.846C69.3837 32.3794 69.557 33.0927 69.557 33.986C69.557 34.826 69.317 35.566 68.837 36.206C68.3703 36.8327 67.7437 37.3194 66.957 37.666C66.1703 37.9994 65.3237 38.166 64.417 38.166ZM81.0506 23.966C81.4106 23.966 81.7039 24.0727 81.9306 24.286C82.1573 24.4994 82.2706 24.7794 82.2706 25.126C82.2706 25.4727 82.1573 25.7527 81.9306 25.966C81.7039 26.166 81.4106 26.266 81.0506 26.266H77.9106V36.746C77.9106 37.0927 77.7839 37.386 77.5306 37.626C77.2773 37.8527 76.9639 37.966 76.5906 37.966C76.2173 37.966 75.9106 37.8527 75.6706 37.626C75.4306 37.386 75.3106 37.0927 75.3106 36.746V26.266H72.1706C71.8106 26.266 71.5173 26.1594 71.2906 25.946C71.0639 25.7327 70.9506 25.4527 70.9506 25.106C70.9506 24.7727 71.0639 24.4994 71.2906 24.286C71.5306 24.0727 71.8239 23.966 72.1706 23.966H81.0506ZM92.2901 35.666C92.6368 35.666 92.9235 35.786 93.1501 36.026C93.3901 36.2527 93.5101 36.5194 93.5101 36.826C93.5101 37.1594 93.3901 37.4327 93.1501 37.646C92.9235 37.8594 92.6368 37.966 92.2901 37.966H85.5901C85.2435 37.966 84.9501 37.8527 84.7101 37.626C84.4835 37.386 84.3701 37.0927 84.3701 36.746V25.186C84.3701 24.8394 84.4835 24.5527 84.7101 24.326C84.9501 24.086 85.2435 23.966 85.5901 23.966H92.2901C92.6368 23.966 92.9235 24.0794 93.1501 24.306C93.3901 24.5194 93.5101 24.7994 93.5101 25.146C93.5101 25.4794 93.3968 25.7527 93.1701 25.966C92.9435 26.166 92.6501 26.266 92.2901 26.266H86.8701V29.666H91.3901C91.7368 29.666 92.0235 29.7794 92.2501 30.006C92.4901 30.2194 92.6101 30.4994 92.6101 30.846C92.6101 31.1794 92.4968 31.4527 92.2701 31.666C92.0435 31.866 91.7501 31.966 91.3901 31.966H86.8701V35.666H92.2901ZM107.955 23.946C108.289 23.946 108.575 24.066 108.815 24.306C109.069 24.5327 109.195 24.8194 109.195 25.166V36.746C109.195 37.0927 109.082 37.386 108.855 37.626C108.629 37.8527 108.329 37.966 107.955 37.966C107.582 37.966 107.275 37.8527 107.035 37.626C106.809 37.3994 106.695 37.106 106.695 36.746V28.686L103.395 33.726C103.262 33.886 103.109 34.0194 102.935 34.126C102.762 34.2194 102.582 34.2594 102.395 34.246C102.222 34.2594 102.049 34.2194 101.875 34.126C101.702 34.0194 101.549 33.886 101.415 33.726L98.1154 28.506V36.746C98.1154 37.106 98.0088 37.3994 97.7954 37.626C97.5821 37.8527 97.3021 37.966 96.9554 37.966C96.6221 37.966 96.3488 37.8527 96.1354 37.626C95.9221 37.386 95.8154 37.0927 95.8154 36.746V25.166C95.8154 24.8327 95.9354 24.546 96.1754 24.306C96.4288 24.066 96.7288 23.946 97.0754 23.946C97.2754 23.946 97.4754 23.9994 97.6754 24.106C97.8754 24.1994 98.0288 24.326 98.1354 24.486L102.495 31.186L106.975 24.486C107.082 24.326 107.222 24.1994 107.395 24.106C107.582 23.9994 107.769 23.946 107.955 23.946ZM112.922 33.026C112.575 33.026 112.282 32.9127 112.042 32.686C111.815 32.4594 111.702 32.1727 111.702 31.826C111.702 31.4927 111.815 31.2127 112.042 30.986C112.282 30.7594 112.575 30.646 112.922 30.646H116.402C116.749 30.646 117.035 30.766 117.262 31.006C117.502 31.2327 117.622 31.5194 117.622 31.866C117.622 32.1994 117.502 32.4794 117.262 32.706C117.035 32.9194 116.749 33.026 116.402 33.026H112.922ZM125.472 27.066C126.392 27.066 127.225 27.306 127.972 27.786C128.719 28.2527 129.305 28.906 129.732 29.746C130.172 30.586 130.392 31.5394 130.392 32.606C130.392 33.6727 130.179 34.6327 129.752 35.486C129.325 36.326 128.739 36.986 127.992 37.466C127.259 37.9327 126.445 38.166 125.552 38.166C124.912 38.166 124.305 38.0394 123.732 37.786C123.172 37.5194 122.705 37.1994 122.332 36.826V36.946C122.332 37.2927 122.219 37.586 121.992 37.826C121.765 38.0527 121.479 38.166 121.132 38.166C120.785 38.166 120.499 38.0527 120.272 37.826C120.045 37.5994 119.932 37.306 119.932 36.946V24.386C119.932 24.0394 120.045 23.7527 120.272 23.526C120.499 23.286 120.785 23.166 121.132 23.166C121.479 23.166 121.765 23.286 121.992 23.526C122.219 23.7527 122.332 24.0394 122.332 24.386V28.566C122.652 28.166 123.099 27.8194 123.672 27.526C124.245 27.2194 124.845 27.066 125.472 27.066ZM125.172 35.966C126.025 35.966 126.725 35.646 127.272 35.006C127.819 34.366 128.092 33.566 128.092 32.606C128.092 31.646 127.819 30.8527 127.272 30.226C126.739 29.586 126.039 29.266 125.172 29.266C124.305 29.266 123.599 29.586 123.052 30.226C122.505 30.8527 122.232 31.646 122.232 32.606C122.232 33.566 122.505 34.366 123.052 35.006C123.599 35.646 124.305 35.966 125.172 35.966ZM142.673 32.626C142.673 33.6927 142.433 34.6527 141.953 35.506C141.473 36.346 140.813 36.9994 139.973 37.466C139.146 37.9327 138.233 38.166 137.233 38.166C136.219 38.166 135.299 37.9327 134.473 37.466C133.646 36.9994 132.993 36.346 132.513 35.506C132.033 34.6527 131.793 33.6927 131.793 32.626C131.793 31.5594 132.033 30.606 132.513 29.766C132.993 28.9127 133.646 28.2527 134.473 27.786C135.299 27.306 136.219 27.066 137.233 27.066C138.233 27.066 139.146 27.306 139.973 27.786C140.813 28.2527 141.473 28.9127 141.953 29.766C142.433 30.606 142.673 31.5594 142.673 32.626ZM140.273 32.626C140.273 31.9727 140.133 31.3927 139.853 30.886C139.586 30.366 139.219 29.966 138.753 29.686C138.299 29.406 137.793 29.266 137.233 29.266C136.673 29.266 136.159 29.406 135.693 29.686C135.239 29.966 134.873 30.366 134.593 30.886C134.326 31.3927 134.193 31.9727 134.193 32.626C134.193 33.2794 134.326 33.8594 134.593 34.366C134.873 34.8727 135.239 35.266 135.693 35.546C136.159 35.826 136.673 35.966 137.233 35.966C137.793 35.966 138.299 35.826 138.753 35.546C139.219 35.266 139.586 34.8727 139.853 34.366C140.133 33.8594 140.273 33.2794 140.273 32.626ZM152.618 27.266C152.965 27.266 153.251 27.386 153.478 27.626C153.705 27.8527 153.818 28.1394 153.818 28.486V33.566C153.818 35.006 153.418 36.1327 152.618 36.946C151.831 37.7594 150.705 38.166 149.238 38.166C147.771 38.166 146.645 37.7594 145.858 36.946C145.071 36.1327 144.678 35.006 144.678 33.566V28.486C144.678 28.1394 144.791 27.8527 145.018 27.626C145.245 27.386 145.531 27.266 145.878 27.266C146.225 27.266 146.511 27.386 146.738 27.626C146.965 27.8527 147.078 28.1394 147.078 28.486V33.566C147.078 34.3794 147.258 34.986 147.618 35.386C147.978 35.7727 148.518 35.966 149.238 35.966C149.971 35.966 150.518 35.7727 150.878 35.386C151.238 34.986 151.418 34.3794 151.418 33.566V28.486C151.418 28.1394 151.531 27.8527 151.758 27.626C151.985 27.386 152.271 27.266 152.618 27.266ZM162.136 27.066C163.496 27.066 164.436 27.4727 164.956 28.286C165.476 29.086 165.736 30.1994 165.736 31.626V36.746C165.736 37.0927 165.623 37.386 165.396 37.626C165.17 37.8527 164.883 37.966 164.536 37.966C164.19 37.966 163.903 37.8527 163.676 37.626C163.45 37.386 163.336 37.0927 163.336 36.746V31.626C163.336 30.8927 163.183 30.3194 162.876 29.906C162.57 29.4794 162.043 29.266 161.296 29.266C160.523 29.266 159.916 29.4927 159.476 29.946C159.036 30.386 158.816 30.946 158.816 31.626V36.746C158.816 37.0927 158.703 37.386 158.476 37.626C158.25 37.8527 157.963 37.966 157.616 37.966C157.27 37.966 156.983 37.8527 156.756 37.626C156.53 37.386 156.416 37.0927 156.416 36.746V28.486C156.416 28.1394 156.53 27.8527 156.756 27.626C156.983 27.386 157.27 27.266 157.616 27.266C157.963 27.266 158.25 27.386 158.476 27.626C158.703 27.8527 158.816 28.1394 158.816 28.486V28.826C159.176 28.346 159.643 27.9327 160.216 27.586C160.803 27.2394 161.443 27.066 162.136 27.066ZM176.99 23.166C177.337 23.166 177.624 23.2794 177.85 23.506C178.077 23.7327 178.19 24.026 178.19 24.386V36.746C178.19 37.0927 178.077 37.386 177.85 37.626C177.624 37.8527 177.337 37.966 176.99 37.966C176.644 37.966 176.357 37.8527 176.13 37.626C175.917 37.3994 175.804 37.1127 175.79 36.766C175.457 37.1527 175.004 37.486 174.43 37.766C173.87 38.0327 173.277 38.166 172.65 38.166C171.73 38.166 170.897 37.9327 170.15 37.466C169.404 36.986 168.81 36.326 168.37 35.486C167.944 34.646 167.73 33.6927 167.73 32.626C167.73 31.5594 167.944 30.606 168.37 29.766C168.797 28.9127 169.377 28.2527 170.11 27.786C170.857 27.306 171.677 27.066 172.57 27.066C173.21 27.066 173.81 27.186 174.37 27.426C174.93 27.6527 175.404 27.946 175.79 28.306V24.386C175.79 24.0394 175.904 23.7527 176.13 23.526C176.357 23.286 176.644 23.166 176.99 23.166ZM172.95 35.966C173.817 35.966 174.524 35.6527 175.07 35.026C175.617 34.386 175.89 33.586 175.89 32.626C175.89 31.666 175.617 30.866 175.07 30.226C174.524 29.586 173.817 29.266 172.95 29.266C172.097 29.266 171.397 29.586 170.85 30.226C170.304 30.866 170.03 31.666 170.03 32.626C170.03 33.586 170.297 34.386 170.83 35.026C171.377 35.6527 172.084 35.966 172.95 35.966Z" fill="#424242"/>
<path d="M43.5636 34.6812C44.3886 35.4157 44.4104 36.6302 43.6124 37.3939L31.1674 49.3032C30.7751 49.6787 30.2346 49.8912 29.6702 49.8918L4.8907 49.9195C3.0574 49.9216 2.12576 47.8909 3.40039 46.6711L27.8029 23.3189C28.6009 22.5552 29.9167 22.5315 30.7417 23.266L43.5636 34.6812Z" fill="#6C57EB"/>
<path d="M8.33252 29.2645C7.50908 28.5283 7.4898 27.3138 8.28945 26.5518L20.7623 14.6664C21.1554 14.2918 21.6962 14.0805 22.2605 14.081L47.039 14.1019C48.8725 14.1034 49.8001 16.1362 48.5228 17.3534L24.0665 40.6578C23.2668 41.4198 21.9511 41.4406 21.1276 40.7044L8.33252 29.2645Z" fill="#826EFD"/>
</svg>
