<svg width="455" height="342" viewBox="0 0 455 342" fill="none" xmlns="http://www.w3.org/2000/svg">
<g clip-path="url(#clip0)">
<path opacity="0.18" d="M202.292 339.986C259.69 338.263 319.82 335.799 369.423 306.998C392.999 293.313 414.887 270.142 413.089 243.003C411.311 216.176 387.976 196.851 369.614 177.146C342.933 148.375 324.303 113.117 315.591 74.9036C308.941 45.5112 283.678 16.6998 255.32 6.31131C231.302 -2.48438 204.683 -0.88152 179.54 3.82688C165.697 6.4215 151.926 9.95781 139.238 16.0587C98.415 35.6737 74.5076 78.8407 59.3897 121.447C38.767 179.55 30.1382 245.818 56.1752 301.768C60.3339 310.704 65.477 319.44 73.0511 325.811C84.5025 335.308 99.9519 338.213 114.769 339.966C147.727 343.793 169.133 340.978 202.292 339.986Z" fill="#5242B0"/>
<path d="M167.928 341.99C216.826 341.99 256.465 334.406 256.465 325.05C256.465 315.694 216.826 308.11 167.928 308.11C119.029 308.11 79.3896 315.694 79.3896 325.05C79.3896 334.406 119.029 341.99 167.928 341.99Z" fill="url(#paint0_linear)"/>
<path d="M414.987 16.4093H104.914V197.943H414.987V16.4093Z" fill="#5242B0"/>
<path d="M405.565 25.4955H114.547V187.585H405.565V25.4955Z" fill="url(#paint1_linear)"/>
<path d="M179.58 197.763C179.58 197.763 190.468 176.906 196.134 167.349C201.799 157.791 202.493 151.44 202.493 151.44L188.349 157.691C188.349 157.691 182.322 187.995 176.707 180.151C171.091 172.307 175.702 171.366 175.702 171.366C175.702 171.366 175.27 160.727 174.698 157.471C174.125 154.215 168.992 136.073 162.643 135.492C156.295 134.911 154.808 133.488 154.808 133.488C154.808 133.488 155.682 128.85 157.42 128.559C159.117 128.134 160.772 127.554 162.362 126.826L165.265 117.81L165.557 109.405C165.557 109.405 166.712 104.196 167.877 103.034C169.042 101.872 172.227 84.5709 163.085 81.3151C153.944 78.0592 144.13 96.3419 144.13 96.3419L129.555 111.92L132.568 139.569C129.547 140.262 126.778 141.781 124.575 143.955C122.371 146.13 120.818 148.875 120.092 151.881C117.28 162.56 113.794 184.81 113.794 184.81L115.261 190.46L115.974 196.47L179.58 197.763Z" fill="url(#paint2_linear)"/>
<path d="M132.056 317.907C131.899 319.11 131.599 320.29 131.162 321.423C130.391 323.652 129.166 325.698 127.566 327.434C125.949 329.181 123.792 330.337 121.439 330.72C120.215 330.954 118.948 330.736 117.873 330.109C117.224 329.651 116.686 329.056 116.295 328.366C115.761 327.5 115.418 326.53 115.291 325.52C115.08 323.617 115.884 321.754 116.677 320.011L119.56 313.649C119.868 312.856 120.31 312.121 120.866 311.475C121.536 310.828 122.343 310.339 123.227 310.043C124.556 309.465 125.996 309.182 127.446 309.211C128.993 309.292 130.851 309.983 131.464 311.465C132.159 313.538 132.362 315.743 132.056 317.907Z" fill="#5242B0"/>
<path d="M138.144 309.372C136.927 311.78 136.637 314.549 137.33 317.156C137.827 318.52 138.247 319.911 138.586 321.323C138.701 322.379 138.701 323.443 138.586 324.499C138.541 324.734 138.546 324.976 138.602 325.209C138.657 325.442 138.761 325.661 138.907 325.851C139.128 326.021 139.402 326.106 139.68 326.091C139.959 326.077 140.222 325.963 140.424 325.771C140.815 325.376 141.101 324.891 141.258 324.359L142.503 321.173C142.584 320.972 142.704 320.732 142.915 320.692C143.096 320.686 143.273 320.75 143.407 320.872C144.984 322.136 146.623 323.319 148.319 324.419C150.03 325.516 152.02 326.104 154.055 326.112C155.755 325.946 157.414 325.489 158.957 324.759C159.871 324.389 160.906 323.908 161.187 322.966C161.27 322.602 161.261 322.222 161.161 321.862C161.061 321.502 160.873 321.173 160.615 320.902C160.095 320.362 159.491 319.908 158.826 319.56C155.521 317.557 152.401 315.264 149.505 312.708C148.985 312.205 148.392 311.782 147.747 311.456C146.894 311.169 146.004 311.007 145.105 310.975C143.381 310.76 141.731 310.149 140.283 309.191C139.751 308.801 138.525 308.61 138.144 309.372Z" fill="#5242B0"/>
<path d="M121.508 311.546C120.695 313.88 119.58 316.154 119.419 318.608C119.338 319.263 119.446 319.926 119.731 320.522C120.006 320.928 120.373 321.264 120.802 321.504C121.231 321.744 121.71 321.881 122.202 321.904C123.529 321.976 124.853 321.697 126.037 321.093C127.221 320.489 128.223 319.584 128.942 318.468C130.352 316.214 131.146 313.63 131.242 310.975C131.463 308.34 131.303 305.675 131.644 303.051C136.014 269.451 134.929 260.755 134.658 259.793C134.145 257.79 131.855 256.908 129.826 256.588C127.626 256.237 122.644 256.267 122.332 258.872C121.991 261.787 122.332 264.121 122.483 267.056C122.734 273.808 122.794 307.839 121.508 311.546Z" fill="#BB826C"/>
<path d="M140.273 272.095C140.213 275.551 139.891 278.998 139.66 282.444C139.068 290.879 138.957 299.354 138.847 307.809C138.753 309.18 138.885 310.558 139.239 311.886C139.82 313.332 140.696 314.642 141.81 315.733C142.531 316.65 143.416 317.424 144.422 318.017C144.913 318.295 145.475 318.419 146.037 318.374C146.6 318.33 147.136 318.118 147.576 317.767C148.008 317.268 148.314 316.672 148.466 316.03C148.618 315.388 148.613 314.72 148.45 314.08C148.117 312.804 147.714 311.546 147.245 310.314C146.582 308.09 154.557 271.614 153.874 259.503C153.894 258.974 153.758 258.452 153.483 258C153.241 257.69 151.313 258.17 150.971 258C149.201 257.304 147.292 257.027 145.396 257.189C144.341 257.289 141.639 257.469 140.836 258.351C139.891 259.403 140.273 263.3 140.253 264.692C140.233 267.197 140.323 269.651 140.273 272.095Z" fill="#BB826C"/>
<path d="M117.882 225.703C118.656 236.832 120.313 247.952 119.811 259.072C119.719 259.621 119.822 260.184 120.102 260.665C120.371 261.001 120.715 261.269 121.107 261.446C123.478 262.598 126.371 262.678 129.143 262.739L151.493 263.179C152.829 263.179 154.407 263.179 155.15 262.238C155.431 261.844 155.607 261.385 155.662 260.905C158.669 245.598 161.04 230.221 162.774 214.773C163.668 206.909 164.351 198.744 161.267 191.301C150.579 193.054 142.272 191.502 131.403 190.79C127.556 190.54 123.528 193.255 120.183 204.585C118.225 211.444 117.447 218.584 117.882 225.703Z" fill="#3F3D56"/>
<path d="M138.987 262.759L153.673 263.049C152.968 263.179 152.25 263.23 151.534 263.199L129.183 262.759C126.431 262.708 123.528 262.618 121.147 261.466C120.755 261.289 120.411 261.021 120.143 260.685C119.868 260.198 119.762 259.635 119.841 259.082C120.354 247.952 118.646 236.832 117.923 225.703C117.503 218.589 118.294 211.455 120.263 204.605C123.608 193.275 127.636 190.58 131.484 190.81C133.824 190.961 136.044 191.161 138.194 191.351C135.351 192.603 132.528 196.29 130.067 204.605C128.084 211.453 127.282 218.587 127.697 225.703C128.42 236.832 130.128 247.952 129.615 259.082C129.532 259.634 129.635 260.197 129.907 260.685C130.195 261.025 130.56 261.293 130.971 261.466C133.332 262.618 136.225 262.708 138.987 262.759Z" fill="url(#paint3_linear)"/>
<path d="M161.629 192.113C159.67 192.113 157.742 192.113 155.813 191.962C157.581 191.832 159.409 191.632 161.308 191.321C161.418 191.582 161.529 191.852 161.629 192.113Z" fill="url(#paint4_linear)"/>
<path d="M155.823 191.952C149.93 192.229 144.023 192.025 138.164 191.341C139.132 190.913 140.191 190.727 141.247 190.8C146.511 191.161 151.182 191.692 155.823 191.952Z" fill="url(#paint5_linear)"/>
<path d="M170.941 160.106C171.755 163.682 171.835 167.379 172.528 170.975C173.332 175.102 174.949 179.119 174.919 183.327C174.942 183.958 174.857 184.588 174.668 185.19C174.447 185.737 174.118 186.234 173.701 186.65C173.283 187.067 172.785 187.395 172.237 187.615C169.223 188.937 165.506 187.354 163.467 184.749C161.428 182.145 160.685 178.739 160.183 175.513C158.816 166.607 158.776 157.571 158.756 148.565C158.756 146.892 152.508 139.278 154.557 138.717C156.606 138.156 164.191 145.6 165.095 147.062C167.753 151.058 169.729 155.465 170.941 160.106Z" fill="#5242B0"/>
<path d="M171.724 187.805C168.801 188.757 165.396 187.204 163.467 184.75C161.458 182.145 160.685 178.739 160.182 175.513C158.816 166.617 158.776 157.561 158.766 148.565C158.766 146.892 152.508 139.278 154.557 138.707C155.301 138.507 156.667 139.268 158.183 140.39C159.188 142.875 163.889 156.569 163.899 157.791C163.899 166.808 162.593 166.617 163.959 175.513C164.462 178.779 165.195 182.145 167.244 184.75C168.389 186.202 169.952 187.268 171.724 187.805Z" fill="url(#paint6_linear)"/>
<path d="M120.886 142.534C120.007 143.345 119.321 144.341 118.877 145.449C118.164 147.573 119.038 149.897 120.092 151.881C122.242 155.888 125.115 159.474 127.666 163.311C130.218 167.148 129.505 170.174 129.676 174.742C129.897 179.751 125.085 187.084 124.121 192.002C123.909 192.881 123.861 193.791 123.98 194.687C124.231 196.03 130.63 195.859 131.715 196.691C133.794 198.161 136.213 199.081 138.746 199.366C144.488 200.376 150.402 199.607 155.692 197.162C158.274 195.899 160.715 194.036 161.8 191.371C162.447 189.275 162.676 187.073 162.473 184.89C162.393 180.342 159.017 176.204 161.057 172.127C162.121 169.993 163.658 168.12 164.643 165.916C165.537 163.891 165.942 161.684 165.825 159.475C165.708 157.265 165.073 155.113 163.97 153.193C162.774 151.19 161.067 149.447 160.092 147.303C158.806 144.498 158.766 140.991 156.536 138.858C154.688 137.074 151.885 136.854 149.324 136.654C145.989 136.433 146.31 135.652 142.955 135.422C140.193 135.241 137.571 134.68 134.849 135.171C132.189 135.657 129.621 136.549 127.235 137.816C126.14 138.397 120.886 141.142 120.886 142.534Z" fill="#5242B0"/>
<path d="M151.524 198.745C147.361 199.857 143.008 200.068 138.756 199.366C136.226 199.079 133.808 198.163 131.725 196.701C130.64 195.859 124.241 196.03 123.99 194.697C123.872 193.801 123.919 192.891 124.131 192.012C125.135 187.094 129.907 179.761 129.686 174.752C129.495 170.184 130.148 167.148 127.677 163.311C125.206 159.474 122.242 155.888 120.093 151.881C119.028 149.877 118.154 147.563 118.887 145.439C119.259 144.317 121.208 140.35 127.235 137.806C129.671 136.647 132.228 135.76 134.859 135.161C136.456 134.921 138.078 134.901 139.681 135.101C138.274 135.602 136.898 136.213 135.522 136.784C129.495 139.339 127.546 143.296 127.154 144.428C126.431 146.551 127.305 148.876 128.37 150.859C130.519 154.866 133.392 158.453 135.944 162.289C138.495 166.126 137.772 169.152 137.953 173.71C138.164 178.719 133.362 186.052 132.398 190.981C132.186 191.859 132.139 192.77 132.257 193.665C132.508 195.008 138.907 194.838 139.992 195.669C142.078 197.124 144.495 198.036 147.024 198.324C148.512 198.565 150.016 198.706 151.524 198.745Z" fill="url(#paint7_linear)"/>
<path d="M141.529 145.59C142.652 146.445 143.865 147.177 145.145 147.774C146.351 148.395 147.586 148.976 148.822 149.537C148.963 149.623 149.13 149.658 149.294 149.637C149.431 149.586 149.548 149.491 149.625 149.366C150 148.774 150.224 148.1 150.278 147.401C150.333 146.703 150.215 146.002 149.937 145.359C149.465 144.037 148.661 142.855 148.108 141.562C147.715 140.188 147.115 138.881 146.33 137.686C145.534 136.869 144.581 136.222 143.528 135.782C141.89 134.961 138.505 133.398 137.32 135.682C136.315 137.555 137.802 140.621 138.726 142.254C139.446 143.529 140.396 144.66 141.529 145.59Z" fill="white"/>
<path d="M109.214 87.7666C107.113 89.2931 105.506 91.4002 104.593 93.8274C103.176 97.2134 102.584 101.281 104.482 104.426C105.333 105.74 106.52 106.804 107.92 107.508C109.32 108.213 110.883 108.532 112.448 108.433C114.009 108.306 115.526 107.862 116.908 107.128C118.29 106.394 119.507 105.386 120.484 104.166C123.217 100.87 126.12 93.1462 122.975 89.2392C120.082 85.6528 112.739 85.4024 109.214 87.7666Z" fill="#3F3D56"/>
<path d="M109.214 87.7666C107.113 89.2931 105.506 91.4002 104.593 93.8274C103.176 97.2134 102.584 101.281 104.482 104.426C105.333 105.74 106.52 106.804 107.92 107.508C109.32 108.213 110.883 108.532 112.448 108.433C114.009 108.306 115.526 107.862 116.908 107.128C118.29 106.394 119.507 105.386 120.484 104.166C123.217 100.87 126.12 93.1462 122.975 89.2392C120.082 85.6528 112.739 85.4024 109.214 87.7666Z" fill="url(#paint8_linear)"/>
<path d="M131.011 80.8041C129.842 80.9123 128.7 81.2207 127.636 81.7158C123.881 83.2012 120.68 85.8124 118.475 89.1891C117.165 91.448 116.209 93.8941 115.642 96.442C114.581 100.015 114.327 103.779 114.899 107.462C115.515 110.054 116.532 112.534 117.913 114.815C118.552 115.998 119.302 117.118 120.153 118.161C121.493 119.578 123.016 120.811 124.683 121.827C126.089 122.875 127.661 123.681 129.334 124.212C133.432 125.303 137.742 123.21 141.037 120.595C144.491 117.886 147.246 114.393 149.073 110.407C150.879 106.409 151.422 101.957 150.63 97.6442C150.211 95.7138 149.588 93.8333 148.771 92.0342C147.204 88.4277 145.155 85.7229 141.278 84.6109C137.671 83.5991 134.979 80.5537 131.011 80.8041Z" fill="#3F3D56"/>
<path d="M159.992 115.927C159.389 120.224 157.45 124.672 153.633 126.746C151.624 127.828 149.153 128.289 147.817 130.112C146.32 132.116 146.883 134.951 147.134 137.455C147.207 137.901 147.173 138.358 147.033 138.788C146.838 139.114 146.577 139.397 146.265 139.616C145.954 139.835 145.599 139.986 145.225 140.06C143.175 140.704 141.021 140.959 138.877 140.811C138.64 140.83 138.402 140.802 138.177 140.729C137.951 140.655 137.742 140.538 137.563 140.383C137.383 140.228 137.237 140.039 137.131 139.827C137.025 139.615 136.963 139.384 136.948 139.148C136.134 136.143 136.335 132.827 135.19 129.892C134.476 128.359 133.671 126.871 132.779 125.434C130.774 121.402 129.576 117.019 129.253 112.531C128.771 108.106 128.66 103.65 128.922 99.207C128.939 97.8791 129.173 96.5628 129.615 95.31C130.189 94.0542 130.97 92.903 131.925 91.904C133.579 89.7663 135.667 88.0014 138.053 86.7247C139.629 86.0648 141.321 85.725 143.03 85.725C144.74 85.725 146.432 86.0648 148.008 86.7247C151.154 88.0637 153.916 90.164 156.044 92.8356C161.277 99.0367 161.046 108.273 159.992 115.927Z" fill="#BB826C"/>
<path opacity="0.46" d="M139.419 116.879C143.591 116.879 146.973 113.506 146.973 109.345C146.973 105.184 143.591 101.812 139.419 101.812C135.247 101.812 131.865 105.184 131.865 109.345C131.865 113.506 135.247 116.879 139.419 116.879Z" fill="white"/>
<path opacity="0.46" d="M155.642 115.025C159.504 115.025 162.634 111.904 162.634 108.053C162.634 104.202 159.504 101.08 155.642 101.08C151.781 101.08 148.651 104.202 148.651 108.053C148.651 111.904 151.781 115.025 155.642 115.025Z" fill="white"/>
<path d="M139.982 76.3763C143.903 74.8215 148.205 74.4931 152.317 75.4346C157.772 76.6768 162.905 80.4435 164.462 85.8431C165.241 88.8216 165.094 91.9661 164.04 94.8592C162.978 97.7436 161.41 100.417 159.409 102.753C159.318 102.892 159.178 102.992 159.017 103.034C158.817 103.034 158.646 102.904 158.495 102.773C157.484 102.019 156.318 101.499 155.08 101.251C148.892 99.4274 143.116 96.4621 137.25 93.7673C135.863 93.1362 134.186 92.5251 132.9 93.3465C132.037 94.0613 131.474 95.073 131.323 96.1816C130.269 100.109 129.653 104.141 129.485 108.203C127.666 105.764 126.233 103.061 125.236 100.189C124.434 97.8245 124.044 95.3411 124.081 92.8456C124.081 91.0725 124.081 89.1591 125.145 87.7165C126.21 86.2739 127.636 86.7147 129.163 86.1136C130.379 85.6027 130.921 83.8596 131.655 82.8578C133.784 79.9783 136.664 77.7364 139.982 76.3763Z" fill="#3F3D56"/>
<path d="M139.982 76.3763C143.903 74.8215 148.205 74.4931 152.317 75.4346C157.772 76.6768 162.905 80.4435 164.462 85.8431C165.241 88.8216 165.094 91.9661 164.04 94.8592C162.978 97.7436 161.41 100.417 159.409 102.753C159.318 102.892 159.178 102.992 159.017 103.034C158.817 103.034 158.646 102.904 158.495 102.773C157.484 102.019 156.318 101.499 155.08 101.251C148.892 99.4274 143.116 96.4621 137.25 93.7673C135.863 93.1362 134.186 92.5251 132.9 93.3465C132.037 94.0613 131.474 95.073 131.323 96.1816C130.269 100.109 129.653 104.141 129.485 108.203C127.666 105.764 126.233 103.061 125.236 100.189C124.434 97.8245 124.044 95.3411 124.081 92.8456C124.081 91.0725 124.081 89.1591 125.145 87.7165C126.21 86.2739 127.636 86.7147 129.163 86.1136C130.379 85.6027 130.921 83.8596 131.655 82.8578C133.784 79.9783 136.664 77.7364 139.982 76.3763Z" fill="url(#paint9_linear)"/>
<path d="M126.692 106.38C126.148 106.553 125.659 106.865 125.273 107.285C124.887 107.705 124.618 108.218 124.492 108.774C123.849 111.068 124.864 113.492 126.13 115.516C126.843 116.648 127.857 117.85 129.203 117.82C129.389 117.831 129.575 117.802 129.749 117.735C129.922 117.667 130.079 117.563 130.208 117.429C130.367 117.167 130.463 116.871 130.489 116.565C130.515 116.26 130.471 115.952 130.359 115.666C129.934 113.452 129.748 111.198 129.806 108.944C129.823 108.554 129.749 108.166 129.59 107.809C129.431 107.453 129.191 107.138 128.889 106.889C128.587 106.641 128.232 106.465 127.851 106.377C127.469 106.289 127.073 106.29 126.692 106.38Z" fill="#BB826C"/>
<path d="M128.289 111.92C128.092 111.805 127.926 111.646 127.804 111.454C127.681 111.262 127.607 111.044 127.586 110.818C127.586 110.417 127.586 109.966 127.375 109.656C127.275 109.553 127.154 109.471 127.021 109.416C126.889 109.361 126.746 109.334 126.602 109.335C126.362 109.31 126.12 109.359 125.909 109.475C125.738 109.643 125.617 109.854 125.559 110.085C125.5 110.317 125.507 110.56 125.577 110.788C125.849 112.262 126.685 113.573 127.908 114.444C128.065 114.577 128.247 114.676 128.444 114.734C128.642 114.793 128.849 114.81 129.053 114.785C129.313 114.682 129.531 114.494 129.671 114.252C129.812 114.011 129.866 113.729 129.826 113.452C129.787 112.922 129.675 112.4 129.495 111.9C129.308 111.992 129.103 112.041 128.894 112.045C128.686 112.048 128.479 112.006 128.289 111.92Z" fill="url(#paint10_linear)"/>
<path d="M117.199 219.151C117.953 221.665 118.565 224.27 119.972 226.474C121.378 228.678 123.799 230.481 126.411 230.301C126.965 230.299 127.503 230.12 127.948 229.79C128.262 229.513 128.512 229.171 128.681 228.788C129.906 226.334 130.188 223.198 128.57 220.994C127.741 220.067 126.859 219.187 125.928 218.359C123.256 215.494 123.035 211.217 122.433 207.34C121.661 202.991 120.57 198.706 119.168 194.517C118.961 193.552 118.488 192.664 117.802 191.952C117.138 191.479 116.376 191.161 115.572 191.021C113.211 190.43 108.932 188.075 108.36 191.331C107.877 194.066 109.706 198.344 110.539 200.878C112.538 206.979 115.14 212.99 117.199 219.151Z" fill="#BB826C"/>
<path d="M174.909 168.12C175.09 168.07 174.818 167.859 174.638 167.91C173.89 168.088 173.167 168.361 172.488 168.721C171.806 169.094 171.295 169.715 171.061 170.454C170.943 171.068 170.96 171.701 171.112 172.307L172.9 182.936C172.944 183.714 173.26 184.451 173.794 185.02C174.798 185.821 176.215 185.321 177.3 184.699C177.969 184.319 178.612 183.908 179.228 183.467C179.658 183.251 179.995 182.889 180.18 182.446C180.364 182.003 180.383 181.509 180.233 181.053C180.004 177.558 179.439 174.092 178.545 170.705C178.163 169.432 177.541 168.01 176.205 167.699C175.361 167.606 174.509 167.774 173.764 168.18" fill="#5242B0"/>
<path d="M180.032 166.667C178.525 167.817 177.288 169.28 176.406 170.955C175.982 172.1 175.771 173.311 175.783 174.531C175.62 176.452 175.937 178.383 176.707 180.151C176.875 180.562 177.13 180.933 177.454 181.237C177.778 181.541 178.164 181.772 178.585 181.914C179.771 182.195 180.906 181.353 181.79 180.512C186.973 175.643 190.449 169.282 193.643 162.941C193.985 162.147 194.472 161.423 195.079 160.807C195.731 160.301 196.456 159.895 197.229 159.605C199.921 158.352 202.503 156.108 202.764 153.163C202.838 152.575 202.744 151.978 202.493 151.44C201.82 150.168 200.142 149.877 198.696 149.797C197.44 149.727 196.164 149.687 194.899 149.697C193.911 149.637 192.922 149.812 192.016 150.208C189.334 151.62 190.007 155.477 188.349 157.691C185.865 160.937 183.08 163.942 180.032 166.667Z" fill="#BB826C"/>
<path d="M112.629 158.312C110.68 164.734 110.017 171.476 109.615 178.178C109.318 180.646 109.496 183.149 110.138 185.551C110.921 187.905 112.79 190.059 115.241 190.47C116.016 190.617 116.817 190.553 117.559 190.285C118.302 190.017 118.958 189.555 119.46 188.947C120.136 187.883 120.518 186.66 120.565 185.401C120.876 181.512 121.582 177.666 122.674 173.92C123.859 170.504 125.768 167.389 127.385 164.153C130.328 158.252 132.629 148.194 125.075 144.448C118.083 140.982 114.065 153.584 112.629 158.312Z" fill="#5242B0"/>
<path d="M127.405 164.173C125.788 167.409 123.89 170.514 122.704 173.94C121.601 177.677 120.888 181.518 120.575 185.401C120.507 186.656 120.127 187.875 119.47 188.947C118.968 189.552 118.314 190.013 117.573 190.281C116.833 190.549 116.035 190.614 115.261 190.47C114.266 190.254 113.335 189.811 112.541 189.177C111.746 188.543 111.109 187.734 110.68 186.813C111.224 187.116 111.815 187.326 112.428 187.434C113.201 187.584 114 187.524 114.742 187.262C115.483 186.999 116.141 186.543 116.647 185.942C117.309 184.872 117.69 183.652 117.752 182.395C118.061 178.506 118.771 174.659 119.871 170.915C121.057 167.499 122.965 164.383 124.583 161.147C126.823 156.669 128.681 149.767 126.12 145.119C132.428 149.166 130.218 158.553 127.405 164.173Z" fill="url(#paint11_linear)"/>
<path d="M113.794 184.82C112.811 184.357 111.806 183.946 110.78 183.587C110.038 183.381 109.271 183.273 108.5 183.267C108.295 183.246 108.087 183.277 107.897 183.357C107.684 183.49 107.513 183.681 107.405 183.908C106.408 185.676 105.94 187.693 106.059 189.718C106.057 190.043 106.136 190.364 106.29 190.65C106.507 190.93 106.795 191.148 107.124 191.281C110.79 193.155 114.899 194.557 118.957 193.916C119.313 193.894 119.661 193.801 119.98 193.643C120.299 193.485 120.583 193.264 120.815 192.994C121.042 192.55 121.166 192.06 121.177 191.562C121.34 190.237 121.727 188.95 122.322 187.755C122.835 186.753 122.453 186.663 121.499 186.543C120.544 186.423 119.71 186.322 118.826 186.172C117.102 185.918 115.413 185.464 113.794 184.82Z" fill="#5242B0"/>
<path d="M195.983 151.13L232.729 98.8563L233.703 99.4674L198.424 151.711L195.983 151.13Z" fill="#BB826C"/>
<path d="M195.983 151.13L232.729 98.8563L233.703 99.4674L198.424 151.711L195.983 151.13Z" fill="url(#paint12_linear)"/>
<path d="M191.443 160.236L185.346 169.142C185.346 169.142 186.762 171.145 188.178 170.334L194.276 160.677L191.443 160.236Z" fill="url(#paint13_linear)"/>
</g>
<defs>
<linearGradient id="paint0_linear" x1="163.779" y1="453.339" x2="168.974" y2="291.719" gradientUnits="userSpaceOnUse">
<stop offset="0.01"/>
<stop offset="1" stop-opacity="0"/>
</linearGradient>
<linearGradient id="paint1_linear" x1="263.748" y1="295.176" x2="254.656" y2="-171.417" gradientUnits="userSpaceOnUse">
<stop offset="0.01"/>
<stop offset="0.15" stop-opacity="0.26"/>
<stop offset="1" stop-opacity="0"/>
</linearGradient>
<linearGradient id="paint2_linear" x1="21882.2" y1="14364.1" x2="4713.12" y2="17098.4" gradientUnits="userSpaceOnUse">
<stop offset="0.01"/>
<stop offset="1" stop-opacity="0"/>
</linearGradient>
<linearGradient id="paint3_linear" x1="3385.01" y1="16757" x2="4716.27" y2="16793.1" gradientUnits="userSpaceOnUse">
<stop offset="0.01"/>
<stop offset="1" stop-opacity="0"/>
</linearGradient>
<linearGradient id="paint4_linear" x1="935.989" y1="345.243" x2="964.339" y2="356.675" gradientUnits="userSpaceOnUse">
<stop offset="0.01"/>
<stop offset="1" stop-opacity="0"/>
</linearGradient>
<linearGradient id="paint5_linear" x1="2165.28" y1="440.515" x2="2358.95" y2="586.303" gradientUnits="userSpaceOnUse">
<stop offset="0.01"/>
<stop offset="1" stop-opacity="0"/>
</linearGradient>
<linearGradient id="paint6_linear" x1="2531.75" y1="8430.16" x2="2760.96" y2="8413.65" gradientUnits="userSpaceOnUse">
<stop offset="0.01"/>
<stop offset="1" stop-opacity="0"/>
</linearGradient>
<linearGradient id="paint7_linear" x1="2906.22" y1="12825.5" x2="4737.7" y2="12146" gradientUnits="userSpaceOnUse">
<stop offset="0.01"/>
<stop offset="1" stop-opacity="0"/>
</linearGradient>
<linearGradient id="paint8_linear" x1="2127.41" y1="2343.56" x2="1842.27" y2="2242.72" gradientUnits="userSpaceOnUse">
<stop offset="0.01"/>
<stop offset="1" stop-opacity="0"/>
</linearGradient>
<linearGradient id="paint9_linear" x1="5559.91" y1="3692.66" x2="5024.81" y2="2814.17" gradientUnits="userSpaceOnUse">
<stop offset="0.01"/>
<stop offset="1" stop-opacity="0"/>
</linearGradient>
<linearGradient id="paint10_linear" x1="606.948" y1="734.382" x2="574.424" y2="739.757" gradientUnits="userSpaceOnUse">
<stop offset="0.01"/>
<stop offset="1" stop-opacity="0"/>
</linearGradient>
<linearGradient id="paint11_linear" x1="2249.9" y1="8117.75" x2="1953.36" y2="8057.46" gradientUnits="userSpaceOnUse">
<stop offset="0.01"/>
<stop offset="1" stop-opacity="0"/>
</linearGradient>
<linearGradient id="paint12_linear" x1="6512.87" y1="6037.03" x2="8416.83" y2="8665.83" gradientUnits="userSpaceOnUse">
<stop offset="0.01"/>
<stop offset="1" stop-opacity="0"/>
</linearGradient>
<linearGradient id="paint13_linear" x1="1680.07" y1="1860.29" x2="1762.26" y2="1998.11" gradientUnits="userSpaceOnUse">
<stop offset="0.01"/>
<stop offset="1" stop-opacity="0"/>
</linearGradient>
<clipPath id="clip0">
<rect width="455" height="342" fill="white"/>
</clipPath>
</defs>
</svg>
