<svg width="454" height="342" viewBox="0 0 454 342" fill="none" xmlns="http://www.w3.org/2000/svg">
<g clip-path="url(#clip0)">
<path opacity="0.18" d="M405.163 77.7809C409.5 102.465 384.704 126.807 392.365 150.648C396.775 164.42 410.002 173.008 421.405 181.866C439.527 195.913 456.249 216.322 453.746 239.105C451.04 263.679 427.628 281.053 404.358 289.432C317.073 320.831 18.1822 375.988 0.468362 236.759C-2.90464 210.147 12.3896 183.777 29.5523 163.153C43.2041 146.754 119.246 73.049 147.04 59.2885C270.849 -2.02762 392.409 5.12254 405.163 77.7809Z" fill="#5242B0"/>
<path opacity="0.05" d="M253.521 42.1458C253.521 42.1458 417.211 40.7191 389.753 107.643C368.485 159.424 392.79 163.219 400.39 188.261C407.991 213.303 399.145 241.832 380.836 255.35C362.527 268.868 289.252 266.478 289.252 286.49C289.252 306.503 268.86 299.199 268.86 299.199H140.498L163.944 228.535L253.521 42.1458Z" fill="#000405"/>
<path d="M278.29 291.371H140.498V299.221H278.29V291.371Z" fill="#5242B0"/>
<path d="M257.241 228.551H163.943V291.371H257.241V228.551Z" fill="#5242B0"/>
<path d="M257.241 228.551H163.943V291.371H257.241V228.551Z" fill="#5242B0"/>
<path d="M257.241 228.551H163.943V291.371H257.241V228.551Z" fill="url(#paint0_linear)"/>
<path d="M380.835 50.8218V215.341C380.835 220.057 379.906 224.726 378.1 229.082C376.294 233.439 373.646 237.397 370.309 240.73C366.972 244.063 363.01 246.707 358.651 248.509C354.291 250.312 349.619 251.238 344.901 251.235H71.5C61.9754 251.235 52.8409 247.454 46.106 240.722C39.371 233.991 35.5874 224.861 35.5874 215.341V50.8218C35.5867 46.1074 36.515 41.439 38.3194 37.0832C40.1238 32.7274 42.7689 28.7695 46.1037 25.4354C49.4385 22.1013 53.3976 19.4564 57.7551 17.6516C62.1127 15.8468 66.7832 14.9175 71.5 14.9168H344.868C349.587 14.911 354.261 15.8347 358.624 17.6351C362.986 19.4355 366.95 22.0774 370.29 25.4097C373.631 28.7421 376.281 32.6995 378.09 37.0561C379.9 41.4126 380.833 46.0828 380.835 50.7997V50.8218Z" fill="#5242B0"/>
<path d="M380.836 50.8218V206.715H35.626V50.8218C35.6253 46.1074 36.5536 41.439 38.358 37.0832C40.1624 32.7274 42.8075 28.7695 46.1422 25.4354C49.477 22.1013 53.4362 19.4564 57.7937 17.6516C62.1512 15.8468 66.8217 14.9175 71.5386 14.9168H344.868C349.587 14.911 354.261 15.8347 358.624 17.6351C362.986 19.4355 366.95 22.0774 370.29 25.4097C373.631 28.7421 376.281 32.6995 378.09 37.0561C379.9 41.4126 380.833 46.0828 380.836 50.7997V50.8218Z" fill="url(#paint1_linear)"/>
<path d="M321.207 47.4451H77.3037V95.5186H321.207V47.4451Z" fill="url(#paint2_linear)"/>
<path d="M188.095 101.655H77.3037V198.48H188.095V101.655Z" fill="url(#paint3_linear)"/>
<path d="M319.24 101.655H195.921V133.991H319.24V101.655Z" fill="url(#paint4_linear)"/>
<path d="M319.24 140.127H195.921V172.463H319.24V140.127Z" fill="url(#paint5_linear)"/>
<path d="M319.24 178.599H195.921V198.48H319.24V178.599Z" fill="url(#paint6_linear)"/>
<path d="M266.198 314.237H271.461L255.241 110.293L250.793 111.488L251.802 124.813L235.818 125.821L234.589 110.293L230.142 111.488L245.53 314.237H250.793L248.958 291.101L264.39 290.154L264.158 286.49L248.666 287.443L247.348 270.918L263.188 269.915L262.962 266.263L247.062 267.243L245.75 250.685L261.281 249.699L266.198 314.237ZM236.111 129.457L252.094 128.438L253.35 144.997L237.439 146.021L236.111 129.457ZM237.714 149.651L253.615 148.632L254.871 165.263L239.048 166.254L237.714 149.651ZM239.329 169.885L255.147 168.871L256.492 186.548L240.702 187.507L239.329 169.885ZM241.016 191.148L256.767 190.206L257.936 205.63L242.245 206.616L241.016 191.148ZM242.531 210.274L258.211 209.276L259.468 225.857L243.849 226.843L242.531 210.274ZM245.458 247.054L244.135 230.474L259.749 229.476L261.006 246.068L245.458 247.054Z" fill="#5242B0"/>
<path d="M132.17 123.243V110.293H128.924V123.243H113.133V127.254H128.924V306.553H132.17V148.131L151.416 127.254H166.153V123.221L132.17 123.243ZM132.17 142.463V127.254H146.808L132.17 142.463Z" fill="#5242B0"/>
<path d="M292.509 123.243V110.293H289.263V123.243H258.074V127.254H271.615L289.252 146.368V306.553H292.509V127.254H311.105V123.221L292.509 123.243ZM289.263 140.799L276.217 127.254H289.252L289.263 140.799Z" fill="#5242B0"/>
<g opacity="0.61">
<path opacity="0.61" d="M266.197 314.237H271.46L255.24 110.293L250.793 111.488L251.801 124.813L235.818 125.821L234.589 110.293L230.141 111.488L245.529 314.237H250.793L248.957 291.101L264.389 290.154L264.158 286.49L248.665 287.443L247.348 270.918L263.188 269.915L262.962 266.263L247.061 267.243L245.75 250.685L261.281 249.699L266.197 314.237ZM236.11 129.457L252.093 128.438L253.35 144.997L237.438 146.021L236.11 129.457ZM237.714 149.651L253.614 148.632L254.871 165.263L239.048 166.254L237.714 149.651ZM239.329 169.885L255.147 168.871L256.491 186.548L240.701 187.507L239.329 169.885ZM241.015 191.148L256.767 190.206L257.935 205.63L242.244 206.616L241.015 191.148ZM242.531 210.274L258.211 209.276L259.468 225.857L243.848 226.843L242.531 210.274ZM245.457 247.054L244.135 230.474L259.749 229.476L261.005 246.068L245.457 247.054Z" fill="url(#paint7_linear)"/>
<path opacity="0.61" d="M132.17 123.243V110.293H128.924V123.243H113.133V127.254H128.924V306.553H132.17V148.131L151.416 127.254H166.153V123.221L132.17 123.243ZM132.17 142.463V127.254H146.808L132.17 142.463Z" fill="url(#paint8_linear)"/>
<path opacity="0.61" d="M292.509 123.243V110.293H289.263V123.243H258.073V127.254H271.615L289.252 146.368V306.553H292.509V127.254H311.104V123.221L292.509 123.243ZM289.263 140.799L276.217 127.254H289.252L289.263 140.799Z" fill="url(#paint9_linear)"/>
</g>
<path d="M258.559 164.514L258.184 167.874H250.418C250.418 167.874 249.784 165.935 251.201 165.45C251.978 165.176 252.779 164.975 253.593 164.85L258.559 164.514Z" fill="#5242B0"/>
<path d="M247.728 94.9181C247.371 97.9254 247.557 100.972 248.28 103.914C248.713 104.472 249.287 104.904 249.942 105.166C250.598 105.429 251.312 105.512 252.011 105.406V107.643H255.726L257.313 96.444C257.313 96.444 251.465 88.9854 247.728 94.9181Z" fill="url(#paint10_linear)"/>
<path d="M250.347 96.0364C250.932 97.2065 251.305 98.471 251.449 99.7712C251.449 99.7712 252.193 98.2784 252.551 99.022C252.909 99.7657 251.807 101.264 251.807 101.264L252.909 103.126H256.685C256.685 103.126 258.553 94.9567 257.506 93.833C256.459 92.7092 255.753 92.7312 255.753 92.7312C255.753 92.7312 255.753 91.6295 253.51 91.6295C251.267 91.6295 248.285 91.6295 247.166 93.4969C246.048 95.3643 245.673 94.5986 245.673 94.5986C245.673 94.5986 246.307 95.9813 247.277 95.6453C247.508 95.5902 249.972 94.9181 250.347 96.0364Z" fill="#333333"/>
<path d="M252.022 107.643H258.299C258.299 107.643 260.95 108.194 261.32 114.545C261.546 118.885 261.546 123.233 261.32 127.573V137.984L258.299 136.976L247.095 139.477L245.992 124.213C244.83 124.071 243.713 123.678 242.717 123.062C241.722 122.445 240.872 121.62 240.227 120.643C239.412 119.421 238.898 118.022 238.73 116.563C238.561 115.103 238.742 113.624 239.257 112.248L247.056 116.352L247.469 114.149C247.897 111.761 249.234 109.632 251.201 108.21L252.022 107.643Z" fill="#5242B0"/>
<path d="M240.299 110.182L238.436 104.211L245.865 103.087L248.368 111.224L247.056 116.352L242.603 114.033L240.299 110.182Z" fill="#FCFDFF"/>
<path d="M238.806 113.521C238.932 112.272 239.456 111.096 240.299 110.166L240.674 110.535H243.049L243.424 111.995L242.564 113.223C242.047 113.658 241.407 113.921 240.733 113.975C240.059 114.028 239.385 113.869 238.806 113.521Z" fill="url(#paint11_linear)"/>
<path d="M242.603 114.033L244.372 118.726L247.056 116.352L242.603 114.033Z" fill="url(#paint12_linear)"/>
<path opacity="0.61" d="M245.866 123.948C245.866 123.948 251.868 121.706 251.868 117.977L253.367 135.114L247.012 136.618L245.866 123.948Z" fill="url(#paint13_linear)"/>
<path d="M246.985 136.602L245.866 155.188L247.359 164.888H251.84L252.584 148.88L255.197 142.16L253.334 164.888L258.559 165.263L261.132 135.109L258.184 133.991L246.985 136.602Z" fill="#333333"/>
<path d="M251.614 164.888V168.607L243.738 165.797C243.738 165.797 243.738 163.743 245.265 163.743C246.092 163.738 246.917 163.813 247.729 163.968L251.614 164.888Z" fill="#5242B0"/>
<path d="M148.804 312.298L149.19 315.647H156.961C156.961 315.647 157.594 313.708 156.172 313.224C155.398 312.949 154.599 312.749 153.786 312.629L148.804 312.298Z" fill="#5242B0"/>
<path d="M154.199 241.987C155.549 244.676 156.41 247.584 156.74 250.574C156.293 252.701 153.676 253.185 153.676 253.185L154.387 255.312L150.655 256.617L145.574 246.542C145.574 246.542 148.748 237.547 154.199 241.987Z" fill="url(#paint14_linear)"/>
<path d="M152.072 243.893C151.857 245.126 151.857 246.388 152.072 247.622C152.072 247.622 150.876 246.465 150.766 247.286C150.656 248.107 152.182 249.153 152.182 249.153L151.736 251.28L148.341 252.436C148.341 252.436 143.932 245.275 144.604 243.893C145.276 242.51 145.613 242.361 145.613 242.361C145.613 242.361 145.238 241.314 147.365 240.571C149.493 239.827 152.325 238.918 153.979 240.312C155.632 241.706 155.732 240.863 155.732 240.863C155.732 240.863 155.732 242.356 154.536 242.394C154.651 242.548 152.072 242.697 152.072 243.893Z" fill="#333333"/>
<path d="M155.544 255.35H149.272C149.272 255.35 146.621 255.901 146.246 262.253C146.02 266.59 146.02 270.937 146.246 275.275V285.686L149.272 284.678L160.471 287.179L161.573 271.92C162.732 271.729 163.836 271.291 164.809 270.634C165.782 269.976 166.602 269.117 167.212 268.114C168.025 266.889 168.537 265.49 168.705 264.03C168.874 262.57 168.695 261.091 168.182 259.713L160.377 263.817L159.964 261.614C159.535 259.228 158.198 257.101 156.233 255.681L155.544 255.35Z" fill="#5242B0"/>
<path d="M167.085 257.923L168.948 251.99L161.48 250.872L159.016 259.008L160.361 263.894L164.842 261.658L167.085 257.923Z" fill="#FCFDFF"/>
<path d="M168.573 261.322C168.451 260.07 167.927 258.891 167.079 257.961L166.71 258.336H164.357L163.982 259.79L164.842 261.019C165.356 261.449 165.991 261.709 166.659 261.763C167.327 261.817 167.996 261.663 168.573 261.322Z" fill="url(#paint15_linear)"/>
<path opacity="0.61" d="M161.48 271.843C161.48 271.843 155.505 269.607 155.505 265.872L155.99 286.099L160.361 287.069L161.48 271.843Z" fill="url(#paint16_linear)"/>
<path d="M160.361 284.381L161.48 302.967L160.025 312.667H155.544L154.8 296.659L152.182 289.939L154.051 312.667L148.826 313.042L146.213 282.888L149.195 281.77L160.361 284.381Z" fill="#333333"/>
<path d="M155.77 312.667V315.284L163.943 314.909C163.943 314.909 163.574 312.298 162.081 312.298C161.274 312.322 160.475 312.132 159.766 311.747L155.77 312.667Z" fill="#5242B0"/>
<path d="M287.83 95.3037H268.749C266.145 95.3023 263.648 94.2674 261.808 92.4267C259.967 90.5859 258.933 88.0899 258.933 85.4874V81.3064C258.933 78.7044 259.967 76.209 261.808 74.3691C263.649 72.5292 266.146 71.4956 268.749 71.4956H287.83C289.119 71.4949 290.395 71.7479 291.586 72.2403C292.778 72.7327 293.86 73.4547 294.772 74.3652C295.684 75.2757 296.408 76.3569 296.902 77.5469C297.396 78.7369 297.65 80.0125 297.651 81.3009V85.4819C297.651 86.771 297.397 88.0475 296.903 89.2385C296.41 90.4294 295.686 91.5116 294.774 92.4231C293.862 93.3346 292.78 94.0577 291.588 94.551C290.397 95.0443 289.119 95.2982 287.83 95.2982V95.3037Z" fill="white"/>
<path d="M261.132 100.476C261.132 100.476 268.937 100.851 270.805 95.2542H276.592C276.592 95.2542 272.712 102.344 261.132 100.476Z" fill="white"/>
<path opacity="0.15" d="M265.542 75.1753H291.754C291.932 75.1753 292.103 75.2461 292.229 75.3721C292.356 75.4982 292.426 75.6691 292.426 75.8473V76.3982C292.426 76.5764 292.356 76.7474 292.229 76.8734C292.103 76.9994 291.932 77.0703 291.754 77.0703H265.542C265.453 77.0703 265.366 77.0529 265.284 77.0191C265.203 76.9853 265.129 76.9358 265.066 76.8734C265.004 76.811 264.954 76.7369 264.92 76.6554C264.887 76.5738 264.869 76.4865 264.869 76.3982V75.8473C264.869 75.7591 264.887 75.6717 264.92 75.5902C264.954 75.5086 265.004 75.4345 265.066 75.3721C265.129 75.3097 265.203 75.2602 265.284 75.2264C265.366 75.1927 265.453 75.1753 265.542 75.1753Z" fill="#020202"/>
<path opacity="0.15" d="M265.542 79.6538H291.754C291.932 79.6538 292.103 79.7246 292.229 79.8506C292.356 79.9767 292.426 80.1476 292.426 80.3259V80.8767C292.426 81.055 292.356 81.2259 292.229 81.3519C292.103 81.478 291.932 81.5488 291.754 81.5488H265.542C265.453 81.5488 265.366 81.5314 265.284 81.4976C265.203 81.4638 265.129 81.4143 265.066 81.3519C265.004 81.2895 264.954 81.2154 264.92 81.1339C264.887 81.0524 264.869 80.965 264.869 80.8767V80.3259C264.869 80.2376 264.887 80.1502 264.92 80.0687C264.954 79.9871 265.004 79.9131 265.066 79.8506C265.129 79.7882 265.203 79.7387 265.284 79.705C265.366 79.6712 265.453 79.6538 265.542 79.6538Z" fill="#020202"/>
<path opacity="0.15" d="M265.542 84.0938H291.754C291.932 84.0938 292.103 84.1646 292.229 84.2906C292.356 84.4166 292.426 84.5876 292.426 84.7658V85.3167C292.426 85.4049 292.409 85.4923 292.375 85.5738C292.341 85.6554 292.292 85.7295 292.229 85.7919C292.167 85.8543 292.093 85.9038 292.011 85.9376C291.93 85.9713 291.842 85.9887 291.754 85.9887H265.542C265.453 85.9887 265.366 85.9713 265.284 85.9376C265.203 85.9038 265.129 85.8543 265.066 85.7919C265.004 85.7295 264.954 85.6554 264.92 85.5738C264.887 85.4923 264.869 85.4049 264.869 85.3167V84.7658C264.869 84.6775 264.887 84.5902 264.92 84.5086C264.954 84.4271 265.004 84.353 265.066 84.2906C265.129 84.2282 265.203 84.1787 265.284 84.1449C265.366 84.1111 265.453 84.0938 265.542 84.0938Z" fill="#020202"/>
<path opacity="0.15" d="M265.542 88.5723H279.833C280.01 88.5737 280.18 88.6452 280.305 88.771C280.43 88.8969 280.5 89.067 280.5 89.2443V89.7952C280.5 89.9725 280.43 90.1426 280.305 90.2684C280.18 90.3943 280.01 90.4658 279.833 90.4672H265.542C265.453 90.4672 265.366 90.4498 265.284 90.4161C265.203 90.3823 265.129 90.3328 265.066 90.2704C265.004 90.208 264.954 90.1339 264.92 90.0524C264.887 89.9708 264.869 89.8834 264.869 89.7952V89.2443C264.869 89.1561 264.887 89.0687 264.92 88.9871C264.954 88.9056 265.004 88.8315 265.066 88.7691C265.129 88.7067 265.203 88.6572 265.284 88.6234C265.366 88.5896 265.453 88.5723 265.542 88.5723Z" fill="#020202"/>
<path d="M113.878 244.151H132.958C135.525 244.145 137.987 243.133 139.816 241.332C141.645 239.532 142.695 237.087 142.741 234.522V230.16C142.741 227.558 141.707 225.062 139.866 223.222C138.025 221.382 135.528 220.349 132.925 220.349H113.878C111.273 220.349 108.775 221.383 106.933 223.224C105.091 225.065 104.056 227.562 104.056 230.165V234.528C104.107 237.098 105.164 239.545 107 241.345C108.837 243.144 111.306 244.152 113.878 244.151Z" fill="white"/>
<path d="M140.498 249.451C140.498 249.451 132.694 249.825 130.825 244.229H125.104C125.104 244.229 128.819 251.235 140.498 249.451Z" fill="white"/>
<path opacity="0.15" d="M136.094 225.896H109.882C109.704 225.896 109.533 225.825 109.406 225.699C109.28 225.573 109.209 225.402 109.209 225.224V224.701C109.209 224.522 109.28 224.351 109.406 224.225C109.533 224.099 109.704 224.029 109.882 224.029H136.094C136.273 224.029 136.444 224.099 136.57 224.225C136.696 224.351 136.767 224.522 136.767 224.701V225.224C136.767 225.402 136.696 225.573 136.57 225.699C136.444 225.825 136.273 225.896 136.094 225.896Z" fill="#020202"/>
<path opacity="0.15" d="M136.094 230.418H109.882C109.704 230.418 109.533 230.348 109.406 230.222C109.28 230.096 109.209 229.925 109.209 229.746V229.201C109.211 229.024 109.282 228.854 109.408 228.729C109.534 228.605 109.704 228.535 109.882 228.535H136.094C136.272 228.535 136.442 228.605 136.568 228.729C136.694 228.854 136.765 229.024 136.767 229.201V229.752C136.767 229.93 136.696 230.101 136.57 230.227C136.444 230.353 136.273 230.424 136.094 230.424V230.418Z" fill="#020202"/>
<path opacity="0.15" d="M136.094 234.858H109.882C109.704 234.858 109.534 234.788 109.408 234.663C109.282 234.539 109.211 234.369 109.209 234.192V233.668C109.209 233.49 109.28 233.319 109.406 233.193C109.533 233.067 109.704 232.996 109.882 232.996H136.094C136.273 232.996 136.444 233.067 136.57 233.193C136.696 233.319 136.767 233.49 136.767 233.668V234.192C136.765 234.369 136.694 234.539 136.568 234.663C136.442 234.788 136.272 234.858 136.094 234.858Z" fill="#020202"/>
<path opacity="0.15" d="M136.094 239.337H121.797C121.619 239.337 121.448 239.266 121.322 239.14C121.196 239.014 121.125 238.843 121.125 238.665V238.147C121.124 238.058 121.14 237.969 121.173 237.886C121.206 237.804 121.256 237.728 121.318 237.665C121.381 237.601 121.455 237.551 121.538 237.516C121.62 237.482 121.708 237.464 121.797 237.464H136.1C136.278 237.464 136.449 237.535 136.575 237.661C136.701 237.787 136.772 237.958 136.772 238.136V238.654C136.772 238.742 136.755 238.829 136.721 238.911C136.687 238.993 136.638 239.067 136.575 239.129C136.513 239.191 136.439 239.241 136.357 239.275C136.275 239.309 136.188 239.326 136.1 239.326L136.094 239.337Z" fill="#020202"/>
<path d="M164.842 261.658C164.842 261.658 163.591 266.88 162.086 266.136C161.662 265.903 161.292 265.584 160.998 265.2C160.704 264.816 160.492 264.375 160.377 263.905L164.842 261.658Z" fill="url(#paint17_linear)"/>
</g>
<defs>
<linearGradient id="paint0_linear" x1="210.592" y1="240.978" x2="210.592" y2="325.524" gradientUnits="userSpaceOnUse">
<stop stop-opacity="0.4"/>
<stop offset="1" stop-color="white" stop-opacity="0"/>
</linearGradient>
<linearGradient id="paint1_linear" x1="94.0308" y1="-6.79259" x2="374.043" y2="309.253" gradientUnits="userSpaceOnUse">
<stop offset="0.02" stop-color="white" stop-opacity="0"/>
<stop offset="1" stop-color="white"/>
</linearGradient>
<linearGradient id="paint2_linear" x1="85289.9" y1="3464.14" x2="85461.4" y2="-34386" gradientUnits="userSpaceOnUse">
<stop offset="0.02" stop-color="white" stop-opacity="0"/>
<stop offset="1" stop-color="white"/>
</linearGradient>
<linearGradient id="paint3_linear" x1="25554.8" y1="14772.4" x2="27085.8" y2="-61432.3" gradientUnits="userSpaceOnUse">
<stop offset="0.02" stop-color="white" stop-opacity="0"/>
<stop offset="1" stop-color="white"/>
</linearGradient>
<linearGradient id="paint4_linear" x1="56381.1" y1="4516.32" x2="56534.6" y2="-20942.2" gradientUnits="userSpaceOnUse">
<stop offset="0.02" stop-color="white" stop-opacity="0"/>
<stop offset="1" stop-color="white"/>
</linearGradient>
<linearGradient id="paint5_linear" x1="56334.3" y1="7274.55" x2="56487.7" y2="-18184" gradientUnits="userSpaceOnUse">
<stop offset="0.02" stop-color="white" stop-opacity="0"/>
<stop offset="1" stop-color="white"/>
</linearGradient>
<linearGradient id="paint6_linear" x1="57058.1" y1="596.217" x2="57116.1" y2="-15056.4" gradientUnits="userSpaceOnUse">
<stop offset="0.02" stop-color="white" stop-opacity="0"/>
<stop offset="1" stop-color="white"/>
</linearGradient>
<linearGradient id="paint7_linear" x1="295.27" y1="332.669" x2="182.961" y2="31.1015" gradientUnits="userSpaceOnUse">
<stop offset="0.58"/>
<stop offset="0.78" stop-opacity="0.16"/>
</linearGradient>
<linearGradient id="paint8_linear" x1="19762.4" y1="-17266.6" x2="-38379.1" y2="24888.2" gradientUnits="userSpaceOnUse">
<stop offset="0.58"/>
<stop offset="0.78" stop-opacity="0.16"/>
</linearGradient>
<linearGradient id="paint9_linear" x1="32808.1" y1="518.515" x2="-25337.2" y2="42684.8" gradientUnits="userSpaceOnUse">
<stop offset="0.58"/>
<stop offset="0.78" stop-opacity="0.16"/>
</linearGradient>
<linearGradient id="paint10_linear" x1="247.552" y1="100.135" x2="257.313" y2="100.135" gradientUnits="userSpaceOnUse">
<stop stop-color="#ECC4D7"/>
<stop offset="0.42" stop-color="#EFD4D1"/>
<stop offset="1" stop-color="#F2EAC9"/>
</linearGradient>
<linearGradient id="paint11_linear" x1="2241.24" y1="1536.58" x2="2279.76" y2="1536.58" gradientUnits="userSpaceOnUse">
<stop stop-color="#ECC4D7"/>
<stop offset="0.42" stop-color="#EFD4D1"/>
<stop offset="1" stop-color="#F2EAC9"/>
</linearGradient>
<linearGradient id="paint12_linear" x1="241.176" y1="115.498" x2="250.384" y2="119.016" gradientUnits="userSpaceOnUse">
<stop stop-opacity="0"/>
<stop offset="0.91" stop-opacity="0.8"/>
<stop offset="1"/>
</linearGradient>
<linearGradient id="paint13_linear" x1="231.949" y1="128.267" x2="260.366" y2="126.684" gradientUnits="userSpaceOnUse">
<stop offset="0.36" stop-color="#00272E"/>
<stop offset="1" stop-color="#69B9EB" stop-opacity="0"/>
</linearGradient>
<linearGradient id="paint14_linear" x1="3097.91" y1="2232.4" x2="3324.14" y2="2232.4" gradientUnits="userSpaceOnUse">
<stop stop-color="#ECC4D7"/>
<stop offset="0.42" stop-color="#EFD4D1"/>
<stop offset="1" stop-color="#F2EAC9"/>
</linearGradient>
<linearGradient id="paint15_linear" x1="1531.19" y1="659.249" x2="1569.44" y2="659.249" gradientUnits="userSpaceOnUse">
<stop stop-color="#ECC4D7"/>
<stop offset="0.42" stop-color="#EFD4D1"/>
<stop offset="1" stop-color="#F2EAC9"/>
</linearGradient>
<linearGradient id="paint16_linear" x1="1999.81" y1="1800.33" x2="1787.83" y2="1807.79" gradientUnits="userSpaceOnUse">
<stop offset="0.36" stop-color="#00272E"/>
<stop offset="1" stop-color="#69B9EB" stop-opacity="0"/>
</linearGradient>
<linearGradient id="paint17_linear" x1="1480.87" y1="2301.72" x2="1459.4" y2="2357.7" gradientUnits="userSpaceOnUse">
<stop stop-opacity="0"/>
<stop offset="0.91" stop-opacity="0.8"/>
<stop offset="1"/>
</linearGradient>
<clipPath id="clip0">
<rect width="454" height="342" fill="white"/>
</clipPath>
</defs>
</svg>
